<svg xmlns="http://www.w3.org/2000/svg" width="393" height="852" viewBox="0 0 393 852" fill="none">
    <g clip-path="url(#clip0_240_2555)">
        <path
            d="M-33.6402 7.64007C-28.5869 0.426736 -19.6669 -3.2266 -11.0269 -3.1866C139.666 -3.15993 290.346 -3.17326 441.04 -3.17326C449.56 -3.09326 458.933 -4.27993 466.4 0.760069C474.853 5.56007 479.266 15.4134 478.666 24.9334C478.733 97.0001 478.346 169.08 478.546 241.147C469.906 238.787 461.093 232.387 451.893 235.773C438.506 242.52 433.693 258.507 421.493 266.72C416.626 269.987 410.52 270.413 404.84 269.893C397.453 269.24 391.293 263.253 383.653 264.24C376.88 265.667 372.013 271.213 365.586 273.507C360.28 275.6 354.573 273.787 349.106 274.24C344.333 275.227 340.16 277.973 335.453 279.227C327.853 281.627 319.773 281.08 312.026 282.573C304.88 284 299.106 288.693 292.586 291.613C290.893 292.64 289.08 291.173 287.493 290.68C281.266 287.613 275.333 283.84 268.64 281.867C263.133 280.093 257.293 280.2 251.613 279.547C242.813 278.733 234.613 275.213 226.266 272.533C210.866 267.28 194.973 263.707 179.373 259.107C173.386 257.373 167.226 255.587 160.92 256.093C153.213 256.613 146.413 260.64 139.426 263.52C123.28 270.413 107.68 279.36 90.2798 282.68C81.5064 282.173 73.2398 278.173 65.8798 273.587C55.3064 268.213 46.4131 259.267 34.4131 256.973C22.4798 254.867 10.2398 255.88 -1.73358 254.027C-13.9069 252.64 -25.8536 248.613 -38.2402 250.04C-38.4936 175.947 -38.2402 101.853 -38.3869 27.7601C-38.4269 20.8534 -37.8136 13.4267 -33.6402 7.64007Z"
            fill="#14B8A6" stroke="#14B8A6" stroke-width="0.333333" />
        <path
            d="M177.587 96.0534C198.933 83.9601 225.533 80.6134 248.867 88.7068C270.227 95.4934 288.773 110.853 299.44 130.56C316.693 161.6 312.96 202.92 290.24 230.28C284.52 238.04 276.76 243.853 269.307 249.84C261.987 241.76 250.467 236.773 239.707 240.587C232.147 242.36 228.027 249.813 221.293 252.92C214.173 248.64 208.76 241.773 200.826 238.747C191.946 235 181.187 235.587 172.88 240.56C170.12 241.947 166.707 244.84 163.84 241.987C135.947 218.467 124.947 177.093 137.893 142.893C145.147 123.333 159.32 106.253 177.587 96.0534Z"
            fill="#6FE2D6" stroke="#6FE2D6" stroke-width="0.333333" />
        <path
            d="M451.893 235.773C461.093 232.387 469.906 238.787 478.546 241.147C478.613 278.44 478.52 315.747 478.6 353.04C478.6 356.32 478.48 359.613 478.253 362.893C464.266 362.947 450.28 362.893 436.293 362.627C436.52 351.773 436.426 340.92 436.226 330.067C426.013 330.027 415.813 330.96 405.6 330.387C405.546 320.853 405.6 311.32 405.52 301.8C406.24 301.4 407.693 300.627 408.413 300.227C408.373 298.813 408.346 297.4 408.333 295.987C384.866 295.827 361.4 295.853 337.946 295.907C338.026 296.733 338.186 298.387 338.266 299.213C339.68 301.373 341.546 303.507 341.32 306.293C341.306 326.48 341.466 346.68 340.36 366.853C339.266 366.333 337.066 365.32 335.96 364.8C334.733 359.747 335.973 354.44 336 349.293C333.626 349.253 331.253 349.227 328.893 349.16L327.506 349.053C327.186 347.68 326.893 346.293 326.6 344.92C327.573 344.067 329.52 342.373 330.493 341.533C326.213 341.027 321.946 340.64 317.653 340.4C317.626 335.16 317.64 329.92 317.8 324.693C316.613 322.8 315.453 320.88 314.293 318.987C311.413 318.973 308.546 318.973 305.68 318.987C305.613 319.96 305.466 321.933 305.4 322.92C304.386 322.853 302.386 322.747 301.373 322.693C301.626 328.693 301.693 334.707 301.733 340.707C299.12 340.907 296.506 341.12 293.88 341.227C292.786 341.067 290.586 340.733 289.493 340.573C291.466 343.027 293.333 345.627 293.093 348.973C289.733 349.107 286.386 349.16 283.026 349.213C283 362.387 282.96 375.56 283.12 388.733C281.253 388.72 279.386 388.733 277.533 388.733C277.346 384.013 276.906 379.32 276.213 374.653C275.146 376.973 274.106 379.32 273.08 381.653C265.253 381.467 257.426 381.667 249.613 381.187C246.76 378.28 242.693 378.04 238.893 377.747C238.866 383.08 238.906 388.427 238.946 393.773C236.773 393.773 234.6 393.773 232.426 393.787C232.413 408.2 232.36 422.613 232.6 437.027C228.013 437.16 223.413 437.227 218.826 437.267C219 405.72 218.666 374.16 219.013 342.613C212.56 342.2 206.08 342.787 199.64 342.147C188.76 341.107 177.84 342.92 166.973 341.733C166.026 340.76 165.08 339.787 164.146 338.813C159.28 338.88 154.413 338.893 149.546 338.867C149.653 357.2 149.333 375.547 148.453 393.867C139.053 393.827 129.666 393.947 120.28 393.707C120.48 375.84 120.226 357.973 120.426 340.12C109.626 340.107 98.8264 340.12 88.0131 340.16C87.9998 342.827 87.9864 345.507 87.9598 348.173C85.8798 348.547 83.7998 348.92 81.7331 349.293C81.6798 333.427 81.6531 317.56 81.6398 301.693C78.1598 301.4 74.6798 301.093 71.1998 300.76C71.2798 298.12 71.3598 295.48 71.4531 292.84C69.5598 292.72 67.6798 292.613 65.7998 292.507C65.4398 286.627 67.0398 280.267 64.6931 274.72C64.2664 274.6 63.4131 274.36 62.9998 274.24C61.4264 280.293 62.1331 286.6 61.9598 292.787C60.9331 292.787 58.9064 292.773 57.8931 292.773C57.7598 287.613 58.8398 281.92 55.5464 277.453C54.0931 282.413 53.8131 287.6 53.8531 292.733C46.1064 292.653 38.3731 292.667 30.6264 292.72C30.8264 285.88 30.7598 279.027 30.1064 272.2C29.2931 272.227 27.6664 272.28 26.8531 272.307C26.6264 279.067 26.6264 285.84 26.7198 292.613C24.5331 292.667 22.3598 292.733 20.1864 292.813C20.1864 295.693 20.1731 298.573 20.1731 301.467C17.0131 301.427 13.8398 301.387 10.6798 301.347C10.5198 319.44 10.6131 337.547 10.6131 355.64C10.5598 364.347 11.1864 373.12 9.7731 381.773C9.5331 377.773 9.47976 373.76 9.4131 369.76C5.34643 369.733 1.27977 369.72 -2.7869 369.733C-3.88023 365.64 -4.57357 361.44 -5.0669 357.24C-5.96024 357.28 -7.7469 357.36 -8.64024 357.4C-8.7469 361.96 -9.00023 366.533 -9.76023 371.04C-10.4936 368.267 -11.1602 365.493 -11.8002 362.72C-13.0402 362.76 -14.2802 362.787 -15.5202 362.84C-15.8802 365.533 -16.2536 368.227 -16.6402 370.933C-17.2269 366.933 -17.7736 362.933 -18.3202 358.933C-19.6402 358.973 -22.2802 359.04 -23.6002 359.08C-23.7202 360.493 -23.8536 361.907 -23.9869 363.333C-26.8402 364.507 -28.4936 366.947 -29.5336 369.76C-31.7069 369.813 -33.8802 369.88 -36.0536 369.947C-36.0936 382.013 -35.7469 394.093 -36.1736 406.147C-36.5736 406.773 -37.4002 408.027 -37.8136 408.667C-38.5869 355.8 -37.9736 302.92 -38.2402 250.04C-25.8536 248.613 -13.9069 252.64 -1.73357 254.027C10.2398 255.88 22.4798 254.867 34.4131 256.973C46.4131 259.267 55.3064 268.213 65.8798 273.587C73.2398 278.173 81.5064 282.173 90.2798 282.68C107.68 279.36 123.28 270.413 139.426 263.52C146.413 260.64 153.213 256.613 160.92 256.093C167.226 255.587 173.386 257.373 179.373 259.107C194.973 263.707 210.866 267.28 226.266 272.533C234.613 275.213 242.813 278.733 251.613 279.547C257.293 280.2 263.133 280.093 268.64 281.867C275.333 283.84 281.266 287.613 287.493 290.68C289.08 291.173 290.893 292.64 292.586 291.613C299.106 288.693 304.88 284 312.026 282.573C319.773 281.08 327.853 281.627 335.453 279.227C340.16 277.973 344.333 275.227 349.106 274.24C354.573 273.787 360.28 275.6 365.586 273.507C372.013 271.213 376.88 265.667 383.653 264.24C391.293 263.253 397.453 269.24 404.84 269.893C410.52 270.413 416.626 269.987 421.493 266.72C433.693 258.507 438.506 242.52 451.893 235.773Z"
            fill="#0A9183" stroke="#0A9183" stroke-width="0.333333" />
        <path
            d="M26.8535 272.307C27.6668 272.28 29.2935 272.227 30.1068 272.2C30.7602 279.027 30.8269 285.88 30.6268 292.72C38.3735 292.667 46.1068 292.653 53.8535 292.733C53.8135 287.6 54.0935 282.413 55.5469 277.453C58.8402 281.92 57.7602 287.613 57.8935 292.773C58.9069 292.773 60.9335 292.787 61.9602 292.787C62.1335 286.6 61.4268 280.293 63.0002 274.24C63.4135 274.36 64.2669 274.6 64.6935 274.72C67.0402 280.267 65.4402 286.627 65.8002 292.507C67.6802 292.613 69.5602 292.72 71.4535 292.84C71.3602 295.48 71.2802 298.12 71.2002 300.76C74.6802 301.093 78.1602 301.4 81.6402 301.693C81.6535 317.56 81.6802 333.427 81.7335 349.293C83.8002 348.92 85.8802 348.547 87.9602 348.173C87.9869 345.507 88.0002 342.827 88.0135 340.16C98.8268 340.12 109.627 340.107 120.427 340.12C120.227 357.973 120.48 375.84 120.28 393.707C129.667 393.947 139.054 393.827 148.454 393.867C149.334 375.547 149.654 357.2 149.547 338.867C154.414 338.893 159.28 338.88 164.147 338.813C165.08 339.787 166.027 340.76 166.974 341.733C177.84 342.92 188.76 341.107 199.64 342.147C206.08 342.787 212.56 342.2 219.014 342.613C218.667 374.16 219 405.72 218.827 437.267C223.414 437.227 228.014 437.16 232.6 437.027C232.36 422.613 232.414 408.2 232.427 393.787C234.6 393.773 236.773 393.773 238.947 393.773C238.907 388.427 238.867 383.08 238.894 377.747C242.694 378.04 246.76 378.28 249.614 381.187C257.427 381.667 265.254 381.467 273.08 381.653C274.107 379.32 275.147 376.973 276.214 374.653C276.907 379.32 277.347 384.013 277.534 388.733C279.387 388.733 281.254 388.72 283.12 388.733C282.96 375.56 283 362.387 283.027 349.213C286.387 349.16 289.734 349.107 293.094 348.973C294.614 350.92 297.48 350.187 299.64 350.4C309.4 350.173 319.107 348.64 328.894 349.16C331.254 349.227 333.627 349.253 336 349.293C335.974 354.44 334.734 359.747 335.96 364.8C337.067 365.32 339.267 366.333 340.36 366.853C341.467 346.68 341.307 326.48 341.32 306.293C341.547 303.507 339.68 301.373 338.267 299.213C338.187 298.387 338.027 296.733 337.947 295.907C361.4 295.853 384.867 295.827 408.333 295.987C408.347 297.4 408.374 298.813 408.414 300.227C407.694 300.627 406.24 301.4 405.52 301.8C405.6 311.32 405.547 320.853 405.6 330.387C415.814 330.96 426.014 330.027 436.227 330.067C436.427 340.92 436.52 351.773 436.294 362.627C450.28 362.893 464.267 362.947 478.254 362.893C478.72 387.6 478.534 412.32 478.36 437.013C473.987 439.733 469.827 443.48 468.6 448.693C465.734 459.08 464.427 469.92 460.027 479.853C456.507 471.573 452.027 463.627 450 454.787C448.387 447.987 445.494 441.12 439.84 436.707C435.707 433.28 429.92 433.267 424.88 433.973C417.76 434.787 412.16 440.48 409.587 446.88C407.254 452.827 408.8 459.293 410.054 465.293C403.867 462.467 397.507 465.96 391.174 466.133C391.12 455.867 390.734 444.827 384.667 436.093C381.307 431.733 376.067 427.933 370.347 428.28C364.867 430.12 360.133 435.053 359.4 440.92C358.107 448.973 360.48 456.973 362.72 464.627C359.44 461.333 355.627 457.053 350.453 457.947C345.027 459.267 341.587 464.347 339.747 469.307C337.6 474.627 337.56 480.44 337.64 486.08C335.907 483.707 334.28 481.2 332.04 479.267C328.2 476.64 323.187 476.253 319.627 473.16C311.773 466.067 311.32 453.733 302.454 447.507C294.187 440.827 280.667 441.427 273.76 449.787C268.187 455.827 268.734 465.267 272.374 472.16C275.147 477.867 280.014 483.24 279.12 490.027C274.627 489.013 270.72 485.84 266.094 485.573C261.974 486.333 258.627 489.733 257.454 493.693C252.867 509.493 260.52 528.893 276.094 535.387C291.587 541.093 309.12 538.84 323.974 532.267C330.92 529.293 335.453 523.027 339.613 517.027C344.72 521.893 350.16 526.68 356.854 529.253C365.827 533.227 375.867 531.92 385.4 532.147C386.84 540.267 389.76 548.427 395.854 554.24C404.307 562.44 414.454 569.933 426.333 571.947C437.947 573.8 448.827 568.493 459.613 565.067C466.414 562.947 472.827 559.627 478.333 555.067C478.627 567.293 478.494 579.52 478.414 591.747C478.534 599.787 473.76 607.093 467.28 611.52C461.907 615.187 455.2 615.64 448.894 615.6C364.974 615.587 281.054 615.627 197.134 615.56C196.92 607.493 201.427 600.48 206.494 594.613C215.187 584.88 224.854 575.36 229.56 562.907C231.52 557.253 232.454 550.387 228.934 545.147C226.56 541.347 222.707 538.827 218.827 536.76C207.507 530.92 194.667 528.707 183.56 522.4C181.6 521.32 179.92 519.227 180.16 516.88C182.027 512.76 186.427 510.853 190.054 508.627C201.694 502.227 213.547 494.36 219.64 482.107C223.494 474.747 223.107 465.013 230.187 459.533C239.92 452.027 252.134 447.147 259.267 436.667C263.6 430.48 263.6 422.24 268.48 416.4C270.907 413.44 273.214 410.373 274.787 406.867C271.987 410.253 269.28 413.72 266.44 417.067C261.92 422.56 261.56 430.24 257.067 435.76C249.294 445.813 237.214 450.853 226.827 457.627C220.84 461.453 216.947 467.587 213.454 473.6C209 481.253 203.774 488.667 196.56 493.973C187.947 500.893 177.574 505.027 168.347 511C165.627 513.12 161.974 515.707 162.547 519.667C162.814 523.773 167.094 525.947 170.28 527.76C180.24 532.173 191.134 534.4 200.547 540.093C205.094 542.8 209.667 547.307 209.347 553.013C208.374 559.8 202.28 564.053 197.307 568.027C181.067 579.107 162.307 585.64 143.734 591.573C126.44 596.613 109 601.2 91.3202 604.68C78.7469 607.453 65.8802 609.747 54.1735 615.32C34.2669 615.933 14.2935 615.507 -5.63982 615.6C-12.1598 615.56 -19.1198 615.813 -25.0665 612.693C-29.7465 609.893 -34.1332 606.067 -36.2798 600.933C-38.0265 596.76 -38.1198 592.173 -38.3198 587.733C-27.4265 594.08 -14.4132 595.573 -2.05315 594.093C11.4802 592.627 24.6535 588.88 37.5869 584.733C49.0268 581.427 60.5469 577.387 70.2535 570.307C80.9602 561.253 88.5735 549.267 96.4269 537.813C99.4802 533.467 101.92 528.227 106.814 525.6C113.387 522 120.68 519.4 126.147 514.08C130.414 509.96 134.4 504.427 133.68 498.187C133.534 495.787 131.854 492.667 129.014 493.333C124.88 493.56 119.187 497.08 116.44 492.227C116.134 487.44 118.267 482.813 117.72 478.027C116.934 473.44 112.947 470.36 111.44 466.093C110.2 459.973 110.414 453.48 107.68 447.72C108.214 447.04 109.267 445.68 109.8 445C109.174 444.453 107.934 443.373 107.307 442.84L105.854 441.88C106.76 441.8 108.56 441.64 109.454 441.56C109.267 438.853 109.08 436.16 108.88 433.467C107 433.44 105.12 433.413 103.24 433.413C103.347 435.533 103.44 437.667 103.627 439.813C102.427 438.413 101.28 436.987 100.12 435.573C99.5335 430.933 99.9602 426.253 100.134 421.613C98.3069 421.587 96.4802 421.573 94.6535 421.573C94.6802 424.52 94.6935 427.493 94.7202 430.453C95.5602 430.853 97.2135 431.627 98.0535 432.027C97.9602 432.587 97.8002 433.733 97.7202 434.293C93.5069 433.6 88.4402 432.333 84.9735 435.693C79.6935 440.613 78.3068 448.2 73.7868 453.707C72.1869 455.453 70.5602 458.093 67.8535 457.92C65.6002 456.813 63.9735 454.827 62.3468 452.987C57.1335 446.587 50.9868 440.96 46.4402 434.027C46.6668 430.507 46.8135 426.987 46.8935 423.467C44.7868 424.053 42.6802 424.747 40.9602 426.147C39.3335 423.787 37.7335 421.413 36.1469 419.04C36.2535 416.76 36.3468 414.48 36.4402 412.213C35.4268 412.587 33.4002 413.333 32.3868 413.707C31.5602 412.747 30.6802 411.827 29.7868 410.933C29.9735 408.013 30.1335 405.093 30.2802 402.187C29.1868 402.107 27.0135 401.973 25.9335 401.893C25.6535 403.453 25.3868 405.013 25.1202 406.573C19.2935 406.2 12.4002 404.573 7.54685 408.813C-1.26648 416.253 -3.05316 428.373 -8.97316 437.787C-17.2932 451.52 -24.5598 466.893 -37.9998 476.44C-38.1865 453.987 -38.0265 431.547 -38.0932 409.093L-37.8132 408.667C-37.3998 408.027 -36.5732 406.773 -36.1732 406.147C-35.7465 394.093 -36.0932 382.013 -36.0532 369.947C-33.8798 369.88 -31.7065 369.813 -29.5332 369.76C-28.4932 366.947 -26.8398 364.507 -23.9865 363.333C-23.8532 361.907 -23.7198 360.493 -23.5998 359.08C-22.2798 359.04 -19.6398 358.973 -18.3198 358.933C-17.7732 362.933 -17.2265 366.933 -16.6398 370.933C-16.2532 368.227 -15.8798 365.533 -15.5198 362.84C-14.2798 362.787 -13.0398 362.76 -11.7998 362.72C-11.1598 365.493 -10.4932 368.267 -9.75982 371.04C-8.99982 366.533 -8.74649 361.96 -8.63983 357.4C-7.74649 357.36 -5.95982 357.28 -5.06649 357.24C-4.57316 361.44 -3.87982 365.64 -2.78648 369.733C1.28019 369.72 5.34684 369.733 9.41351 369.76C9.48018 373.76 9.53352 377.773 9.77351 381.773C11.1868 373.12 10.5602 364.347 10.6135 355.64C10.6135 337.547 10.5202 319.44 10.6802 301.347C13.8402 301.387 17.0135 301.427 20.1735 301.467C20.1735 298.573 20.1868 295.693 20.1868 292.813C22.3602 292.733 24.5335 292.667 26.7202 292.613C26.6268 285.84 26.6268 279.067 26.8535 272.307Z"
            fill="#344C5B" />
        <path
            d="M25.4268 313.613C26.9868 313.547 28.5468 313.493 30.1068 313.44C30.1334 316.08 30.1334 318.72 30.1334 321.373C29.0401 321.493 26.8534 321.747 25.7601 321.867C25.6268 319.107 25.5201 316.36 25.4268 313.613Z"
            fill="#0A9183" stroke="#0A9183" stroke-width="0.333333" />
        <path
            d="M32.1064 313.653C33.6264 313.587 35.1331 313.52 36.6531 313.467C36.6398 316.133 36.7331 318.827 36.3331 321.467C35.3598 321.6 33.3998 321.867 32.4264 322C32.2931 319.213 32.1998 316.427 32.1064 313.653Z"
            fill="#0A9183" stroke="#0A9183" stroke-width="0.333333" />
        <path
            d="M42.8001 313.68C43.5734 313.667 45.1068 313.653 45.8668 313.653C45.9201 315.96 45.9734 318.267 46.0401 320.587C45.2268 320.6 43.5868 320.627 42.7734 320.653C42.7868 318.32 42.8001 316 42.8001 313.68Z"
            fill="#14B8A6" stroke="#14B8A6" stroke-width="0.333333" />
        <path
            d="M59.0801 313.547C60.8267 313.613 62.5868 313.693 64.3601 313.787C64.0401 316.373 63.9467 319.04 63.1201 321.547C62.1334 321.667 60.1601 321.893 59.1734 322C59.1201 319.187 59.0934 316.36 59.0801 313.547Z"
            fill="#0A9183" stroke="#0A9183" stroke-width="0.333333" />
        <path
            d="M52.5733 321.347C52.0667 318.867 52.0667 316.307 52.3867 313.813C53.48 313.68 55.6533 313.427 56.7333 313.307C56.68 316.24 56.5867 319.173 56.4667 322.12C55.4934 321.92 53.5467 321.533 52.5733 321.347Z"
            fill="#0A9183" stroke="#0A9183" stroke-width="0.333333" />
        <path
            d="M347.96 338.453C348.6 330.213 348.093 321.96 348.227 313.707C349.573 313.787 352.28 313.947 353.64 314.027C352.733 319.133 352.507 324.32 353.507 329.427C351.973 330.133 350.453 330.853 348.933 331.573C350.04 331.827 352.267 332.347 353.373 332.613C353.347 334.613 353.333 336.613 353.307 338.627C351.52 338.56 349.733 338.507 347.96 338.453Z"
            fill="#0A9183" stroke="#0A9183" stroke-width="0.333333" />
        <path
            d="M356.32 329.88C356.466 324.587 356.52 319.307 356.427 314.013C357.747 313.987 360.413 313.933 361.747 313.907C361.813 315.96 361.88 318.027 361.96 320.093C360.613 320.733 359.267 321.373 357.92 322.027C358.933 322.24 360.96 322.667 361.96 322.893C361.84 325.587 361.72 328.293 361.587 331C359.827 330.613 358.066 330.24 356.32 329.88Z"
            fill="#0A9183" stroke="#0A9183" stroke-width="0.333333" />
        <path
            d="M366.96 314C368.307 314 370.987 314.013 372.32 314.013C372.347 316.213 372.387 318.427 372.427 320.653C371.067 320.64 368.333 320.627 366.973 320.613C366.96 318.413 366.96 316.2 366.96 314Z"
            fill="#0A9183" stroke="#0A9183" stroke-width="0.333333" />
        <path
            d="M375.053 315.187C376.8 314.093 378.893 314.027 380.867 313.64C380.76 316.48 380.64 319.32 380.48 322.173C376.08 322.68 374.893 318.733 375.053 315.187Z"
            fill="#0A9183" stroke="#0A9183" stroke-width="0.333333" />
        <path
            d="M305.68 318.987C308.547 318.973 311.413 318.973 314.293 318.987C315.453 320.88 316.613 322.8 317.8 324.693C317.64 329.92 317.627 335.16 317.653 340.4C321.947 340.64 326.213 341.027 330.493 341.533C329.52 342.373 327.573 344.067 326.6 344.92C326.293 344 325.68 342.16 325.373 341.253C323.84 344.093 324.533 350.093 319.733 349.067C311.64 348.04 303.533 349.387 295.44 349.84C294.96 346.96 294.52 344.067 293.88 341.227C296.507 341.12 299.12 340.907 301.733 340.707C301.693 334.707 301.627 328.693 301.373 322.693C302.387 322.747 304.387 322.853 305.4 322.92C305.467 321.933 305.613 319.96 305.68 318.987Z"
            fill="#344C5B" stroke="#344C5B" stroke-width="0.333333" />
        <path
            d="M25.52 322.64C26.6133 322.813 28.8 323.16 29.8933 323.333C29.64 325.84 31.8933 330.84 27.6933 330.973C23.7333 330.373 26.3733 325.227 25.52 322.64Z"
            fill="#0A9183" stroke="#0A9183" stroke-width="0.333333" />
        <path
            d="M31.96 329.987C32.3066 326.707 31.3866 321.933 36.3333 322.427C36.5066 325 36.6666 327.6 36.8 330.187C35.1866 330.12 33.5733 330.053 31.96 329.987Z"
            fill="#0A9183" stroke="#0A9183" stroke-width="0.333333" />
        <path
            d="M42.8267 323.947C43.6267 323.973 45.2134 324.013 46 324.04C45.9867 325.96 45.9867 327.893 45.9867 329.827C45.16 329.813 43.52 329.813 42.6934 329.813C42.7467 327.853 42.7867 325.893 42.8267 323.947Z"
            fill="#14B8A6" stroke="#14B8A6" stroke-width="0.333333" />
        <path
            d="M52.1865 323.013C53.3199 322.973 55.5865 322.88 56.7198 322.84C56.4665 326.107 58.1465 332.533 52.5065 330.627C52.3332 328.08 52.2265 325.547 52.1865 323.013Z"
            fill="#0A9183" stroke="#0A9183" stroke-width="0.333333" />
        <path
            d="M58.8667 322.627C61.5067 322.467 64.4667 322.907 64.0534 326.293C64.76 328.987 62.2 330.427 60.6134 332.04C59.08 329.12 58.9467 325.827 58.8667 322.627Z"
            fill="#0A9183" stroke="#0A9183" stroke-width="0.333333" />
        <path
            d="M366.867 322.707C368.24 322.693 370.987 322.667 372.36 322.653C372.32 325.12 372.293 327.587 372.267 330.067C370.947 330.04 368.293 330 366.973 329.987C366.933 327.547 366.893 325.12 366.867 322.707Z"
            fill="#0A9183" stroke="#0A9183" stroke-width="0.333333" />
        <path
            d="M375.347 322.68C377.4 322.787 379.453 322.88 381.507 323C381.08 325.72 380.667 328.453 380.24 331.173C378.52 330.653 376.8 330.133 375.08 329.613C375.173 327.307 375.253 324.987 375.347 322.68Z"
            fill="#0A9183" stroke="#0A9183" stroke-width="0.333333" />
        <path
            d="M25.7468 332.227C27.1202 332.2 28.5068 332.16 29.8935 332.133C29.8935 334.133 29.8935 336.147 29.9068 338.16C28.4935 338.147 27.0802 338.147 25.6802 338.147C25.7068 336.173 25.7335 334.2 25.7468 332.227Z"
            fill="#14B8A6" stroke="#14B8A6" stroke-width="0.333333" />
        <path
            d="M31.8267 338.467C32.56 335.507 31.0667 329.6 36.0667 331.133C36.6533 333.613 36.7867 336.16 37.04 338.707C35.2933 338.627 33.56 338.547 31.8267 338.467Z"
            fill="#0A9183" stroke="#0A9183" stroke-width="0.333333" />
        <path
            d="M41.9331 332.413C43.4531 332.173 44.9598 331.947 46.4798 331.72C46.5864 334.067 46.6664 336.413 46.7598 338.76C45.5731 338.773 43.1998 338.8 42.0131 338.813C41.9864 336.68 41.9598 334.547 41.9331 332.413Z"
            fill="#0A9183" stroke="#0A9183" stroke-width="0.333333" />
        <path
            d="M356.307 332.12C358.147 332.133 359.987 332.147 361.84 332.173C361.773 334.387 361.72 336.6 361.667 338.827C359.813 338.627 357.986 338.44 356.146 338.253C356.2 336.2 356.253 334.16 356.307 332.12Z"
            fill="#0A9183" stroke="#0A9183" stroke-width="0.333333" />
        <path
            d="M375.267 332.507C377.107 332.373 378.947 332.227 380.8 332.093C380.627 334.2 382.28 337.16 379.867 338.44C378.267 338.453 376.667 338.427 375.08 338.347C375.133 336.4 375.2 334.453 375.267 332.507Z"
            fill="#0A9183" stroke="#0A9183" stroke-width="0.333333" />
        <path
            d="M52.1602 331.92C53.4002 332.013 55.8802 332.2 57.1202 332.307C56.9868 334.4 56.8535 336.507 56.7202 338.627C55.6135 338.667 53.3735 338.773 52.2668 338.827C52.2268 336.52 52.1868 334.227 52.1602 331.92Z"
            fill="#0A9183" stroke="#0A9183" stroke-width="0.333333" />
        <path
            d="M59.1333 331.96C60.36 332.053 62.8266 332.227 64.0533 332.307C64.04 334.48 64.0133 336.64 63.9866 338.827C62.7333 338.813 60.2133 338.787 58.96 338.773C59.0133 336.493 59.0666 334.227 59.1333 331.96Z"
            fill="#0A9183" stroke="#0A9183" stroke-width="0.333333" />
        <path
            d="M366.8 332.227C368.186 332.227 370.96 332.213 372.346 332.213C372.253 334.333 372.16 336.453 372.08 338.587C370.773 338.573 368.173 338.56 366.88 338.56C366.84 336.44 366.813 334.333 366.8 332.227Z"
            fill="#0A9183" stroke="#0A9183" stroke-width="0.333333" />
        <path
            d="M25.6269 341.36C27.0802 340.733 28.6535 340.453 30.3202 340.52C30.2535 343.24 30.1735 345.96 30.0802 348.693C28.5602 348.667 27.0268 348.653 25.5068 348.64C25.4935 346.213 25.4002 343.773 25.6269 341.36Z"
            fill="#0A9183" stroke="#0A9183" stroke-width="0.333333" />
        <path
            d="M32.3735 341.373C33.7335 341.333 35.0802 341.293 36.4402 341.253C36.4002 343.627 36.3602 346 36.3469 348.387C35.0402 348.387 33.7335 348.387 32.4402 348.4C32.4269 346.053 32.4002 343.707 32.3735 341.373Z"
            fill="#14B8A6" stroke="#14B8A6" stroke-width="0.333333" />
        <path
            d="M42.7334 341.16C43.5734 341.187 45.2401 341.24 46.0801 341.267C46.0134 343.653 45.9601 346.053 45.9201 348.44C45.1467 348.44 43.5867 348.427 42.8134 348.427C42.7867 346 42.7601 343.573 42.7334 341.16Z"
            fill="#14B8A6" stroke="#14B8A6" stroke-width="0.333333" />
        <path
            d="M52.0269 348.52C52.1469 345.813 52.2669 343.12 52.4002 340.413C53.5202 340.493 55.7468 340.64 56.8668 340.72C56.7868 343.4 56.7202 346.08 56.6535 348.773C55.1069 348.68 53.5602 348.6 52.0269 348.52Z"
            fill="#0A9183" stroke="#0A9183" stroke-width="0.333333" />
        <path
            d="M59.1867 341.32C60.2 341.307 62.2 341.28 63.2133 341.28C63.2267 343.693 63.2533 346.12 63.2933 348.56C61.92 348.467 60.5467 348.387 59.1733 348.307C59.1733 345.973 59.1867 343.64 59.1867 341.32Z"
            fill="#14B8A6" stroke="#14B8A6" stroke-width="0.333333" />
        <path
            d="M293.093 348.973C293.333 345.627 291.466 343.027 289.493 340.573C290.586 340.733 292.787 341.067 293.88 341.227C294.52 344.067 294.96 346.96 295.44 349.84C303.533 349.387 311.64 348.04 319.733 349.067C324.533 350.093 323.84 344.093 325.373 341.253C325.68 342.16 326.293 344 326.6 344.92C326.893 346.293 327.187 347.68 327.507 349.053L328.893 349.16C319.107 348.64 309.4 350.173 299.64 350.4C297.48 350.187 294.613 350.92 293.093 348.973Z"
            fill="#222E36" stroke="#222E36" stroke-width="0.333333" />
        <path
            d="M25.6265 351C27.1198 350.96 28.6132 350.92 30.1198 350.893C30.1732 353.867 30.2265 356.84 30.2798 359.827C28.6798 359.787 27.0932 359.747 25.4932 359.707C25.5465 356.8 25.5865 353.893 25.6265 351Z"
            fill="#0A9183" stroke="#0A9183" stroke-width="0.333333" />
        <path
            d="M32.1602 351.147C33.6402 351.027 35.1201 350.92 36.6001 350.8C36.6801 353.787 36.7202 356.787 36.7735 359.773C35.6402 359.8 33.3868 359.867 32.2668 359.893C32.2268 356.973 32.1868 354.053 32.1602 351.147Z"
            fill="#0A9183" stroke="#0A9183" stroke-width="0.333333" />
        <path
            d="M42.0265 351C43.6132 351.04 45.1865 351.08 46.7732 351.133C46.7199 354.093 46.6799 357.053 46.6399 360.027C45.4799 360 43.1732 359.947 42.0132 359.92C42.0265 356.933 42.0398 353.96 42.0265 351Z"
            fill="#0A9183" stroke="#0A9183" stroke-width="0.333333" />
        <path
            d="M52.1733 350.933C53.6933 350.92 55.2267 350.907 56.7733 350.893C56.7867 353.893 56.8133 356.88 56.84 359.88C55.72 359.933 53.5067 360.04 52.4 360.093C52.3067 357.04 52.24 353.987 52.1733 350.933Z"
            fill="#0A9183" stroke="#0A9183" stroke-width="0.333333" />
        <path
            d="M58.9868 351.093C60.5335 350.947 62.0668 350.8 63.6135 350.653C63.7868 353.8 63.9068 356.947 64.0135 360.107C62.7735 360.08 60.2935 360.04 59.0535 360.027C59.0401 357.04 59.0135 354.067 58.9868 351.093Z"
            fill="#0A9183" stroke="#0A9183" stroke-width="0.333333" />
        <path
            d="M391 351.987C391.747 351.96 393.24 351.893 393.987 351.867C393.96 354.387 393.933 356.907 393.893 359.44C393.187 359.32 391.76 359.08 391.053 358.96C391.027 356.64 391 354.307 391 351.987Z"
            fill="#0A9183" stroke="#0A9183" stroke-width="0.333333" />
        <path
            d="M164.267 354.573C166.507 354.573 168.76 354.587 171 354.6C170.973 357 170.96 359.427 170.96 361.84C168.76 361.773 166.587 361.72 164.4 361.667C164.36 359.293 164.32 356.933 164.267 354.573Z"
            fill="#14B8A6" stroke="#14B8A6" stroke-width="0.333333" />
        <path
            d="M173.88 354.84C176.16 354.733 178.44 354.64 180.733 354.573C180.707 357 180.68 359.44 180.653 361.88C178.453 361.8 176.253 361.72 174.053 361.653C174 359.373 173.947 357.107 173.88 354.84Z"
            fill="#14B8A6" stroke="#14B8A6" stroke-width="0.333333" />
        <path
            d="M189.693 354.587C191.907 354.6 194.107 354.64 196.32 354.667C196.293 357.027 196.267 359.4 196.267 361.773C194.08 361.733 191.893 361.693 189.707 361.667C189.707 359.307 189.707 356.933 189.693 354.587Z"
            fill="#14B8A6" stroke="#14B8A6" stroke-width="0.333333" />
        <path
            d="M199.067 354.613C201.32 354.573 203.56 354.533 205.814 354.507C205.814 356.933 205.814 359.347 205.814 361.773C203.6 361.773 201.374 361.76 199.16 361.773C199.134 359.373 199.107 356.987 199.067 354.613Z"
            fill="#14B8A6" stroke="#14B8A6" stroke-width="0.333333" />
        <path
            d="M82.04 360.427C83.1067 360.253 84.1733 360.173 85.2533 360.227C85.24 364.36 84.9867 368.493 85 372.64C84.2133 372.48 82.6133 372.16 81.8267 372.013C82.44 368.173 82.1733 364.28 82.04 360.427Z"
            fill="#0A9183" stroke="#0A9183" stroke-width="0.333333" />
        <path
            d="M87.0269 360.48C87.8935 360.32 89.6135 360.013 90.4802 359.853C90.6002 361.947 90.7069 364.04 90.8002 366.133C87.3602 366.08 87.2669 363.12 87.0269 360.48Z"
            fill="#0A9183" stroke="#0A9183" stroke-width="0.333333" />
        <path
            d="M93.2002 360.04C94.0002 360.053 95.5869 360.093 96.3869 360.107C96.6269 363.107 96.4402 366.04 92.5869 365.933C92.7736 363.96 92.9869 362 93.2002 360.04Z"
            fill="#0A9183" stroke="#0A9183" stroke-width="0.333333" />
        <path
            d="M98.8135 359.96C99.5468 360.013 101.013 360.12 101.747 360.173C101.92 361.893 102.107 363.627 102.293 365.36C101.333 365.373 99.4268 365.427 98.4668 365.44C98.5868 363.613 98.6935 361.787 98.8135 359.96Z"
            fill="#0A9183" stroke="#0A9183" stroke-width="0.333333" />
        <path
            d="M292.4 360.013C294.12 359.973 295.827 359.947 297.56 359.92C297.533 362.88 297.52 365.827 297.533 368.787C295.853 369.04 294.173 369.293 292.507 369.547C292.453 366.36 292.44 363.187 292.4 360.013Z"
            fill="#14B8A6" stroke="#14B8A6" stroke-width="0.333333" />
        <path
            d="M300.68 359.987C302.44 359.973 304.2 359.947 305.973 359.933C305.907 363.187 305.827 366.44 305.72 369.693C303.987 369.253 302.253 368.813 300.533 368.387C300.587 365.573 300.64 362.787 300.68 359.987Z"
            fill="#14B8A6" stroke="#14B8A6" stroke-width="0.333333" />
        <path
            d="M309.16 359.987C310.8 359.96 312.454 359.933 314.094 359.92C314.094 362.867 314.107 365.813 314.094 368.773C312.454 368.747 310.814 368.72 309.187 368.693C309.16 365.787 309.16 362.88 309.16 359.987Z"
            fill="#14B8A6" stroke="#14B8A6" stroke-width="0.333333" />
        <path
            d="M317.28 359.933C319.093 359.96 320.893 360.013 322.707 360.053C322.573 363.293 322.347 366.547 322.053 369.787C320.827 369.453 318.373 368.8 317.146 368.467C317.173 365.613 317.226 362.773 317.28 359.933Z"
            fill="#14B8A6" stroke="#14B8A6" stroke-width="0.333333" />
        <path
            d="M25.6267 361.907C26.7734 361.973 29.0534 362.12 30.1867 362.187C30.2401 365.133 30.2801 368.08 30.3334 371.027C29.1467 371.093 26.7601 371.213 25.5601 371.267C25.5734 368.147 25.6001 365.027 25.6267 361.907Z"
            fill="#0A9183" stroke="#0A9183" stroke-width="0.333333" />
        <path
            d="M32.1333 362.467C33.1866 362.227 35.3066 361.747 36.36 361.507C36.56 364.453 36.72 367.387 36.9066 370.347C36 371.12 35.1066 371.893 34.2 372.667C34.7466 373.133 35.8133 374.053 36.36 374.507C36.9466 380.16 36.1466 385.893 36.8266 391.573C35.28 391.533 33.72 391.493 32.1733 391.453C33.2666 385.133 30.72 378.227 33.9333 372.373C33.5066 371.84 32.64 370.76 32.2133 370.227C32.1866 367.627 32.16 365.053 32.1333 362.467Z"
            fill="#0A9183" stroke="#0A9183" stroke-width="0.333333" />
        <path
            d="M41.8936 362.133C43.1069 362.093 45.5469 362 46.7736 361.96C46.6802 365.333 46.5736 368.707 46.4136 372.093C45.0136 371.573 43.6269 371 42.2802 370.373C41.9469 367.627 41.9736 364.88 41.8936 362.133Z"
            fill="#0A9183" stroke="#0A9183" stroke-width="0.333333" />
        <path
            d="M52.1333 362.267C53.7066 362.133 55.2666 362.027 56.84 361.92C56.8133 365.04 56.7866 368.173 56.7466 371.307C55.24 371.24 53.7466 371.187 52.2399 371.133C52.1999 368.173 52.1733 365.213 52.1333 362.267Z"
            fill="#0A9183" stroke="#0A9183" stroke-width="0.333333" />
        <path
            d="M59.2533 362.48C60.2933 362.12 62.3466 361.413 63.3866 361.067C63.6933 364.4 63.9333 367.733 64.1333 371.08C62.84 371.133 60.2533 371.24 58.96 371.293C58.9866 368.347 58.88 365.4 59.2533 362.48Z"
            fill="#0A9183" stroke="#0A9183" stroke-width="0.333333" />
        <path
            d="M173.987 364.667C176.2 364.653 178.413 364.64 180.627 364.613C180.64 367.16 180.627 369.72 180.6 372.28C178.4 372.187 176.213 372.093 174.027 372.027C174.013 369.573 174 367.12 173.987 364.667Z"
            fill="#14B8A6" stroke="#14B8A6" stroke-width="0.333333" />
        <path
            d="M164.36 372.013C164.333 369.56 164.32 367.107 164.32 364.653C166.52 364.667 168.72 364.653 170.933 364.653C170.946 367.147 170.946 369.627 170.96 372.133C168.76 372.08 166.56 372.04 164.36 372.013Z"
            fill="#14B8A6" stroke="#14B8A6" stroke-width="0.333333" />
        <path
            d="M189.707 371.987C189.707 369.507 189.72 367.027 189.76 364.56C191.947 364.667 194.133 364.787 196.333 364.92C196.293 367.307 196.28 369.707 196.253 372.107C194.067 372.053 191.88 372.013 189.707 371.987Z"
            fill="#14B8A6" stroke="#14B8A6" stroke-width="0.333333" />
        <path
            d="M199.093 364.76C201.333 364.707 203.587 364.667 205.84 364.627C205.84 367.107 205.84 369.587 205.827 372.067C203.64 372.053 201.467 372.053 199.293 372.053C199.227 369.613 199.16 367.187 199.093 364.76Z"
            fill="#14B8A6" stroke="#14B8A6" stroke-width="0.333333" />
        <path d="M87.04 372.493C87.32 369.733 86.76 365.76 90.88 367.2C91.4134 369.973 90.3734 373.187 87.04 372.493Z"
            fill="#0A9183" stroke="#0A9183" stroke-width="0.333333" />
        <path
            d="M93.4668 367.827C95.4402 366.187 97.5335 369.68 95.5868 371C93.6135 372.6 91.5335 369.133 93.4668 367.827Z"
            fill="#0A9183" stroke="#0A9183" stroke-width="0.333333" />
        <path
            d="M97.5732 368.52C98.5866 368.027 100.613 367.053 101.627 366.56C101.733 368.493 101.827 370.44 101.92 372.373C101.28 372.36 99.9866 372.32 99.3333 372.307C98.8933 371.36 98.0132 369.467 97.5732 368.52Z"
            fill="#0A9183" stroke="#0A9183" stroke-width="0.333333" />
        <path
            d="M292.44 380.053C292.44 377.107 292.453 374.16 292.467 371.213C293.733 371.213 296.267 371.213 297.533 371.2C297.533 374.12 297.533 377.027 297.547 379.947C296.267 379.973 293.707 380.027 292.44 380.053Z"
            fill="#14B8A6" stroke="#14B8A6" stroke-width="0.333333" />
        <path
            d="M300.587 371.16C301.92 371.173 304.587 371.187 305.92 371.2C305.894 374.133 305.88 377.08 305.854 380.027C304.534 380.013 301.907 380.013 300.587 380C300.587 377.053 300.587 374.107 300.587 371.16Z"
            fill="#14B8A6" stroke="#14B8A6" stroke-width="0.333333" />
        <path
            d="M309.16 371.253C310.84 371.227 312.52 371.213 314.2 371.2C314.134 374.28 314.054 377.373 313.894 380.467C312.76 380.227 310.507 379.76 309.374 379.52C308.707 376.8 309.04 374 309.16 371.253Z"
            fill="#14B8A6" stroke="#14B8A6" stroke-width="0.333333" />
        <path
            d="M317.174 371.28C319.014 371.253 320.853 371.227 322.707 371.2C322.547 374.2 322.347 377.2 322.107 380.2C320.88 380.107 318.427 379.933 317.2 379.84C317.16 376.987 317.16 374.133 317.174 371.28Z"
            fill="#14B8A6" stroke="#14B8A6" stroke-width="0.333333" />
        <path
            d="M52.2266 373.667C53.7333 373.587 55.24 373.507 56.76 373.427C56.4533 376.787 58.5466 384.36 52.7866 382.813C52.1066 379.813 52.24 376.72 52.2266 373.667Z"
            fill="#0A9183" stroke="#0A9183" stroke-width="0.333333" />
        <path
            d="M25.48 391.467C25.8666 385.48 25.72 379.493 25.6133 373.507C26.76 373.573 29.0533 373.733 30.2 373.8C30.28 376.253 30.3466 378.693 30.4133 381.16C29.4666 381.933 28.5066 382.733 27.56 383.52C28.2533 383.84 29.64 384.467 30.3333 384.787C30.2933 387.04 30.2533 389.307 30.2 391.587C28.6266 391.533 27.0533 391.507 25.48 391.467Z"
            fill="#0A9183" stroke="#0A9183" stroke-width="0.333333" />
        <path
            d="M42.7332 374.653C43.5465 374.64 45.1732 374.627 45.9865 374.613C45.9732 377.013 45.9865 379.427 45.9999 381.827C45.1732 381.827 43.5332 381.813 42.7065 381.813C42.7199 379.413 42.7332 377.027 42.7332 374.653Z"
            fill="#14B8A6" stroke="#14B8A6" stroke-width="0.333333" />
        <path
            d="M59.0669 373.213C66.2002 371.12 65.8802 385.107 59.1602 383.147C59.1069 379.827 59.0802 376.52 59.0669 373.213Z"
            fill="#0A9183" stroke="#0A9183" stroke-width="0.333333" />
        <path
            d="M164.267 374.96C166.493 374.907 168.72 374.853 170.96 374.813C170.987 377.027 171 379.24 171.04 381.453C168.787 381.453 166.547 381.467 164.307 381.507C164.293 379.32 164.28 377.133 164.267 374.96Z"
            fill="#14B8A6" stroke="#14B8A6" stroke-width="0.333333" />
        <path
            d="M173.987 375.08C176.227 374.973 178.48 374.88 180.747 374.787C180.76 376.987 180.787 379.2 180.813 381.413C178.56 381.453 176.307 381.48 174.053 381.52C174.027 379.373 174.013 377.227 173.987 375.08Z"
            fill="#14B8A6" stroke="#14B8A6" stroke-width="0.333333" />
        <path
            d="M189.613 374.827C191.787 374.84 193.973 374.867 196.173 374.893C196.187 377.107 196.227 379.333 196.267 381.56C194.04 381.52 191.827 381.493 189.613 381.467C189.613 379.253 189.613 377.04 189.613 374.827Z"
            fill="#14B8A6" stroke="#14B8A6" stroke-width="0.333333" />
        <path
            d="M199.16 374.853C201.413 374.88 203.666 374.893 205.92 374.92C205.933 377.107 205.96 379.307 206 381.507C203.706 381.48 201.426 381.467 199.146 381.453C199.146 379.253 199.16 377.053 199.16 374.853Z"
            fill="#14B8A6" stroke="#14B8A6" stroke-width="0.333333" />
        <path
            d="M82.6668 383.053C84.7201 381.48 86.4801 385.16 84.6668 386.427C82.6134 388.013 80.8401 384.307 82.6668 383.053Z"
            fill="#0A9183" stroke="#0A9183" stroke-width="0.333333" />
        <path
            d="M88.0933 383.053C90.1067 381.48 91.9466 385.093 90.2 386.413C88.1733 387.987 86.32 384.347 88.0933 383.053Z"
            fill="#0A9183" stroke="#0A9183" stroke-width="0.333333" />
        <path
            d="M92.5869 386.387C93.0936 384.48 93.6669 382.6 94.3203 380.733C95.9869 382.653 96.4269 385.093 96.5736 387.533C95.5736 387.253 93.5869 386.68 92.5869 386.387Z"
            fill="#0A9183" stroke="#0A9183" stroke-width="0.333333" />
        <path
            d="M98.3467 382.76C99.24 382.733 101.04 382.707 101.933 382.68C102.013 383.8 102.173 386.053 102.253 387.173C98.88 388.08 98.6 385.293 98.3467 382.76Z"
            fill="#0A9183" stroke="#0A9183" stroke-width="0.333333" />
        <path
            d="M42.7732 384.267C43.5865 384.28 45.1865 384.293 45.9998 384.293C45.9865 386.627 45.9732 388.947 45.9865 391.293C45.1598 391.293 43.4932 391.293 42.6665 391.293C42.7065 388.947 42.7465 386.6 42.7732 384.267Z"
            fill="#14B8A6" stroke="#14B8A6" stroke-width="0.333333" />
        <path
            d="M52.3599 384.373C53.7332 384.333 55.0932 384.293 56.4665 384.253C56.4265 386.613 56.4132 388.96 56.3999 391.32C55.0932 391.24 53.7732 391.173 52.4665 391.107C52.4399 388.853 52.3999 386.613 52.3599 384.373Z"
            fill="#14B8A6" stroke="#14B8A6" stroke-width="0.333333" />
        <path
            d="M59.0533 384C60.3067 384.08 62.84 384.24 64.0933 384.32C64 386.867 63.9067 389.413 63.8133 391.96C62.6133 391.947 60.2133 391.92 59 391.907C59.0133 389.267 59.0267 386.627 59.0533 384Z"
            fill="#0A9183" stroke="#0A9183" stroke-width="0.333333" />
        <path
            d="M82.7064 389.347C84.8264 388.547 85.5864 389.267 84.9864 391.493C82.8531 392.28 82.0931 391.573 82.7064 389.347Z"
            fill="#0A9183" stroke="#0A9183" stroke-width="0.333333" />
        <path
            d="M88.0932 389.36C90.2532 388.693 90.9599 389.453 90.2132 391.653C88.0399 392.307 87.3332 391.547 88.0932 389.36Z"
            fill="#0A9183" stroke="#0A9183" stroke-width="0.333333" />
        <path
            d="M93.6268 389.293C95.7868 388.587 96.5068 389.347 95.7868 391.547C93.6401 392.24 92.9201 391.493 93.6268 389.293Z"
            fill="#0A9183" stroke="#0A9183" stroke-width="0.333333" />
        <path
            d="M98.9335 389.2C100.694 386.973 103.52 390.36 101.707 392.12C99.9335 394.2 97.1335 390.947 98.9335 389.2Z"
            fill="#0A9183" stroke="#0A9183" stroke-width="0.333333" />
        <path
            d="M245.066 393.907C245.386 391.507 244.8 388.28 248.053 387.853C248.12 389.88 248.186 391.92 248.24 393.96C247.44 393.947 245.853 393.92 245.066 393.907Z"
            fill="#14B8A6" stroke="#14B8A6" stroke-width="0.333333" />
        <path
            d="M250.32 394.173C250.56 391.933 250.826 389.693 251.2 387.467C252.72 389.173 253.546 391.187 253.653 393.533C252.826 393.693 251.146 394.013 250.32 394.173Z"
            fill="#14B8A6" stroke="#14B8A6" stroke-width="0.333333" />
        <path
            d="M254.76 393.827C255.106 391.507 255.12 388.933 257.186 387.347C257.56 389.493 257.893 391.68 258.2 393.853C257.333 393.853 255.613 393.84 254.76 393.827Z"
            fill="#14B8A6" stroke="#14B8A6" stroke-width="0.333333" />
        <path
            d="M259.894 394.04C260.507 391.907 259.04 388 262.64 388.027C262.694 389.44 262.8 392.293 262.854 393.707C262.107 393.787 260.627 393.96 259.894 394.04Z"
            fill="#14B8A6" stroke="#14B8A6" stroke-width="0.333333" />
        <path
            d="M264.773 388.813C265.613 388.76 267.293 388.627 268.133 388.573C268.173 390.387 268.213 392.2 268.267 394.027C267.053 393.947 265.84 393.893 264.64 393.827C264.667 392.573 264.747 390.067 264.773 388.813Z"
            fill="#14B8A6" stroke="#14B8A6" stroke-width="0.333333" />
        <path
            d="M292.36 389.68C294.08 389.68 295.813 389.693 297.533 389.693C297.56 392.48 297.587 395.267 297.64 398.067C295.867 398.053 294.107 398.053 292.347 398.067C292.36 395.267 292.36 392.467 292.36 389.68Z"
            fill="#14B8A6" stroke="#14B8A6" stroke-width="0.333333" />
        <path
            d="M300.547 389.68C302.333 389.64 304.133 389.6 305.933 389.573C305.973 392.413 306 395.253 306.04 398.107C304.187 398.04 302.36 398 300.52 397.96C300.547 395.2 300.547 392.44 300.547 389.68Z"
            fill="#14B8A6" stroke="#14B8A6" stroke-width="0.333333" />
        <path
            d="M309.306 389.613C310.893 389.587 312.48 389.56 314.066 389.547C314.266 392.36 314.466 395.187 314.666 398.013C312.786 397.973 310.933 397.933 309.066 397.893C309.146 395.133 309.226 392.373 309.306 389.613Z"
            fill="#14B8A6" stroke="#14B8A6" stroke-width="0.333333" />
        <path
            d="M317.2 389.56C319.014 389.613 320.854 389.667 322.694 389.72C322.667 392.467 322.667 395.2 322.68 397.947C320.854 397.973 319.027 398.013 317.2 398.053C317.2 395.213 317.2 392.387 317.2 389.56Z"
            fill="#14B8A6" stroke="#14B8A6" stroke-width="0.333333" />
        <path
            d="M391.067 389.4L391.24 388.067C395.693 388.2 393.933 393.253 393.493 396.093C393.08 396.253 392.253 396.587 391.84 396.76C390.907 394.413 390.707 391.88 391.067 389.4Z"
            fill="#0A9183" stroke="#0A9183" stroke-width="0.333333" />
        <path
            d="M25.4932 393.747C27.0265 393.707 28.5732 393.68 30.1198 393.653C30.2665 395.733 30.3998 397.813 30.5465 399.907C29.3332 400.04 26.9198 400.307 25.7065 400.427C25.6265 398.2 25.5598 395.973 25.4932 393.747Z"
            fill="#0A9183" stroke="#0A9183" stroke-width="0.333333" />
        <path
            d="M32.2399 393.693C33.7466 393.693 35.2666 393.72 36.7732 393.733C36.7466 395.947 36.7066 398.173 36.6799 400.4C35.1866 400.36 33.7066 400.333 32.2266 400.293C32.2266 398.093 32.2266 395.893 32.2399 393.693Z"
            fill="#0A9183" stroke="#0A9183" stroke-width="0.333333" />
        <path
            d="M42.08 393.84C43.6666 393.853 45.24 393.853 46.8133 393.88C46.8133 396 46.8266 398.12 46.8266 400.253C45.2 400.213 43.5733 400.187 41.96 400.147C42 398.04 42.04 395.933 42.08 393.84Z"
            fill="#0A9183" stroke="#0A9183" stroke-width="0.333333" />
        <path
            d="M52.0933 393.68C53.6533 393.667 55.2266 393.653 56.7866 393.64C56.7466 395.893 56.7199 398.133 56.6799 400.387C55.1866 400.373 53.6933 400.36 52.2133 400.347C52.1599 398.12 52.1333 395.893 52.0933 393.68Z"
            fill="#0A9183" stroke="#0A9183" stroke-width="0.333333" />
        <path
            d="M59.04 393.413C60.6 393.64 62.2267 393.613 63.7067 394.213C63.9067 396.24 64.0534 398.293 64.1467 400.347C62.88 400.387 60.3601 400.44 59.0934 400.467C59.0667 398.12 59.0534 395.76 59.04 393.413Z"
            fill="#0A9183" stroke="#0A9183" stroke-width="0.333333" />
        <path
            d="M246.04 403.84C245.267 401.053 245.267 398.173 246.133 395.413C248.84 397.667 248.947 401.667 246.04 403.84Z"
            fill="#14B8A6" stroke="#14B8A6" stroke-width="0.333333" />
        <path
            d="M250.467 397.173C251.187 397.173 252.613 397.147 253.333 397.133C253.28 398.96 253.24 400.787 253.2 402.627C252.52 402.613 251.147 402.573 250.467 402.56C250.453 400.76 250.453 398.96 250.467 397.173Z"
            fill="#14B8A6" stroke="#14B8A6" stroke-width="0.333333" />
        <path
            d="M255.093 403.453C255.68 400.84 254.027 396.76 257.707 395.72C257.773 398.627 259 402.467 255.093 403.453Z"
            fill="#14B8A6" stroke="#14B8A6" stroke-width="0.333333" />
        <path d="M259.854 403C260.08 400.4 260.4 397.827 260.894 395.28C263.107 397.507 264.334 402.787 259.854 403Z"
            fill="#14B8A6" stroke="#14B8A6" stroke-width="0.333333" />
        <path
            d="M264.813 396.147C268.4 396.227 268.4 399.28 268.547 401.987C267.6 402.053 265.693 402.2 264.747 402.267C264.76 400.213 264.773 398.187 264.813 396.147Z"
            fill="#14B8A6" stroke="#14B8A6" stroke-width="0.333333" />
        <path
            d="M292.293 400.413C294.04 400.4 295.8 400.387 297.547 400.373C297.533 403.107 297.52 405.853 297.52 408.613C295.787 408.573 294.067 408.547 292.347 408.52C292.333 405.813 292.32 403.12 292.293 400.413Z"
            fill="#14B8A6" stroke="#14B8A6" stroke-width="0.333333" />
        <path
            d="M300.52 400.32C302.32 400.333 304.12 400.347 305.933 400.373C305.933 403.12 305.933 405.867 305.947 408.613C304.133 408.587 302.333 408.573 300.547 408.56C300.547 405.813 300.547 403.067 300.52 400.32Z"
            fill="#14B8A6" stroke="#14B8A6" stroke-width="0.333333" />
        <path
            d="M309.16 400.413C310.827 400.36 312.507 400.293 314.187 400.24C314.16 403.013 314.147 405.787 314.147 408.573C312.507 408.573 310.88 408.573 309.253 408.587C309.227 405.853 309.187 403.133 309.16 400.413Z"
            fill="#14B8A6" stroke="#14B8A6" stroke-width="0.333333" />
        <path
            d="M317.146 400.333C318.96 400.36 320.8 400.4 322.64 400.453C322.653 403.08 322.68 405.72 322.72 408.373C320.88 408.467 319.04 408.573 317.2 408.68C317.173 405.893 317.16 403.107 317.146 400.333Z"
            fill="#14B8A6" stroke="#14B8A6" stroke-width="0.333333" />
        <path
            d="M25.1201 406.573C25.3868 405.013 25.6535 403.453 25.9335 401.893C27.0135 401.973 29.1868 402.107 30.2801 402.187C30.1335 405.093 29.9735 408.013 29.7868 410.933C28.2401 409.453 26.6801 408.027 25.1201 406.573Z"
            fill="#0A9183" stroke="#0A9183" stroke-width="0.333333" />
        <path
            d="M32.3198 402.667C33.7065 402.627 35.1065 402.587 36.4932 402.547C36.4132 405.467 36.3598 408.4 36.2532 411.32C30.8532 411.693 32.8132 406.027 32.3198 402.667Z"
            fill="#14B8A6" stroke="#14B8A6" stroke-width="0.333333" />
        <path
            d="M42.8401 402.72C43.6268 402.68 45.1868 402.6 45.9735 402.56C45.9735 405.053 45.9735 407.56 45.9868 410.067C45.1468 410.067 43.4801 410.093 42.6401 410.093C42.7201 407.627 42.7868 405.173 42.8401 402.72Z"
            fill="#14B8A6" stroke="#14B8A6" stroke-width="0.333333" />
        <path
            d="M52.4668 402.773C53.8135 402.667 55.1602 402.547 56.5068 402.44C56.4802 404.973 56.4668 407.52 56.4668 410.067C55.0802 410.027 53.7068 410.013 52.3335 409.987C52.3868 407.587 52.4402 405.173 52.4668 402.773Z"
            fill="#14B8A6" stroke="#14B8A6" stroke-width="0.333333" />
        <path
            d="M59.1466 401.893C60.3466 401.907 62.72 401.947 63.92 401.96C63.9333 404.933 63.9333 407.907 63.9466 410.893C62.7466 410.88 60.3333 410.867 59.1333 410.853C59.1333 407.867 59.1333 404.88 59.1466 401.893Z"
            fill="#0A9183" stroke="#0A9183" stroke-width="0.333333" />
        <path
            d="M245.187 405.227C246 405.28 247.64 405.387 248.467 405.44C248 407.373 248.76 410.107 246.48 411.08C244.466 409.853 245.613 407.133 245.187 405.227Z"
            fill="#14B8A6" stroke="#14B8A6" stroke-width="0.333333" />
        <path
            d="M250.947 404.267C253.56 405.747 253.053 408.787 253.28 411.333C249.533 410.533 250.4 407.027 250.947 404.267Z"
            fill="#14B8A6" stroke="#14B8A6" stroke-width="0.333333" />
        <path
            d="M254.84 405.453C255.627 405.413 257.213 405.333 258 405.307C257.787 407.48 257.547 409.667 257.227 411.853C255.147 410.293 255.08 407.773 254.84 405.453Z"
            fill="#14B8A6" stroke="#14B8A6" stroke-width="0.333333" />
        <path
            d="M259.747 405.373C260.6 405.453 262.32 405.627 263.187 405.707C262.827 407.933 262.4 410.187 260.947 412.013C260.467 409.813 260.093 407.587 259.747 405.373Z"
            fill="#14B8A6" stroke="#14B8A6" stroke-width="0.333333" />
        <path
            d="M264.867 405.347C265.667 405.36 267.293 405.4 268.107 405.413C268.133 406.973 268.173 408.547 268.227 410.12C267.36 410.147 265.613 410.187 264.733 410.213C264.773 408.587 264.813 406.96 264.867 405.347Z"
            fill="#14B8A6" stroke="#14B8A6" stroke-width="0.333333" />
        <path
            d="M7.54655 408.813C12.3999 404.573 19.2932 406.2 25.1199 406.573C26.6799 408.027 28.2399 409.453 29.7865 410.933C30.6799 411.827 31.5599 412.747 32.3866 413.707C33.6932 415.44 34.9199 417.227 36.1465 419.04C37.7332 421.413 39.3332 423.787 40.9599 426.147C42.7199 428.813 44.5599 431.427 46.4399 434.027C50.9865 440.96 57.1332 446.587 62.3465 452.987C63.9732 454.827 65.5999 456.813 67.8532 457.92C70.5599 458.093 72.1865 455.453 73.7865 453.707C78.3065 448.2 79.6932 440.613 84.9732 435.693C88.4399 432.333 93.5065 433.6 97.7199 434.293C98.5332 434.693 99.3332 435.12 100.12 435.573C101.28 436.987 102.427 438.413 103.627 439.813C104.28 440.587 105.027 441.28 105.853 441.88L107.307 442.84C106.667 444.48 106.787 446.107 107.68 447.72C110.413 453.48 110.2 459.973 111.44 466.093C112.947 470.36 116.933 473.44 117.72 478.027C118.267 482.813 116.133 487.44 116.44 492.227C119.187 497.08 124.88 493.56 129.013 493.333C131.853 492.667 133.533 495.787 133.68 498.187C134.4 504.427 130.413 509.96 126.147 514.08C120.68 519.4 113.387 522 106.813 525.6C101.92 528.227 99.4799 533.467 96.4266 537.813C88.5732 549.267 80.9599 561.253 70.2532 570.307C60.5466 577.387 49.0266 581.427 37.5865 584.733C24.6532 588.88 11.4799 592.627 -2.05346 594.093C-14.4135 595.573 -27.4268 594.08 -38.3201 587.733C-46.5735 583.56 -54.3335 576.987 -57.0535 567.84C-59.0801 561.72 -58.5468 554.573 -54.5335 549.373C-50.6268 544.04 -44.0401 542.08 -38.1068 539.92C-34.9068 538.707 -31.8801 536.173 -31.8668 532.467C-31.9335 526.92 -35.1868 522.08 -37.9335 517.48C-42.2135 509.867 -46.9335 501.933 -47.4801 493.013C-47.8935 486.133 -43.5601 480.053 -38.0001 476.44C-24.5601 466.893 -17.2935 451.52 -8.97346 437.787C-3.05346 428.373 -1.26679 416.253 7.54655 408.813Z"
            fill="#222E36" stroke="#222E36" stroke-width="0.333333" />
        <path
            d="M32.3867 413.707C33.4001 413.333 35.4267 412.587 36.4401 412.213C36.3467 414.48 36.2534 416.76 36.1467 419.04C34.9201 417.227 33.6934 415.44 32.3867 413.707Z"
            fill="#0A9183" stroke="#0A9183" stroke-width="0.333333" />
        <path
            d="M42.0532 412.64C43.6398 412.853 45.2132 413.053 46.7998 413.267C46.7998 416.133 46.8132 419 46.8265 421.867C45.3865 421.44 43.1865 422.333 42.2798 420.907C41.9065 418.173 42.0665 415.4 42.0532 412.64Z"
            fill="#0A9183" stroke="#0A9183" stroke-width="0.333333" />
        <path
            d="M52.1602 413.08C53.7468 412.907 55.3202 412.747 56.9202 412.587C56.8535 415.653 56.7868 418.733 56.7068 421.813C55.2268 421.76 53.7602 421.72 52.2802 421.68C52.2268 418.813 52.1868 415.947 52.1602 413.08Z"
            fill="#0A9183" stroke="#0A9183" stroke-width="0.333333" />
        <path
            d="M59.24 412.613C60.4133 412.613 62.7733 412.613 63.9467 412.627C63.9067 415.773 63.88 418.92 63.8267 422.08C62.2267 421.853 60.6133 421.627 59 421.4C59.08 418.467 59.16 415.533 59.24 412.613Z"
            fill="#0A9183" stroke="#0A9183" stroke-width="0.333333" />
        <path
            d="M94.6533 421.573C96.48 421.573 98.3067 421.587 100.133 421.613C99.96 426.253 99.5333 430.933 100.12 435.573C99.3333 435.12 98.5333 434.693 97.72 434.293C97.8 433.733 97.96 432.587 98.0533 432.027C97.2133 431.627 95.56 430.853 94.72 430.453C94.6933 427.493 94.68 424.52 94.6533 421.573Z"
            fill="#14B8A6" stroke="#14B8A6" stroke-width="0.333333" />
        <path
            d="M113.28 421.613C114.867 421.56 116.44 421.533 118.027 421.493C118.293 424.693 118.507 427.893 118.613 431.12C116.827 431.133 115.04 431.16 113.253 431.187C113.253 427.987 113.253 424.8 113.28 421.613Z"
            fill="#14B8A6" stroke="#14B8A6" stroke-width="0.333333" />
        <path
            d="M131.106 421.613C132.893 421.6 134.68 421.587 136.48 421.573C136.426 424.773 136.386 427.96 136.333 431.16C134.613 431.12 132.88 431.107 131.16 431.093C131.16 427.92 131.133 424.773 131.106 421.613Z"
            fill="#14B8A6" stroke="#14B8A6" stroke-width="0.333333" />
        <path
            d="M103.28 430.947C103.573 427.773 103.866 424.6 104.133 421.427C105.426 421.507 108 421.653 109.28 421.72C109.226 424.84 109.213 427.973 109.226 431.107C107.24 431.053 105.253 431 103.28 430.947Z"
            fill="#14B8A6" stroke="#14B8A6" stroke-width="0.333333" />
        <path
            d="M122.56 421.587C124.333 421.6 126.12 421.613 127.907 421.64C127.893 424.773 127.893 427.92 127.933 431.08C126.12 431.053 124.307 431.04 122.507 431.04C122.534 427.88 122.547 424.733 122.56 421.587Z"
            fill="#14B8A6" stroke="#14B8A6" stroke-width="0.333333" />
        <path
            d="M40.96 426.147C42.68 424.747 44.7866 424.053 46.8933 423.467C46.8133 426.987 46.6666 430.507 46.44 434.027C44.56 431.427 42.72 428.813 40.96 426.147Z"
            fill="#0A9183" stroke="#0A9183" stroke-width="0.333333" />
        <path
            d="M52.1201 423.64C53.1601 423.573 55.2401 423.467 56.2801 423.4C56.9335 426.813 56.7201 430.307 56.6535 433.76C55.2801 433.613 53.9068 433.467 52.5334 433.32C52.3601 430.093 52.2268 426.867 52.1201 423.64Z"
            fill="#0A9183" stroke="#0A9183" stroke-width="0.333333" />
        <path
            d="M59.0269 424.12C60.0535 423.773 62.0935 423.053 63.1202 422.693C63.8935 426.387 64.0135 430.16 63.3735 433.893C62.0002 433.707 60.6269 433.52 59.2535 433.347C59.1602 430.267 59.0935 427.2 59.0269 424.12Z"
            fill="#0A9183" stroke="#0A9183" stroke-width="0.333333" />
        <path
            d="M359.4 440.92C360.133 435.053 364.867 430.12 370.347 428.28C376.067 427.933 381.307 431.733 384.667 436.093C390.733 444.827 391.12 455.867 391.173 466.133C397.507 465.96 403.867 462.466 410.053 465.293C408.8 459.293 407.253 452.827 409.587 446.88C412.16 440.48 417.76 434.787 424.88 433.973C429.92 433.267 435.707 433.28 439.84 436.706C445.493 441.12 448.387 447.986 450 454.786C452.027 463.626 456.507 471.573 460.027 479.853C464.427 469.92 465.733 459.08 468.6 448.693C469.827 443.48 473.987 439.733 478.36 437.013C488.92 433.867 501.907 441.346 501.72 453.04C501.68 471.373 489.707 486.946 487.84 504.986C486.147 514.586 490.88 523.6 491.547 533.013C492.187 542.373 484.813 549.426 478.333 555.066C472.827 559.626 466.413 562.946 459.613 565.066C448.827 568.493 437.947 573.8 426.333 571.946C414.453 569.933 404.307 562.44 395.853 554.24C389.76 548.426 386.84 540.266 385.4 532.146C375.867 531.92 365.827 533.227 356.853 529.253C350.16 526.68 344.72 521.893 339.613 517.026C335.453 523.026 330.92 529.293 323.973 532.267C309.12 538.84 291.587 541.093 276.093 535.387C260.52 528.893 252.867 509.493 257.453 493.693C258.627 489.733 261.973 486.333 266.093 485.573C270.72 485.84 274.627 489.013 279.12 490.026C280.013 483.24 275.147 477.866 272.373 472.16C268.733 465.266 268.187 455.826 273.76 449.786C280.667 441.426 294.187 440.827 302.453 447.507C311.32 453.733 311.773 466.066 319.627 473.16C323.187 476.253 328.2 476.64 332.04 479.267C334.28 481.2 335.907 483.706 337.64 486.08C337.56 480.44 337.6 474.627 339.747 469.307C341.587 464.347 345.027 459.266 350.453 457.946C355.627 457.053 359.44 461.333 362.72 464.626C360.48 456.973 358.107 448.973 359.4 440.92Z"
            fill="#222E36" stroke="#222E36" stroke-width="0.333333" />
        <path
            d="M103.24 433.413C105.12 433.413 107 433.44 108.88 433.466C109.08 436.16 109.267 438.853 109.454 441.56C108.56 441.64 106.76 441.8 105.854 441.88C105.027 441.28 104.28 440.586 103.627 439.813C103.44 437.666 103.347 435.533 103.24 433.413Z"
            fill="#14B8A6" stroke="#14B8A6" stroke-width="0.333333" />
        <path
            d="M113.147 433.72C114.707 433.44 116.293 433.2 117.88 433.013C118.16 435.92 118.453 438.827 118.733 441.76C116.68 441.707 114.64 441.667 112.6 441.64C112.72 438.987 112.72 436.333 113.147 433.72Z"
            fill="#14B8A6" stroke="#14B8A6" stroke-width="0.333333" />
        <path
            d="M122.507 433.347C124.307 433.44 126.12 433.533 127.933 433.64C127.933 436.267 127.947 438.907 127.973 441.56C126.187 441.653 124.387 441.733 122.6 441.84C122.56 439 122.534 436.173 122.507 433.347Z"
            fill="#14B8A6" stroke="#14B8A6" stroke-width="0.333333" />
        <path
            d="M131.067 433.347C132.867 433.347 134.667 433.347 136.48 433.347C136.414 436.16 136.374 438.973 136.32 441.787C134.574 441.747 132.814 441.707 131.067 441.693C131.067 438.907 131.067 436.12 131.067 433.347Z"
            fill="#14B8A6" stroke="#14B8A6" stroke-width="0.333333" />
        <path
            d="M107.307 442.84C107.933 443.373 109.173 444.453 109.8 445C109.267 445.68 108.213 447.04 107.68 447.72C106.787 446.107 106.667 444.48 107.307 442.84Z"
            fill="white" stroke="white" stroke-width="0.333333" />
        <path
            d="M112.64 444.333C114.44 444.107 116.253 443.88 118.053 443.68C118.24 446.614 118.253 449.574 118.107 452.52C116.747 452.454 114.027 452.32 112.68 452.253C112.68 449.613 112.667 446.973 112.64 444.333Z"
            fill="#14B8A6" stroke="#14B8A6" stroke-width="0.333333" />
        <path
            d="M122.04 443.84C123.867 443.893 125.693 444.013 127.507 444.187C127.947 446.84 127.92 449.533 128.013 452.213C126.653 452.293 123.96 452.44 122.613 452.52C122.373 449.627 122.173 446.733 122.04 443.84Z"
            fill="#14B8A6" stroke="#14B8A6" stroke-width="0.333333" />
        <path
            d="M131.12 443.894C132.88 443.934 134.64 443.974 136.413 444.027C136.347 446.8 136.307 449.587 136.28 452.374C134.547 452.36 132.813 452.36 131.08 452.36C131.093 449.534 131.12 446.707 131.12 443.894Z"
            fill="#14B8A6" stroke="#14B8A6" stroke-width="0.333333" />
        <path
            d="M186.227 463.253C188.28 463.24 190.347 463.227 192.4 463.24C191.347 464.427 190.32 465.653 189.2 466.787C188.173 465.627 187.2 464.44 186.227 463.253Z"
            fill="#0A9183" stroke="#0A9183" stroke-width="0.333333" />
        <path
            d="M311.907 576.773C313.613 576.267 315.347 575.76 317.067 575.253C317.413 576.72 317.76 578.187 318.107 579.68C316.04 578.693 313.973 577.733 311.907 576.773Z"
            fill="#0A9183" stroke="#0A9183" stroke-width="0.333333" />
    </g>
    <path
        d="M197.5 1375C425.317 1375 610 1190.32 610 962.5C610 734.683 425.317 550 197.5 550C125.747 550 58.2728 568.32 -0.5 600.539C-128.332 670.614 -215 806.436 -215 962.5C-215 1190.32 -30.3175 1375 197.5 1375Z"
         />
    <defs>
        <clipPath id="clip0_240_2555">
            <rect width="682.667" height="682.667" transform="translate(-119 -35)" />
        </clipPath>
    </defs>
</svg>