<svg width="393" height="852" viewBox="0 0 393 852" fill="none" xmlns="http://www.w3.org/2000/svg">
    <g clip-path="url(#clip0_254_1196)">
        <rect width="550.693" height="620" transform="translate(-79 -17)" fill="#222E36" />
        <path
            d="M33.6423 67.9479C35.8789 66.4284 37.7778 64.4636 39.2203 62.1764C39.9187 61.0195 40.2509 59.6783 40.1734 58.3291C40.0959 56.9799 39.6122 55.6857 38.7859 54.6163C37.1032 53.1565 34.9378 52.3743 32.7106 52.4219C26.6626 51.9704 20.5844 52.6873 14.8074 54.5333L32.6025 70.299L33.6423 67.9479Z"
            fill="#0A9183" />
        <path
            d="M3.9774 81.6169C6.37478 84.2635 5.61053 88.3688 4.92692 91.8747C4.24331 95.3805 4.16137 99.7611 7.18184 101.674C9.79285 103.336 13.4637 101.979 15.3709 99.5451C17.079 96.9506 18.1202 93.9747 18.4021 90.8813C19.3415 86.3827 19.7659 81.7918 19.6672 77.1972C19.5533 72.5689 17.9202 68.1066 15.0196 64.4982C12.9609 62.1508 10.219 60.5066 7.17851 59.7963C4.13804 59.0861 0.951549 59.3454 -1.93411 60.5378L0.821643 60.4013C-1.18188 62.9737 -2.70112 65.8888 -3.66212 69.0046C-4.12204 70.57 -4.15449 72.23 -3.75607 73.8121C-3.35766 75.3943 -2.54292 76.841 -1.39648 78.0019C0.24371 79.4154 2.52117 80.01 3.9774 81.6169Z"
            fill="#0A9183" />
        <path
            d="M139.202 37.233L139.691 35.7234C137.641 36.9083 136.06 38.7618 135.214 40.9733C134.368 43.1847 134.308 45.6198 135.043 47.8705C136.62 46.6274 137.836 44.9863 138.567 43.1165C139.298 41.2467 139.517 39.2157 139.202 37.233Z"
            fill="#0A9183" />
        <path
            d="M112.562 58.8313C115.172 57.3535 117.399 55.2848 119.065 52.7909C120.731 50.297 121.789 47.4475 122.155 44.4708C122.438 42.6204 122.224 40.7281 121.535 38.9877C121.181 38.1234 120.619 37.3599 119.899 36.7653C119.178 36.1706 118.322 35.7631 117.407 35.5791L116.291 37.3356C114.69 35.9577 112.002 37.3748 111.329 39.3769C110.895 41.4552 111.076 43.615 111.849 45.5923C112.621 47.5817 112.586 49.7939 111.752 51.7579C110.852 52.9129 109.84 53.9759 108.731 54.9314C108.189 55.4246 107.835 56.0908 107.73 56.816C107.625 57.5412 107.775 58.2804 108.154 58.9073C109.2 60.1084 111.168 59.6051 112.562 58.8313Z"
            fill="#0A9183" />
        <path
            d="M101.206 49.0152C102.163 47.2966 102.616 45.3424 102.511 43.3778L100.07 42.6123C98.509 43.2445 97.1245 44.2454 96.0348 45.5295C95.7039 45.8611 95.4503 46.2618 95.2924 46.7029C95.1345 47.1439 95.0761 47.6144 95.1213 48.0807C95.1666 48.547 95.3143 48.9975 95.5541 49.4C95.7939 49.8025 96.1197 50.147 96.5083 50.4087C96.8968 50.6705 97.3384 50.8431 97.8014 50.9142C98.2645 50.9853 98.7376 50.9531 99.1867 50.8199C99.6359 50.6868 100.05 50.4559 100.399 50.1439C100.749 49.8319 101.025 49.4465 101.208 49.0152H101.206Z"
            fill="#0A9183" />
        <path
            d="M220.503 36.6667C220.723 36.8519 220.943 37.0418 221.164 37.2281C221.358 37.1878 221.544 37.1094 221.742 37.0893L220.503 36.6667Z"
            fill="#0A9183" />
        <path
            d="M216.592 58.0869L223.314 52.6489C224.505 51.8064 225.52 50.7397 226.302 49.5086C226.836 48.3431 227.066 47.0615 226.972 45.7829C226.877 44.5044 226.46 43.2706 225.76 42.1966C224.52 40.2929 222.966 38.6131 221.165 37.2285C219.186 37.6965 217.447 38.8742 216.278 40.5386C215.109 42.203 214.591 44.2384 214.823 46.2591C215.227 48.8297 216.84 51.5772 215.524 53.8215C215.011 54.695 214.128 55.2896 213.537 56.1121C212.946 56.9345 212.754 58.2483 213.567 58.8501C214.469 59.5218 215.718 58.7943 216.592 58.0869Z"
            fill="#0A9183" />
        <path
            d="M221.493 69.1835C222.326 69.2286 223.159 69.0937 223.936 68.7882C224.712 68.4827 225.414 68.0136 225.993 67.4128C228.988 64.9586 231.609 62.0798 233.771 58.8677L218.651 63.6565L220.223 65.4949C218.821 66.4064 219.856 68.869 221.493 69.1835Z"
            fill="#0A9183" />
        <path
            d="M235.625 79.5626C235.933 80.3488 236.489 81.0127 237.21 81.4527C237.93 81.8927 238.775 82.0847 239.615 81.9991C240.452 81.8878 241.254 81.5942 241.965 81.1392C242.676 80.6842 243.278 80.0787 243.73 79.3656C244.497 78.2354 244.947 76.9209 245.036 75.5581C245.124 74.1952 244.846 72.8335 244.232 71.6139C243.617 70.3943 242.688 69.361 241.54 68.621C240.392 67.881 239.068 67.4611 237.703 67.4048L239.095 69.5316C239.45 73.1621 234.515 76.0876 235.625 79.5626Z"
            fill="#0A9183" />
        <path
            d="M333.55 119.324C334.914 120.342 336.57 120.889 338.272 120.885C339.973 120.881 341.627 120.326 342.985 119.302C343.867 118.549 344.583 117.623 345.089 116.581C345.596 115.538 345.881 114.403 345.929 113.245C345.976 112.087 345.784 110.932 345.364 109.853C344.944 108.773 344.306 107.791 343.489 106.969L340.913 108.406C339.485 107.489 337.756 107.161 336.091 107.491C334.426 107.822 332.954 108.786 331.985 110.18C331.116 111.641 330.796 113.364 331.082 115.04C331.369 116.716 332.244 118.235 333.55 119.324Z"
            fill="#0A9183" />
        <path
            d="M363.493 122.713C364.748 122.349 365.887 121.669 366.804 120.738C367.72 119.807 368.382 118.657 368.726 117.397L363.719 116.74C362.326 115.688 360.705 114.98 358.987 114.673C358.126 114.544 357.246 114.715 356.495 115.157C355.745 115.6 355.169 116.287 354.865 117.103C354.759 117.797 354.832 118.507 355.078 119.165C355.323 119.823 355.734 120.407 356.269 120.861C357.214 121.763 358.375 122.407 359.639 122.731C360.904 123.055 362.231 123.049 363.493 122.714V122.713Z"
            fill="#0A9183" />
        <path
            d="M342.82 132.727C342.908 133.541 343.226 134.314 343.737 134.954C344.248 135.595 344.931 136.076 345.705 136.343C346.551 136.745 347.499 136.883 348.424 136.739C349.35 136.596 350.211 136.178 350.896 135.54C351.199 135.198 351.415 134.79 351.528 134.348C351.641 133.907 351.646 133.444 351.545 133C351.443 132.556 351.237 132.142 350.943 131.793C350.65 131.445 350.277 131.171 349.857 130.995L346.103 130.313C344.65 129.556 342.796 131.089 342.82 132.727Z"
            fill="#0A9183" />
        <path d="M124.978 159.121L122.072 156.467C122.845 157.544 123.835 158.448 124.978 159.121Z" fill="#0A9183" />
        <path
            d="M102.783 143.497C104.571 151.805 113.52 158.57 121.643 156.077L122.071 156.469C119.485 152.929 119.047 147.686 119.651 143.137C120.773 135.333 123.842 127.937 128.575 121.632C133.308 115.326 139.553 110.314 146.733 107.058C148.7 106.444 150.459 105.298 151.815 103.747C152.972 102.054 152.54 99.1501 150.547 98.6718C149.463 98.5465 148.37 98.798 147.45 99.3839L132.354 106.813C124.728 110.566 116.952 114.427 110.964 120.456C104.975 126.485 100.994 135.189 102.783 143.497Z"
            fill="#0A9183" />
        <path d="M231.488 402.16L230.287 399.175C229.738 400.526 229.943 401.909 231.488 402.16Z" fill="#0A9183" />
        <path
            d="M471.693 192.859C466.557 187.288 463.413 184.077 460.171 177.17C458.406 173.362 455.726 170.049 452.37 167.529C449.013 165.008 445.085 163.358 440.935 162.726C430.282 160.97 419.395 163.75 408.614 163.193C391.344 162.301 375.77 153.038 359.232 147.985C349.971 145.392 340.541 143.449 331.01 142.17L314.534 139.559C296.531 136.71 278.414 133.862 260.191 134.235C254.937 134.344 247.611 132.764 248.038 127.526C248.562 121.019 260.263 121.873 262.518 115.746C263.911 111.957 260.577 107.977 256.92 106.264C253.264 104.55 249.044 104.035 245.725 101.734C242.407 99.4324 240.589 94.0988 243.639 91.4521L218.279 104.453C211.25 108.056 203.398 112.743 202.157 120.542C197.922 121.661 194.216 124.236 191.689 127.814C186.935 127.839 183.197 132.403 182.413 137.094C181.628 141.784 183.054 146.53 184.464 151.071C182.739 147.767 180.903 144.338 177.867 142.182C174.831 140.025 170.199 139.616 167.608 142.293C164.949 145.041 165.571 149.652 167.452 152.982C169.333 156.312 172.224 158.999 173.998 162.386C179.543 172.966 169.496 187.86 157.611 186.682C158.407 175.757 159.205 164.833 160.002 153.909C160.505 150.548 160.221 147.117 159.171 143.885C157.874 140.758 154.555 138.188 151.25 138.927C145.31 140.256 145.817 148.957 148.283 154.52C150.75 160.083 153.218 167.818 148.173 171.226C144.915 173.426 140.499 172.067 136.983 170.311C133.466 168.554 129.704 166.394 125.86 167.211C122.015 168.027 119.598 173.908 122.995 175.886L106.097 172.95C105.818 174.608 105.194 176.189 104.266 177.591C103.338 178.993 102.125 180.185 100.708 181.089C99.2905 181.994 97.699 182.59 96.0365 182.841C94.3739 183.092 92.6772 182.991 91.056 182.546L89.3944 175.67L86.9223 174.982C89.5096 175.702 85.4613 186.613 81.832 194.949C76.953 194.377 69.8237 194.267 69.0143 192.869C65.1191 186.174 65.5808 170.228 58.8076 166.461C55.4133 164.572 51.932 162.851 48.3636 161.298C46.4897 160.406 44.5101 159.756 42.4722 159.363C38.3184 158.708 34.1253 159.997 30.1138 161.272C25.3748 162.777 20.5243 164.339 16.6007 167.392C13.2498 170.299 10.3774 173.715 8.08877 177.515L-15.1552 211.916C-17.4634 214.978 -19.2798 218.382 -20.5386 222.004C-21.1315 223.805 -21.3288 225.713 -21.117 227.597C-20.9052 229.482 -20.2894 231.298 -19.3115 232.923C-18.2808 234.515 -16.7442 235.715 -14.949 236.328C-13.1537 236.942 -11.2042 236.933 -9.41448 236.304C-7.16901 235.332 -4.92 233.129 -2.69471 234.146C-1.00941 234.917 -0.588123 237.132 -0.764961 238.977C-1.19329 240.783 -1.2269 242.661 -0.863476 244.481C0.15007 247.353 4.04765 248.351 6.82719 247.109C9.53105 245.633 11.5563 243.165 12.4764 240.225C15.1551 233.356 14.8822 225.754 15.5491 218.41C16.2161 211.066 18.223 203.213 24.0124 198.646C25.7451 197.279 28.2921 196.294 30.0759 197.593C30.7441 198.2 31.2062 199 31.3977 199.883C31.5892 200.765 31.5005 201.685 31.144 202.514C30.3979 204.154 29.4256 205.682 28.2553 207.052C26.277 209.835 24.8927 212.996 24.1885 216.336C23.4843 219.677 23.4752 223.128 24.1619 226.472L25.3487 227.205C29.8586 226.033 35.9043 228.13 41.8978 230.141C37.5475 231.434 33.717 234.069 30.9529 237.669C24.0254 247.389 19.0111 256.587 5.30686 256.472C2.05615 256.444 -1.16727 255.801 -4.41916 255.794C-7.70111 255.591 -10.934 256.668 -13.4391 258.798C-15.9041 261.212 -16.666 264.886 -18.7798 267.616C-21.5522 271.206 -26.1867 272.666 -30.4189 274.295C-33.5117 275.482 -36.772 277.094 -38.1938 280.088C-39.0864 282.544 -39.2916 285.197 -38.7872 287.761C-38.3125 292.296 -37.4674 297.454 -33.6198 299.901C-32.181 300.652 -30.6074 301.108 -28.9905 301.245C-27.3735 301.382 -25.7455 301.196 -24.2012 300.697C-20.1992 299.724 -16.2862 297.891 -12.1763 298.165C-5.7235 298.594 -0.410095 304.788 -0.344822 311.254C-0.311588 314.527 -1.26695 318.281 0.902561 320.733C2.94152 323.037 6.98499 322.626 9.0916 320.39C10.0731 319.201 10.7485 317.79 11.0589 316.28C11.3692 314.77 11.305 313.206 10.8718 311.727C9.97485 308.778 8.59525 305.999 6.78916 303.502C8.93626 302.945 11.2099 303.15 13.2234 304.08C15.2369 305.01 16.8661 306.609 17.8338 308.605C19.2675 311.789 18.8046 315.463 19.258 318.931C19.7113 322.398 21.8227 326.239 25.3107 326.44C26.4506 326.471 27.5657 326.103 28.4627 325.399C29.3596 324.695 29.982 323.7 30.2218 322.585C30.2578 320.828 30.1618 319.071 29.9346 317.328C30.0536 315.613 30.8243 314.008 32.0888 312.843C33.3533 311.678 35.0157 311.041 36.7351 311.062C35.6738 313.022 35.3281 315.291 35.7574 317.478C36.1866 319.665 37.3641 321.635 39.0874 323.049C41.74 325.102 45.247 325.56 48.5523 326.135C51.8576 326.709 55.3825 327.616 57.5152 330.204C61.0685 334.516 56.7212 336.459 56.0435 340.111C55.2128 344.594 58.9572 351.214 60.3956 355.504L80.2262 383.246C81.7017 385.494 83.4422 387.558 85.4102 389.391C91.9378 394.995 102.693 394.442 108.951 388.541C111.986 385.471 113.956 381.51 114.573 377.237C115.19 372.965 114.421 368.608 112.378 364.805C108.512 357.766 100.848 353.411 97.0684 346.321C103.366 351.535 111.098 354.714 119.242 355.44C133.65 358.368 147.34 364.109 159.526 372.334C160.099 385.066 164.984 397.225 173.379 406.815C174.888 395.949 179.954 385.888 187.784 378.205C192.877 373.238 199.835 369.234 206.822 370.57C213.809 371.907 219.109 380.815 214.883 386.538L225.506 387.328L230.27 399.173C230.553 398.343 231.094 397.626 231.814 397.126C232.534 396.626 233.395 396.37 234.271 396.396C237.586 396.897 239.911 399.98 243.064 401.119C249.008 403.266 255.362 397.321 256.131 391.047C256.9 384.772 253.915 378.718 251.017 373.103C257.422 374.29 264.033 373.583 270.042 371.07C276.051 368.557 281.197 364.346 284.849 358.953C288.502 353.56 290.502 347.219 290.606 340.707C290.711 334.194 288.913 327.793 285.435 322.286C292.326 315.048 300.436 309.078 309.393 304.647C317.683 300.551 326.751 297.741 333.996 291.996C341.242 286.25 346.323 276.275 342.837 267.711C340.376 261.658 334.2 257.554 332.353 251.289C329.677 242.219 337.804 232.838 346.984 230.573C356.164 228.307 365.75 231.093 374.793 233.855C373.404 224.551 384.189 215.828 392.998 219.132L404.066 214.65C399.794 224.08 390.522 230.079 383.709 237.873C376.895 245.667 372.836 258.361 379.955 265.882L410.563 238.14L442.579 209.121L441.05 204.63C451.162 200.794 462.036 197.622 471.693 192.859Z"
            fill="#0A9183" />
        <path
            d="M98.3916 402.501C87.9002 400.165 78.2968 394.875 70.7161 387.256C63.1355 379.636 57.8945 370.006 55.6126 359.502C54.618 354.546 54.1671 349.131 50.8653 345.298C47.6728 341.588 42.4578 340.25 37.5634 340.25C32.6689 340.25 27.8445 341.376 22.9655 341.681C14.4203 342.214 5.37556 339.958 -0.730637 333.967C-3.62292 331.129 -5.81145 327.525 -9.18915 325.285C-13.7287 322.276 -19.7519 322.279 -24.9193 323.98C-30.6802 325.878 -35.2921 331.074 -41.5918 330.359C-48.1431 329.615 -55.7364 327.299 -58.3046 335.926C-59.044 338.41 -58.7924 341.134 -59.7288 343.55C-61.172 347.275 -65.0043 349.374 -68.0366 351.977C-74.1416 357.216 -77.3864 365.178 -78.4806 373.148C-79.5749 381.119 -78.7275 389.214 -77.8872 397.215C-77.4303 401.53 -76.8298 406.174 -73.8651 409.344C-69.7325 413.763 -62.7991 413.592 -56.7748 413.093L-35.7681 411.358C-31.9928 411.046 -27.6905 410.914 -25.0023 413.584C-23.3918 415.183 -22.7106 417.5 -21.2935 419.272C-20.0218 420.781 -18.2762 421.815 -16.3414 422.205C-14.4067 422.596 -12.3967 422.319 -10.6394 421.42C-12.0613 423.957 -12.8355 426.806 -12.8935 429.713C-12.9515 432.621 -12.2914 435.498 -10.9718 438.09C-9.65226 440.681 -7.71391 442.907 -5.32842 444.571C-2.94293 446.234 -0.183983 447.284 2.704 447.626L3.24403 447.967C-1.23978 455.646 -5.89456 464.268 -4.03243 472.964C-2.43853 480.419 3.73654 486.397 4.75008 493.954C5.67699 500.887 2.05836 507.979 3.65939 514.789C5.28059 521.684 12.2449 526.492 19.31 527.006C26.3752 527.52 33.3146 524.385 38.7894 519.885C44.2642 515.384 48.494 509.594 52.6633 503.863C55.2375 500.327 57.8782 496.647 58.7624 492.362C59.7036 487.804 58.6129 482.749 60.8299 478.659C63.3863 473.939 69.4545 472.17 72.5165 467.762C76.4829 462.053 74.146 454.281 75.0231 447.385C77.208 430.33 98.8841 419.694 98.3916 402.501Z"
            fill="#0A9183" />
        <path
            d="M95.2596 460.756C94.6662 463.421 92.1739 465.175 89.8003 466.516C87.4266 467.857 84.8085 469.21 83.5968 471.656C82.3565 474.161 82.9227 477.148 83.5718 479.867C84.9217 485.524 86.5116 491.116 88.3417 496.643C91.8893 489.94 94.9866 483.008 97.6131 475.893C98.7253 473.244 99.4118 470.436 99.6473 467.573C99.7561 466.14 99.5633 464.7 99.0815 463.346C98.5997 461.992 97.8396 460.754 96.85 459.712L95.2596 460.756Z"
            fill="#0A9183" />
        <path
            d="M241.159 431.078L232.221 420.761C230.184 418.409 227.861 415.895 224.774 415.505L223.503 416.317L231.252 434.768C232.166 437.576 233.776 440.107 235.931 442.127C238.243 443.944 241.992 444.292 243.921 442.072C244.543 441.24 244.935 440.259 245.058 439.227C245.181 438.196 245.03 437.15 244.621 436.195C243.78 434.297 242.608 432.564 241.158 431.077L241.159 431.078Z"
            fill="#0A9183" />
        <path
            d="M270.027 437.664C271.153 437.273 272.185 436.651 273.057 435.838C273.929 435.025 274.622 434.04 275.091 432.944C276.014 430.749 276.624 428.435 276.902 426.07L278.429 416.831L277.764 416.66C277.116 416.35 276.379 416.285 275.687 416.477C274.996 416.668 274.397 417.104 274.002 417.704C273.252 418.927 272.684 420.253 272.317 421.64C272.128 422.333 271.785 422.975 271.314 423.517C270.843 424.059 270.255 424.487 269.595 424.77C267.203 425.492 264.939 422.958 262.443 423.056C261.434 423.185 260.499 423.651 259.79 424.379C259.08 425.107 258.639 426.054 258.537 427.065C258.392 429.107 258.971 431.135 260.171 432.793C262.299 436.096 266.249 438.751 270.027 437.664Z"
            fill="#0A9183" />
        <path
            d="M286.498 443.503L293.364 425.42C290.583 427.438 288.451 430.224 287.231 433.436C286.012 436.649 285.757 440.148 286.498 443.503Z"
            fill="#0A9183" />
        <path
            d="M321.536 428.931L320.147 428.99C319.527 430.218 319.197 431.572 319.184 432.947C319.171 434.322 319.474 435.682 320.071 436.921C321.29 439.391 323.062 441.545 325.251 443.217C328.642 446.017 332.513 448.179 336.676 449.597C342.781 451.378 349.094 452.351 355.452 452.49L366.355 453.202C368.087 453.32 370.326 453.095 370.807 451.429C371.204 450.052 370.032 448.758 368.936 447.834C359.32 439.742 347.662 434.451 335.24 432.54C330.526 431.819 325.531 431.524 321.536 428.931Z"
            fill="#0A9183" />
        <path
            d="M360.331 476.914L352.489 469.311C349.947 466.846 346.139 464.233 343.225 466.246C341.55 467.403 341.034 469.659 339.615 471.118C338.751 471.893 337.707 472.44 336.577 472.71C335.448 472.979 334.27 472.962 333.149 472.661C330.916 472.034 328.806 471.033 326.907 469.702L320.421 465.678L313.707 461.511L308.656 466.419C308.876 464.004 305.655 462.434 303.425 463.389C302.365 463.984 301.453 464.81 300.756 465.806C300.06 466.801 299.597 467.941 299.402 469.141C299.03 471.538 298.382 473.885 297.471 476.134C294.906 481.043 288.68 482.497 283.201 483.32C277.723 484.142 271.518 485.301 268.586 490C266.143 493.917 266.875 498.941 267.691 503.482L270.776 520.661C270.923 522.742 271.758 524.716 273.15 526.27C275.862 528.664 280.063 527.209 283.373 525.749C290.293 522.421 297.718 520.269 305.345 519.381C313.039 518.521 320.782 520.505 327.114 524.959C331.04 527.949 334.033 532.086 338.193 534.741C341.059 536.465 344.28 537.513 347.612 537.803C350.944 538.094 354.298 537.62 357.419 536.418C363.674 533.928 368.851 529.312 372.039 523.382C374.869 518.153 376.29 512.278 376.16 506.334C376.031 500.389 374.356 494.581 371.3 489.481C368.18 484.853 364.495 480.632 360.331 476.914Z"
            fill="#0A9183" />
        <path
            d="M352.623 546.906C351.996 547.668 351.629 548.61 351.576 549.595C351.524 550.581 351.788 551.557 352.33 552.381C353.469 554.013 355.206 555.131 357.163 555.492C359.101 555.839 361.077 555.929 363.039 555.761L363.098 554.295C362.575 551.723 361.389 549.332 359.657 547.36C357.764 545.56 354.418 545.007 352.623 546.906Z"
            fill="#0A9183" />
        <path
            d="M325.696 324.84C323.112 324.759 320.252 324.603 318.249 326.237C317.59 326.826 317.013 327.5 316.531 328.24L315.825 329.229C314.768 330.612 313.847 332.093 313.074 333.652C312.67 334.383 312.427 335.192 312.363 336.025C312.298 336.857 312.413 337.694 312.7 338.478C312.865 338.853 313.111 339.187 313.42 339.457C313.728 339.726 314.093 339.924 314.487 340.038C314.88 340.151 315.294 340.176 315.699 340.112C316.104 340.047 316.49 339.895 316.829 339.665C317.933 338.642 317.675 336.787 318.511 335.533C318.878 335.062 319.35 334.682 319.89 334.424C320.43 334.165 321.022 334.036 321.62 334.046C322.813 334.076 324 334.21 325.17 334.447C328.409 334.891 331.707 334.399 334.675 333.028C337.643 331.657 340.157 329.466 341.92 326.712C343.683 323.959 344.62 320.759 344.623 317.489C344.625 314.22 343.691 311.018 341.932 308.263L341.725 307.628C339.936 307.559 338.18 308.12 336.762 309.213C335.344 310.306 334.354 311.862 333.965 313.609C333.387 316.62 334.612 320.117 332.788 322.579C331.249 324.651 328.279 324.921 325.696 324.84Z"
            fill="#0A9183" />
        <path
            d="M348.823 292.924L348.429 292.889C346.119 293.311 343.9 294.138 341.877 295.33C341.213 295.639 340.683 296.177 340.384 296.845C340.296 297.199 340.297 297.57 340.388 297.924C340.479 298.278 340.657 298.604 340.905 298.872C341.407 299.401 341.994 299.843 342.642 300.177C343.608 300.822 344.675 301.3 345.799 301.59C346.363 301.729 346.953 301.727 347.516 301.581C348.079 301.436 348.596 301.154 349.023 300.759C349.423 300.21 349.697 299.58 349.828 298.913C349.959 298.246 349.942 297.559 349.779 296.899C349.595 295.545 349.274 294.213 348.822 292.924H348.823Z"
            fill="#0A9183" />
        <path
            d="M309.001 325.606C309.618 324.617 310.057 323.527 310.297 322.385L311.019 319.727L308.444 318.163C307.214 318.803 306.079 319.612 305.072 320.566C304.572 321.047 304.177 321.626 303.911 322.267C303.646 322.908 303.516 323.598 303.529 324.291C303.565 324.985 303.834 325.646 304.293 326.167C304.752 326.688 305.374 327.038 306.057 327.161C306.641 327.179 307.219 327.045 307.735 326.773C308.251 326.5 308.688 326.099 309.003 325.608L309.001 325.606Z"
            fill="#0A9183" />
        <path
            d="M28.4273 86.1083C27.409 86.7433 27.6962 88.2778 28.1092 89.4041L29.5334 93.2851L30.1969 90.7737C30.7793 89.7995 31.0362 88.665 30.9303 87.5349C30.7012 86.43 29.3851 85.5149 28.4273 86.1083Z"
            fill="#0A9183" />
        <path
            d="M194.188 377C201.644 377 207.688 370.956 207.688 363.5C207.688 356.044 201.644 350 194.188 350C186.732 350 180.688 356.044 180.688 363.5C180.688 370.956 186.732 377 194.188 377Z"
            fill="#00C8B3" />
        <mask id="mask0_254_1196" style="mask-type:luminance" maskUnits="userSpaceOnUse" x="180" y="350" width="28"
            height="27">
            <path
                d="M194.188 377C201.644 377 207.688 370.956 207.688 363.5C207.688 356.044 201.644 350 194.188 350C186.732 350 180.688 356.044 180.688 363.5C180.688 370.956 186.732 377 194.188 377Z"
                fill="white" />
        </mask>
        <g mask="url(#mask0_254_1196)">
            <path
                d="M197.729 362.924C197.91 362.336 197.924 361.708 197.769 361.112C197.615 360.516 197.298 359.974 196.854 359.547C196.411 359.12 195.857 358.825 195.256 358.693C194.654 358.562 194.028 358.599 193.447 358.802C192.865 359.005 192.351 359.365 191.962 359.842C191.573 360.32 191.324 360.895 191.242 361.506C191.16 362.116 191.249 362.737 191.499 363.3C191.749 363.863 192.15 364.345 192.658 364.694L190.625 369.791L200.615 368.944C200.615 368.944 195.552 366.227 195.488 365.142C196.016 364.986 196.497 364.702 196.888 364.315C197.279 363.928 197.568 363.45 197.729 362.924Z"
                fill="#ED9DA0" />
            <path
                d="M200.628 368.623L201.48 368.229C201.787 368.288 202.07 368.434 202.294 368.652C202.519 368.869 202.675 369.147 202.744 369.451C203.034 370.549 204.359 376.432 204.359 376.432C204.584 376.672 204.735 376.972 204.794 377.295C204.853 377.618 204.817 377.952 204.691 378.255C204.691 378.255 204.846 379.426 204.359 379.602C203.873 379.778 200.614 382.294 200.614 382.294L200.628 368.623Z"
                fill="#090814" />
            <path
                d="M198.062 367.09L195.86 365.749C195.352 368.276 192.732 368.415 192.224 365.888L190.604 367.09L187.186 368.23L187.683 381.482L194.622 381.462V381.482H200.983L201.48 368.23L198.062 367.09Z"
                fill="#090814" />
            <path
                d="M188.038 368.623L187.187 368.229C186.88 368.288 186.597 368.434 186.372 368.652C186.148 368.869 185.992 369.147 185.923 369.451C185.633 370.549 186.172 376.899 186.172 376.899C185.947 377.138 185.796 377.438 185.737 377.761C185.678 378.085 185.714 378.418 185.84 378.722C185.84 378.722 185.685 379.892 186.172 380.068C186.658 380.244 188.039 380.323 188.039 380.323L188.038 368.623Z"
                fill="#090814" />
            <path
                d="M191.402 360.533L191.149 363.113C191.149 363.113 188.495 357.964 191.794 357.012C191.794 357.012 191.473 356.576 191.939 356.432C192.406 356.287 196.828 355.592 197.18 357.757C197.18 357.757 199.49 359.188 198.791 360.721L197.968 362.522L197.222 362.563C197.222 362.563 197.201 359.134 196.061 359.249C194.921 359.363 191.402 360.533 191.402 360.533Z"
                fill="#090814" />
        </g>
        <path
            d="M136.188 324.673C145.301 324.673 152.688 317.359 152.688 308.337C152.688 299.314 145.301 292 136.188 292C127.075 292 119.688 299.314 119.688 308.337C119.688 317.359 127.075 324.673 136.188 324.673Z"
            fill="#00C8B3" />
        <mask id="mask1_254_1196" style="mask-type:luminance" maskUnits="userSpaceOnUse" x="119" y="292" width="34"
            height="33">
            <path
                d="M136.188 324.673C145.301 324.673 152.688 317.359 152.688 308.337C152.688 299.314 145.301 292 136.188 292C127.075 292 119.688 299.314 119.688 308.337C119.688 317.359 127.075 324.673 136.188 324.673Z"
                fill="white" />
        </mask>
        <g mask="url(#mask1_254_1196)">
            <path d="M134.076 310.127L133.913 312.79L138.887 313.043L137.346 309.533L134.076 310.127Z" fill="#ED9DA0" />
            <path
                d="M133.785 312.392C135.118 313.093 137.251 312.901 139.666 312.392L140.044 332.117C140.044 332.117 132.17 334.668 129.57 331.365L131.254 314.489L133.785 312.394L133.785 312.392Z"
                fill="#D6D6E3" />
            <path
                d="M138.15 311.366L141.736 313.49C142.396 313.881 142.907 314.481 143.189 315.194C143.47 315.908 143.506 316.695 143.29 317.432L140.519 326.896C140.519 326.896 145.032 334.649 143.566 335.333C140.271 336.868 135.354 336.495 135.354 336.495L136.453 317.934L138.152 311.366H138.15Z"
                fill="#3F3D58" />
            <path
                d="M133.941 312.322L129.887 313.897L128.929 325.594L126.247 335.017C130.789 336.674 130.364 335.902 130.364 335.902L131.115 319.644L133.939 312.325L133.941 312.322Z"
                fill="#3F3D58" />
            <path
                d="M128.019 334.816L128.033 334.75L132.177 315.582C132.226 315.371 132.232 315.153 132.196 314.939C132.16 314.726 132.083 314.522 131.968 314.338C131.853 314.155 131.703 313.996 131.527 313.87C131.35 313.745 131.151 313.655 130.94 313.607C130.729 313.558 130.511 313.552 130.297 313.588C130.084 313.624 129.88 313.701 129.696 313.816C129.513 313.931 129.354 314.081 129.228 314.257C129.103 314.434 129.013 314.633 128.965 314.844L124.412 333.559L128.018 334.817L128.019 334.816Z"
                fill="#3F3D58" />
            <path
                d="M136.234 310.834C138.462 310.834 140.269 309.028 140.269 306.799C140.269 304.571 138.462 302.764 136.234 302.764C134.005 302.764 132.199 304.571 132.199 306.799C132.199 309.028 134.005 310.834 136.234 310.834Z"
                fill="#ED9DA0" />
            <path
                d="M134.315 301.571C133.426 301.883 132.917 302.061 132.452 302.511C131.665 303.269 131.535 304.282 131.415 305.223C131.234 306.151 131.309 307.111 131.63 308C131.777 308.371 132.491 310.026 133.858 310.234C134.126 310.276 134.756 310.286 134.575 310.152C132.894 308.911 132.177 308.162 132.236 306.25C132.272 305.062 134.088 303.779 135.166 303.548C135.425 303.495 135.692 303.499 135.95 303.559C136.207 303.619 136.449 303.734 136.658 303.896C137.564 304.64 137.525 307.716 138.48 308.359C138.872 308.623 138.611 306.762 138.888 307.064C139.435 307.659 139.084 308.571 138.986 308.919C138.521 310.566 138.033 309.348 137.579 310.755C137.088 312.274 141.394 313.297 141.541 313.636C141.795 314.226 138.154 317.026 139.153 317.511C140.422 318.128 141.422 317.325 142.012 318.013C142.342 318.398 142.163 318.806 142.759 320.002C142.953 320.395 143.051 320.589 143.137 320.582C143.544 320.549 144.203 317.289 143.137 314.253C142.689 312.979 142.251 311.731 141.076 310.755C140.455 310.239 139.932 310.053 139.785 309.451C139.573 308.589 140.453 308.222 140.629 306.864C140.75 305.935 140.834 304.606 140.506 303.755C140.196 302.95 139.927 302.252 139.224 301.619C139.054 301.468 137.69 300.434 136.243 300.405C135.577 300.391 135.088 301.299 134.315 301.571L134.315 301.571Z"
                fill="#090814" />
            <path
                d="M140.56 313.61C141.177 313.523 141.803 313.673 142.313 314.031C142.823 314.389 143.178 314.926 143.306 315.536C144.234 319.947 145.9 329.347 143.284 329.504C141.032 329.599 138.778 329.392 136.581 328.888L137.402 324.169L140.069 323.896L138.501 316.557C138.431 316.227 138.429 315.886 138.496 315.556C138.562 315.225 138.696 314.912 138.89 314.636C139.083 314.359 139.331 314.126 139.618 313.949C139.905 313.773 140.226 313.657 140.56 313.61H140.56Z"
                fill="#3F3D58" />
        </g>
        <path
            d="M250.688 254C247.128 254 243.648 255.056 240.688 257.034C237.728 259.011 235.421 261.823 234.058 265.112C232.696 268.401 232.339 272.02 233.034 275.512C233.728 279.003 235.443 282.211 237.96 284.728C240.477 287.245 243.685 288.96 247.176 289.654C250.668 290.349 254.287 289.992 257.576 288.63C260.865 287.267 263.677 284.96 265.654 282C267.632 279.04 268.688 275.56 268.688 272C268.688 267.226 266.792 262.648 263.416 259.272C260.04 255.896 255.462 254 250.688 254Z"
            fill="#00C8B3" />
        <mask id="mask2_254_1196" style="mask-type:luminance" maskUnits="userSpaceOnUse" x="232" y="254" width="37"
            height="36">
            <path
                d="M250.724 289.929C240.802 289.929 232.759 281.886 232.759 271.964C232.759 262.043 240.802 254 250.724 254C260.645 254 268.688 262.043 268.688 271.964C268.688 281.886 260.645 289.929 250.724 289.929Z"
                fill="white" />
        </mask>
        <g mask="url(#mask2_254_1196)">
            <path
                d="M249.628 268.535C247.91 268.535 246.517 267.142 246.517 265.424C246.517 263.707 247.91 262.314 249.628 262.314C251.345 262.314 252.738 263.707 252.738 265.424C252.738 267.142 251.345 268.535 249.628 268.535Z"
                fill="#FFB9B9" />
            <path
                d="M252.314 266.131C252.314 266.131 252.455 270.514 253.162 271.08C253.869 271.645 250.617 274.049 250.617 274.049L248.496 270.656V267.545L252.314 266.131Z"
                fill="#FFB9B9" />
            <path
                d="M250.9 272.07L252.617 269.478L253.587 270.797L255.001 274.757L253.87 290.168L247.224 290.31L246.376 272.636L248.497 270.09L250.9 272.07Z"
                fill="#F2F2F2" />
            <path
                d="M243.689 273.059L242.558 272.918C242.558 272.918 242.275 273.059 242.134 274.049C241.992 275.039 240.296 283.806 240.296 283.806L242.559 294.552L245.104 291.159L243.548 285.221L245.103 279.28L243.689 273.059Z"
                fill="#090814" />
            <path
                d="M258.111 272.918H258.959L261.08 284.371L259.1 293.279L257.121 290.027L257.687 286.492L257.404 283.381L256.415 281.543L258.111 272.918Z"
                fill="#090814" />
            <path
                d="M251.465 265.425L250.899 265.284C250.899 265.284 250.475 262.88 249.485 263.163C248.496 263.447 245.95 263.729 245.95 262.597C245.95 261.466 248.355 260.477 249.768 260.618C251.181 260.759 253.586 261.184 253.444 263.305C253.308 264.745 252.953 266.156 252.391 267.489L252.316 266.231L251.465 265.425Z"
                fill="#090814" />
            <path
                d="M242.699 272.918L247.223 271.08L248.284 270.302L251.465 284.371L253.585 278.009L252.949 269.879L258.817 272.919L256.836 282.535L256.554 286.211L257.402 289.18C257.402 289.18 260.371 291.301 259.381 293.563C258.391 295.826 257.261 295.968 257.261 295.968C257.261 295.968 252.453 291.443 252.17 290.312C251.887 289.181 251.463 287.202 251.463 287.202C251.463 287.202 249.059 296.251 246.232 296.109C243.404 295.968 243.404 292.999 243.404 292.999L244.111 289.888L245.243 286.632L244.678 281.259L242.699 272.918Z"
                fill="#090814" />
        </g>
        <g clip-path="url(#clip1_254_1196)">
            <path
                d="M302.993 607.357H113.319C112.622 607.356 111.953 607.079 111.46 606.585C110.966 606.092 110.689 605.423 110.688 604.726V484.875C110.689 484.178 110.966 483.509 111.46 483.016C111.953 482.522 112.622 482.245 113.319 482.244H302.993C303.69 482.245 304.359 482.522 304.852 483.016C305.346 483.509 305.623 484.178 305.624 484.875V604.726C305.623 605.423 305.345 606.092 304.852 606.585C304.359 607.078 303.69 607.356 302.993 607.357Z"
                fill="#344C5B" />
            <path
                d="M130.763 496.767C130.464 496.767 130.177 496.886 129.966 497.097C129.755 497.309 129.636 497.596 129.636 497.895V591.706C129.636 592.005 129.755 592.292 129.966 592.503C130.177 592.715 130.464 592.834 130.763 592.834H285.549C285.849 592.834 286.135 592.715 286.347 592.503C286.558 592.292 286.677 592.005 286.677 591.706V497.895C286.677 497.596 286.558 497.309 286.347 497.097C286.135 496.886 285.849 496.767 285.549 496.767H130.763Z"
                fill="#0A9183" />
            <path
                d="M287.053 520.929V514.984H265.164V496.391H259.219V514.984H220.249V496.391H214.304V514.984H154.197V496.391H148.253V514.984H127.468V520.929H148.252V544.046H127.468V549.991H148.252V574.762H127.468V580.707H180.288V593.209H186.232V580.706H214.304V593.209H220.248V580.706H287.053V574.761H220.249V549.99H287.053V544.047H265.164V520.93L287.053 520.929ZM214.304 520.929V528.195H154.197V520.929H214.304ZM154.197 534.138H214.304V544.046H154.197V534.138ZM154.197 574.76V549.989H180.288V574.76H154.197ZM214.304 574.76H186.232V549.989H214.304L214.304 574.76ZM259.219 544.046H220.249V520.929H259.219L259.219 544.046Z"
                fill="#344C5B" />
            <path
                d="M217.276 555.368C221.472 555.368 224.872 551.967 224.872 547.772C224.872 543.577 221.472 540.176 217.276 540.176C213.081 540.176 209.68 543.577 209.68 547.772C209.68 551.967 213.081 555.368 217.276 555.368Z"
                fill="#00C8B3" />
            <path
                d="M218.187 502.648C244.065 502.648 265.043 481.67 265.043 455.791C265.043 429.913 244.065 408.935 218.187 408.935C192.309 408.935 171.331 429.913 171.331 455.791C171.331 481.67 192.309 502.648 218.187 502.648Z"
                fill="#00C8B3" />
            <path
                d="M217.582 531.962L202.779 506.674L187.975 481.387L217.277 481.21L246.578 481.034L232.078 506.498L217.582 531.962Z"
                fill="#00C8B3" />
            <path
                d="M218.563 472.308C227.847 472.308 235.374 464.781 235.374 455.496C235.374 446.212 227.847 438.685 218.563 438.685C209.278 438.685 201.751 446.212 201.751 455.496C201.751 464.781 209.278 472.308 218.563 472.308Z"
                fill="white" />
            <path
                d="M217.103 343.241C217.103 343.241 207.077 340.416 204.111 354.114C201.146 367.813 203.029 366.087 203.029 366.087L225.412 363.474C225.412 363.474 232.142 347.406 217.103 343.241Z"
                fill="#090814" />
            <path
                d="M202.522 403.334C202.522 403.334 187.395 404.034 190.015 409.972C190.2 410.391 190.372 410.784 190.532 411.151C192.404 415.452 194.56 419.624 196.984 423.639L206.281 439.043L209.664 437.164L200.143 412.416L208.701 411.718L202.522 403.334Z"
                fill="#FFB6B6" />
            <path
                d="M220.456 360.068C220.456 360.068 221.853 367.403 223.076 368.45C224.298 369.498 213.82 371.07 213.82 371.07C213.82 371.07 215.392 366.006 213.471 363.386C211.55 360.767 220.456 360.068 220.456 360.068Z"
                fill="#FFB9B9" />
            <path
                d="M242.405 409.622L247.295 420.275C247.295 420.275 250.962 423.942 254.979 438.612C258.995 453.281 259.868 452.757 259.868 452.757L255.898 454.079L239.611 424.467L231.578 414.338L234.021 408.925L242.405 409.622Z"
                fill="#FFB6B6" />
            <path
                d="M236.468 397.398L243.494 410.476C243.494 410.476 256.373 436.194 254.727 436.09C252.876 435.973 248.579 438.151 246.983 440.245C246.213 441.256 237.105 422.127 233.151 416.608L224.591 409.972C224.591 409.972 200.295 414.061 200.266 412.731C200.251 412.08 206.022 423.961 204.369 423.269C202.485 422.48 198.9 426.825 196.946 426.03C196.14 425.703 191.884 415.132 189.579 409.473C189.289 408.767 189.274 407.978 189.537 407.261C189.799 406.544 190.319 405.951 190.996 405.597C192.729 404.695 216.805 399.199 216.805 399.199L216.384 397.048L218.131 393.556L236.468 397.398Z"
                fill="#090814" />
            <path
                d="M222.059 358.846C222.662 355.133 220.14 351.635 216.428 351.033C212.715 350.43 209.216 352.952 208.614 356.664C208.011 360.377 210.533 363.876 214.246 364.478C217.959 365.081 221.457 362.559 222.059 358.846Z"
                fill="#FFB6B6" />
            <path
                d="M237.103 398.447C237.479 399.575 235.044 400.223 231.649 399.589C228.712 399.041 225.497 398.389 222.961 397.862C220.246 397.296 218.305 396.874 218.305 396.874C218.305 396.874 217.607 401.239 215.336 400.715C213.381 400.264 207.535 379.849 205.954 374.206C205.839 373.794 205.861 373.356 206.018 372.958C206.174 372.559 206.457 372.223 206.822 372.001L214.85 367.099C214.85 367.099 220.382 365.199 222.399 365.144C224.416 365.09 227.909 364.566 227.909 364.566C227.909 364.566 231.925 364.915 232.624 367.884C233.323 370.853 236.238 388.455 236.291 392.682C236.352 397.319 235.976 395.064 237.103 398.447Z"
                fill="#D6D6E3" />
            <path d="M217.883 349.008C217.883 349.008 215.059 356.492 208.139 359.599L207.01 352.96L217.883 349.008Z"
                fill="#2F2E41" />
            <path
                d="M221.973 356.97C222.503 356.97 222.933 356.149 222.933 355.137C222.933 354.124 222.503 353.303 221.973 353.303C221.442 353.303 221.012 354.124 221.012 355.137C221.012 356.149 221.442 356.97 221.973 356.97Z"
                fill="#FFB6B6" />
            <path
                d="M220.444 414.769C220.779 414.395 221.028 413.952 221.173 413.472C221.319 412.991 221.357 412.485 221.285 411.988C221.214 411.491 221.034 411.016 220.759 410.596C220.483 410.176 220.12 409.821 219.693 409.557L213.619 378.875L206.644 381.544L214.808 410.863C214.41 411.61 214.3 412.477 214.499 413.3C214.699 414.123 215.193 414.843 215.889 415.325C216.585 415.807 217.433 416.017 218.274 415.914C219.114 415.811 219.887 415.404 220.446 414.768L220.444 414.769Z"
                fill="#FFB6B6" />
            <path
                d="M215.157 384.046L207.498 385.395C207.28 385.433 207.056 385.424 206.842 385.368C206.628 385.312 206.429 385.211 206.258 385.071C206.086 384.931 205.947 384.756 205.849 384.557C205.752 384.359 205.698 384.142 205.692 383.921L205.48 376.17C205.385 375.617 205.399 375.05 205.522 374.502C205.645 373.954 205.875 373.436 206.199 372.977C206.522 372.518 206.933 372.127 207.408 371.827C207.882 371.527 208.411 371.323 208.965 371.227C209.518 371.131 210.085 371.146 210.633 371.269C211.181 371.392 211.699 371.622 212.158 371.946C212.617 372.269 213.008 372.68 213.308 373.155C213.608 373.629 213.812 374.158 213.908 374.712L216.351 382.043C216.421 382.253 216.444 382.476 216.42 382.696C216.396 382.916 216.325 383.128 216.212 383.318C216.099 383.508 215.946 383.671 215.764 383.797C215.581 383.922 215.374 384.007 215.157 384.046Z"
                fill="#D6D6E3" />
            <path
                d="M226.317 414.23C226.754 413.983 227.131 413.644 227.423 413.235C227.715 412.826 227.913 412.359 228.005 411.865C228.096 411.372 228.078 410.864 227.952 410.378C227.826 409.892 227.596 409.44 227.276 409.053L231.361 378.042L223.899 378.333L222.229 408.723C221.614 409.303 221.232 410.089 221.157 410.931C221.082 411.774 221.319 412.615 221.824 413.294C222.328 413.974 223.064 414.444 223.892 414.617C224.72 414.789 225.583 414.652 226.317 414.23Z"
                fill="#FFB6B6" />
            <path
                d="M231.159 383.433L223.472 382.255C223.254 382.221 223.045 382.14 222.86 382.019C222.675 381.897 222.519 381.737 222.402 381.55C222.284 381.362 222.208 381.152 222.179 380.933C222.151 380.713 222.169 380.49 222.234 380.279L224.519 372.87C224.694 371.75 225.307 370.745 226.224 370.076C227.14 369.408 228.284 369.13 229.404 369.305C230.525 369.481 231.53 370.094 232.199 371.01C232.867 371.926 233.144 373.07 232.969 374.191L232.932 381.919C232.93 382.14 232.881 382.358 232.788 382.559C232.695 382.759 232.56 382.937 232.391 383.081C232.223 383.225 232.026 383.33 231.813 383.391C231.601 383.452 231.377 383.466 231.159 383.433H231.159Z"
                fill="#D6D6E3" />
            <path
                d="M207.299 438.5C207.299 438.5 204.31 436.744 203.992 439.903L203.357 446.222C203.357 446.222 198.906 451.136 202.727 451.173C206.547 451.21 211.903 444.058 211.903 444.058C211.903 444.058 215.79 438.505 214.377 437.934C212.963 437.363 208.869 434.614 208.96 435.746C209.051 436.877 207.299 438.5 207.299 438.5Z"
                fill="#090814" />
            <path
                d="M259.879 452.026C259.879 452.026 255.884 450.999 254.971 452.596C254.058 454.194 254.287 459.443 254.287 459.557C254.287 459.671 255.656 460.814 256.115 460.814C256.573 460.814 259.422 465.95 263.304 464.122C267.186 462.294 259.879 452.026 259.879 452.026Z"
                fill="#090814" />
        </g>
    </g>
    <ellipse cx="196.5" cy="972.5" rx="412.5" ry="418.5"  />
    <defs>
        <clipPath id="clip0_254_1196">
            <rect width="550.693" height="620"  transform="translate(-79 -17)" />
        </clipPath>
        <clipPath id="clip1_254_1196">
            <rect width="421" height="620"  transform="translate(-2.31201 -17)" />
        </clipPath>
    </defs>
</svg>