<svg width="393" height="852" viewBox="0 0 393 852" fill="none" xmlns="http://www.w3.org/2000/svg">
    <g clip-path="url(#clip0_254_1195)">
        <rect width="761.059" height="614" transform="translate(-184 -7)" fill="#6FE2D6" />
        <path fill-rule="evenodd" clip-rule="evenodd"
            d="M-183.703 -6.96497L-184 353.626V603.96C-184 603.96 -176.825 599.266 -169.73 594.509C-162.635 589.753 -156.134 585.353 -155.262 584.758C-154.39 584.124 -149.316 580.715 -143.965 577.148C-138.614 573.58 -130.607 568.15 -126.128 565.137C-121.649 562.125 -113.919 556.853 -108.925 553.523C-103.93 550.154 -92.7522 542.623 -84.1507 536.796C-75.5095 530.969 -61.9531 521.812 -53.9858 516.461C-46.0185 511.07 -32.8981 502.231 -24.8515 496.801C3.45035 477.734 18.949 467.31 20.0589 466.596C21.8822 465.486 26.8767 464.971 31.2369 465.447C35.6764 465.922 34.8837 466.239 43.0492 460.809C46.3392 458.629 50.858 455.656 53.0777 454.189C55.3371 452.723 60.8072 449.155 65.1675 446.262C70.7565 442.536 73.7294 440.831 75.0771 440.514C78.05 439.8 78.3671 439.642 84.511 435.757L90.2586 432.111L88.9902 430.327C86.0173 426.204 85.2246 425.491 83.4408 425.491C78.922 425.451 72.8177 423.113 70.5583 420.576C69.9637 419.902 68.2593 417.207 66.7927 414.59C62.591 407.099 59.301 402.857 52.166 395.564C45.1104 388.31 44.3176 387.081 44.3176 383.712C44.3176 379.748 48.1626 374.476 52.721 372.217C54.5047 371.305 55.2578 371.186 58.746 371.186C71.5096 371.186 82.8462 378.4 87.7218 389.618L88.9109 392.432L91.2892 391.679C100.525 388.865 114.914 389.182 125.18 392.432C134.059 395.207 138.578 398.418 150.747 410.666C155.979 415.938 161.013 420.774 161.925 421.487C165.294 424.024 169.694 425.491 176.274 426.244L179.643 426.601L188.007 418.634C200.216 406.94 210.125 398.894 216.349 395.604C217.776 394.85 220.63 393.661 222.691 392.948C226.139 391.759 226.892 391.64 231.213 391.6C235.811 391.6 236.089 391.64 238.625 392.908C241.4 394.256 244.69 397.467 245.126 399.211C245.443 400.4 241.479 406.346 236.525 412.172L232.838 416.493L235.613 416.255C237.119 416.097 238.388 415.859 238.467 415.661C238.863 414.471 242.193 410.032 244.888 407.178C248.297 403.492 252.023 400.281 257.85 395.921C260.109 394.177 262.171 392.234 263.36 390.609C267.522 385.099 274.696 378.836 280.603 375.626C282.109 374.793 283.694 373.565 284.368 372.653C286.429 369.918 293.089 363.734 296.062 361.832C302.959 357.352 309.658 356.599 312.948 359.889C314.057 360.999 314.256 361.475 314.256 363.14C314.256 366.43 311.204 371.781 306.13 377.449C305.139 378.559 304.346 379.51 304.346 379.629C304.346 379.709 304.901 380.026 305.535 380.303C306.923 380.898 307.914 382.087 307.914 383.276C307.914 384.862 302.404 395.762 299.352 400.202C295.507 405.83 287.856 415.819 276.718 429.851C267.205 441.822 264.866 444.161 257.176 449.195C254.679 450.82 251.389 453.198 249.843 454.427C242.867 460.135 240.052 461.364 226.655 464.535C220.59 465.962 215.754 467.508 214.129 468.538C212.702 469.41 209.214 470.243 205.052 470.679C198.868 471.313 197.203 471.789 194.468 473.533C190.227 476.307 189.038 476.625 179.326 477.259C168.584 478.012 159.547 477.536 152.214 475.911L150.549 475.515L148.091 478.329C146.704 479.875 144.048 482.808 142.145 484.869C139.529 487.684 138.657 488.913 138.657 489.705C138.657 491.648 137.032 494.581 132.791 500.17C130.492 503.182 128.074 506.433 127.4 507.344C126.726 508.296 123.753 512.26 120.82 516.144C114.28 524.706 114.081 525.023 114.081 526.569C114.081 528.392 113.249 530.097 109.127 536.518C107.065 539.729 105.361 542.464 105.361 542.623C105.361 542.781 104.211 544.525 102.824 546.507C101.476 548.529 98.7413 552.651 96.8386 555.703C94.8963 558.755 91.6856 563.75 89.7037 566.802C87.7218 569.854 85.1056 573.858 83.9561 575.721C82.8066 577.584 80.3886 581.31 78.6049 584.045C76.8212 586.78 74.324 590.704 73.0555 592.765C71.7475 594.826 69.2502 598.79 67.4269 601.525C65.6035 604.26 63.9655 606.916 63.9655 607.035H577.059V359.889C577.059 223.969 576.94 112.743 576.821 112.743C576.583 112.743 569.012 117.223 542.97 132.761C478.67 171.176 478.667 171.176 476.765 171.132L476.694 171.131C473.602 171.091 469.163 168.713 464.842 164.749L462.702 162.807L449.027 168.118C436.58 172.954 435.193 173.43 433.449 173.232C431.031 172.954 428.375 171.527 424.807 168.515L421.993 166.176L419.773 166.612C418.544 166.89 413.59 168.039 408.793 169.189C402.491 170.695 399.914 171.171 399.439 170.893C398.765 170.497 398.408 170.576 376.092 176.799C371.058 178.165 364.794 179.915 362.029 180.688L362.001 180.696L361.901 180.723C357.065 182.071 356.986 182.111 353.775 184.885C338.594 198.164 313.621 206.409 288.887 206.37C277.075 206.37 271.724 205.379 258.365 200.78C251.112 198.283 242.867 196.064 225.664 191.981C205.408 187.185 199.978 185.084 196.926 180.842C194.468 177.473 195.657 174.817 200.612 172.439C204.021 170.814 206.915 170.021 212.107 169.387C219.44 168.515 233.036 170.417 245.602 174.143C247.148 174.619 247.148 174.579 245.879 170.774C242.787 161.618 237.278 154.879 230.024 151.391C225.941 149.449 218.648 147.546 211.116 146.515C207.192 146 203.109 145.842 190.385 145.881C176.591 145.881 172.588 146.04 159.467 147.031C124.863 149.726 101.714 148.022 88.7524 141.798C85.5813 140.292 82.212 137.28 80.9832 134.901C80.0319 133.118 79.9922 130.62 80.9039 129.273C81.2607 128.678 82.3309 127.846 83.203 127.41C84.511 126.736 84.7885 126.379 84.7489 125.507C84.5507 122.812 84.7885 122.138 86.2551 120.671C88.3163 118.61 90.8136 117.936 98.226 117.5C104.251 117.143 108.928 116.351 114.874 114.725C116.499 114.25 118.997 113.655 120.423 113.338C121.85 113.021 123.793 112.506 124.784 112.149C125.775 111.792 127.876 111.237 129.501 110.92C131.086 110.603 132.711 110.167 133.068 109.969C133.425 109.771 135.407 109.136 137.468 108.581C139.529 108.026 142.938 107.115 144.999 106.56C147.061 106.005 149.478 105.371 150.351 105.173C151.183 104.935 152.134 104.578 152.412 104.38C152.689 104.142 153.086 104.063 153.284 104.182C153.482 104.34 155.345 104.023 157.367 103.547C160.538 102.794 162.123 102.675 168.584 102.675C173.301 102.715 177.661 102.953 180.238 103.349C184.301 103.968 184.398 103.945 188.455 102.985L188.76 102.913C192.367 102.081 194.151 101.883 198.511 101.883C203.268 101.883 204.457 102.001 209.016 103.151C214.089 104.419 231.015 109.929 232.878 110.92C233.71 111.316 234.463 111.277 237.476 110.722C247.544 108.78 256.82 108.7 262.726 110.524C269.068 112.466 272.635 113.18 285.914 115.122C293.287 116.192 301.135 116.985 309.103 117.5C312.71 117.698 318.774 118.095 322.58 118.333C331.816 118.887 348.86 118.531 352.784 117.659C359.998 116.073 370.899 111.99 370.78 110.92C370.74 110.563 373.158 108.899 376.964 106.679C380.412 104.657 383.663 102.556 383.663 102.556L404.374 89.9016L412.574 84.7764C412.574 84.7764 415.401 82.7347 417.7 81.1888C421.505 78.5726 422.271 77.9409 422.548 76.4743C423.182 73.3429 424.054 72.0744 427.661 69.1412C429.604 67.5953 520.716 -6.88551 520.716 -6.96478C520.716 -7.04406 364.91 -6.96497 361.322 -6.96497H18.1959H-48.2382C-106.586 -6.96497 -89.4407 -6.96747 -115.835 -6.96478C-115.835 -6.96478 -116.892 -6.92533 -126.683 -6.96497H-183.703ZM47.8851 139.063C48.4004 138.548 45.9824 135.972 26.9956 117.064C15.223 105.331 5.39263 95.6989 5.19443 95.6989C4.99624 95.6989 4.59986 95.9367 4.32239 96.1746C3.92601 96.6106 8.16732 100.971 25.5686 118.174C44.7536 137.081 47.3698 139.539 47.8851 139.063ZM145.316 249.893C145.079 249.893 71.6285 198.363 23.7849 164.591C18.2751 160.706 13.6771 157.535 13.5582 157.535C13.4393 157.535 13.3996 157.694 13.4789 157.892C13.5582 158.09 26.0839 167.048 41.3447 177.79C56.1698 188.226 82.2545 206.554 100.23 219.184L100.334 219.257L100.399 219.303L101.793 220.283C119.789 232.927 136.834 244.938 139.727 246.999L144.96 250.685L143.572 252.786C141.432 255.918 138.023 263.132 136.715 267.215C133.861 275.975 132.87 285.448 133.901 294.248C134.099 296.111 134.218 297.657 134.138 297.776C134.059 297.855 124.625 299.52 113.249 301.502C101.833 303.484 92.3991 305.149 92.3198 305.228C91.6063 305.862 95.0549 305.347 113.051 302.215L115.062 301.87C125.446 300.084 133.798 298.648 134.059 298.648C134.337 298.648 134.733 299.718 135.05 301.105C136.437 307.963 140.124 316.446 144.643 323.184C147.417 327.386 153.323 333.768 157.565 337.097L160.379 339.396L155.543 346.254C153.147 349.687 147.267 358.023 141.89 365.647L141.881 365.66L141.839 365.719L141.786 365.795L140.163 368.094C134.337 376.339 129.739 383.157 129.897 383.236C130.056 383.355 131.086 382.166 132.157 380.581C137.111 373.406 160.538 340.268 160.775 340.11C160.934 340.03 162.401 340.744 164.026 341.735C172.667 347.046 182.775 350.297 192.566 350.891L196.728 351.169L196.926 374.754L197.124 398.339L198.075 398.458L199.027 398.616L198.868 374.873L198.71 351.169L202.673 350.891C213.257 350.178 224.554 346.174 233.829 339.832C238.031 336.939 244.611 330.795 247.465 327.069C248.575 325.642 249.526 324.452 249.645 324.452C249.764 324.452 258.841 330.755 269.821 338.485C280.84 346.214 289.918 352.437 290.037 352.358C290.314 352.041 290.869 352.477 269.861 337.692C259.079 330.121 250.2 323.898 250.121 323.818C250.041 323.779 250.834 322.431 251.865 320.845C258.841 310.024 262.448 295.12 261.18 282C260.942 279.106 260.783 276.688 260.823 276.609C260.902 276.569 271.922 274.627 285.32 272.288C307.993 268.364 312.987 267.413 310.292 267.373C309.737 267.373 298.321 269.276 284.923 271.615L260.585 275.895L259.475 271.535C255.987 258.098 248.416 246.167 237.952 237.684C236.208 236.257 234.82 234.949 234.899 234.751C234.939 234.592 238.824 228.924 243.541 222.225C248.258 215.526 252.459 209.58 252.895 208.946C253.331 208.351 253.49 207.876 253.292 207.876C253.094 207.876 248.773 213.742 243.739 220.957C238.665 228.131 234.344 234.116 234.146 234.235C233.948 234.394 232.481 233.68 230.896 232.69C224.99 229.003 217.657 226.11 210.205 224.524C205.527 223.533 194.27 223.018 189.989 223.652C188.483 223.85 187.095 223.929 186.977 223.771C186.818 223.652 185.589 217.112 184.241 209.263C182.894 201.415 181.705 194.914 181.625 194.835C181.031 194.201 181.348 196.579 183.449 208.51C184.717 215.883 185.827 222.463 185.906 223.097C186.025 224.247 185.946 224.286 183.528 224.801C175.759 226.387 166.047 230.866 159.23 235.979C155.147 239.071 148.488 245.612 146.585 248.426C146.03 249.219 145.475 249.893 145.316 249.893ZM144.682 234.949C145.277 234.434 143.097 232.135 120.305 209.541C117.737 206.995 115.357 204.636 113.153 202.45C87.8471 177.358 85.5439 175.074 85.0478 175.416C84.9981 175.45 84.9666 175.51 84.9319 175.577C84.9127 175.614 84.8925 175.652 84.8678 175.689C84.4714 176.284 88.3163 180.248 114.2 205.934C141.313 232.848 144.088 235.464 144.682 234.949ZM198.115 212.632L198.036 203.595C197.917 194.597 197.917 194.597 197.045 194.478L196.133 194.359V203.476V212.632H197.124H198.115ZM272.635 212.355C272.635 212.117 272.358 211.8 272.001 211.681C271.865 211.636 271.734 211.59 271.623 211.551C271.589 211.54 271.557 211.528 271.527 211.518C271.397 211.473 271.307 211.443 271.288 211.443C271.208 211.443 267.046 215.645 252.261 230.747C248.337 234.751 247.94 235.266 248.495 235.821C249.011 236.336 250.358 235.147 260.863 224.603C267.324 218.063 272.635 212.553 272.635 212.355ZM377.321 259.406C371.93 254.134 365.984 251.24 358.651 250.329C355.361 249.893 354.092 249.853 351.714 250.17C338.158 251.756 327.852 260.238 323.769 273.081C322.659 276.609 322.263 283.546 322.976 287.827C325.037 300.788 335.304 311.293 348.503 313.948C352.824 314.82 359.721 314.543 363.804 313.314C372.683 310.658 379.62 304.792 383.623 296.468C386.556 290.403 387.508 285.052 386.794 278.749C385.922 271.178 382.791 264.797 377.321 259.406ZM65.1278 262.062C60.9658 257.028 54.7822 253.103 48.4004 251.438C44.7933 250.527 38.7682 250.17 35.399 250.685C27.8676 251.875 21.8823 255.125 16.3329 261.11C4.04494 274.231 5.55122 295.794 19.504 307.408C22.675 310.024 28.1848 312.918 32.0297 313.988C36.0728 315.058 44.714 314.979 48.8761 313.79C54.3462 312.204 58.6668 309.667 62.7892 305.585C67.744 300.709 70.5186 295.635 71.9456 288.976C72.6591 285.528 72.4213 277.798 71.47 274.27C70.5187 270.663 67.5854 265.034 65.1278 262.062ZM469.123 286.598C469.203 286.519 469.163 286.162 469.004 285.805C468.766 285.21 466.23 285.171 438.958 285.171C422.548 285.171 408.992 285.29 408.873 285.448C408.714 285.567 408.595 286.043 408.595 286.479C408.595 287.272 408.793 287.272 438.8 286.994C455.408 286.836 469.084 286.677 469.123 286.598ZM292.256 287.549C309.618 287.549 309.895 287.549 309.895 286.756C309.895 285.964 309.618 285.964 292.258 285.964H292.256H292.254C274.895 285.964 274.617 285.964 274.617 286.756C274.617 287.549 274.895 287.549 292.256 287.549ZM107.858 288.461C116.222 288.223 116.856 288.183 116.856 287.47C116.856 286.796 116.103 286.756 100.208 286.756H83.5597V287.747V288.738H91.21C95.4513 288.738 102.943 288.619 107.858 288.461ZM-1.26663 289.135V288.144V287.153L-17.9941 287.232C-27.2298 287.311 -43.6402 287.391 -54.5011 287.43L-74.2411 287.549L-74.1221 288.461C-74.0429 288.936 -73.7654 289.333 -73.4879 289.293C-73.2501 289.254 -56.8794 289.214 -37.1394 289.174L-1.26663 289.135ZM-42.451 329.169C-41.3411 329.169 4.5206 321.202 5.27373 320.845C7.17638 320.013 2.57831 320.727 -19.3814 324.532C-39.2799 328.02 -44.9482 329.169 -42.451 329.169ZM125.695 360.88C144.999 341.418 148.091 338.128 147.576 337.652C147.298 337.335 146.942 337.097 146.862 337.097C146.783 337.097 136.636 347.284 124.387 359.731C104.489 379.867 102.111 382.404 102.665 382.919C103.181 383.435 105.718 381.056 125.695 360.88ZM278.185 367.896C278.502 367.857 278.819 367.54 278.898 367.183C278.938 366.826 272.992 360.722 264.153 352.041C251.31 339.436 249.249 337.573 248.813 338.128C248.377 338.643 250.319 340.744 262.963 353.389C271.208 361.633 277.868 367.976 278.185 367.896ZM396.862 427.116C396.664 426.918 381.364 416.136 362.892 403.135C334.313 383.038 326.504 377.727 328.763 379.867C329.873 380.937 396.862 427.83 397.06 427.671C397.14 427.552 397.06 427.314 396.862 427.116ZM390.362 478.329C390.877 477.814 387.349 474.167 356.669 443.685C337.801 424.976 322.302 409.675 322.183 409.675C322.064 409.675 321.787 409.913 321.509 410.191C321.073 410.706 332.212 422.042 375.299 464.654C388.261 477.457 389.846 478.884 390.362 478.329ZM42.415 444.914C45.6204 441.662 49.2614 437.974 52.2771 434.92C54.4078 432.762 56.2263 430.921 57.3587 429.772C61.8775 425.174 62.2738 424.659 61.7189 424.104C61.164 423.549 59.6974 424.896 46.141 438.611C32.3072 452.604 31.2369 453.793 31.8315 454.387C32.4261 454.982 33.2189 454.268 42.415 444.914ZM235.97 505.759C235.785 504.743 235.304 502.032 234.708 498.668C234.705 498.653 234.702 498.637 234.699 498.621C234.274 496.222 233.791 493.495 233.314 490.815C232.164 484.354 231.054 478.924 230.896 478.765C230.42 478.289 230.539 479.003 232.6 491.053C232.976 493.277 233.366 495.578 233.729 497.723C233.737 497.769 233.745 497.815 233.752 497.861C233.753 497.866 233.754 497.872 233.755 497.877C233.762 497.916 233.768 497.955 233.775 497.994C234.429 501.853 234.99 505.168 235.217 506.552C236.089 512.061 238.507 525.776 238.744 526.847C239.101 528.313 239.854 527.956 239.616 526.45C239.299 524.508 236.604 509.326 235.97 505.759ZM199.502 527.243C199.423 510 199.344 494.105 199.304 491.965C199.304 488.477 199.225 488.12 198.551 488.12C198.075 488.12 197.758 488.476 197.6 489.19C197.481 489.824 197.441 499.932 197.52 511.705C197.639 523.477 197.719 538.857 197.719 545.873V558.676H198.67H199.661L199.502 527.243Z"
            fill="#222E36" />
        <path
            d="M350.129 251.799C341.606 253.226 333.956 258.141 329.001 265.395C323.016 274.155 322.302 286.245 327.178 295.957C336.493 314.428 360.593 318.828 375.537 304.836C380.056 300.634 383.068 295.679 384.654 289.852C385.724 285.968 385.645 278.357 384.495 274.235C383.464 270.628 381.165 266.109 378.748 263.017C375.299 258.498 368.957 254.336 363.011 252.632C359.721 251.68 353.339 251.284 350.129 251.799ZM356.669 264.88C356.669 266.783 356.709 266.862 357.977 267.1C361.307 267.853 364.438 270.628 365.548 273.878L366.103 275.582L364.279 275.979C363.249 276.177 362.416 276.336 362.416 276.296C362.416 276.256 361.941 275.305 361.386 274.235C360.553 272.649 359.919 272.015 358.215 271.143C356.391 270.152 355.757 270.033 353.973 270.192C350.168 270.588 347.592 273.046 348.147 275.899C348.503 277.881 350.644 279.229 355.916 280.735C362.813 282.717 364.993 284.144 365.825 287.276C367.213 292.429 364.161 297.463 358.849 298.652L356.669 299.128V301.07V302.973H354.885H353.101V301.03V299.088L351.437 298.692C349.058 298.057 346.165 296.155 344.976 294.331C344.024 292.904 343.033 290.288 343.311 290.011C343.39 289.931 344.262 289.773 345.253 289.654C346.918 289.416 347.076 289.456 347.314 290.407C348.345 294.609 354.964 296.948 359.364 294.688C361.307 293.697 362.218 292.468 362.496 290.368C362.654 289.059 362.535 288.623 361.425 287.395C360.316 286.126 359.483 285.73 354.528 284.144C347.988 282.083 346.482 281.251 345.293 278.793C342.914 274.116 345.372 268.923 350.802 267.258L352.903 266.624L353.022 264.761L353.141 262.938H354.925H356.669V264.88Z"
            fill="#222E36" />
        <path
            d="M356.669 264.88C356.669 266.783 356.709 266.862 357.977 267.1C361.307 267.853 364.438 270.628 365.548 273.878L366.103 275.582L364.279 275.979C363.249 276.177 362.416 276.336 362.416 276.296C362.416 276.256 361.941 275.305 361.386 274.235C360.553 272.649 359.919 272.015 358.215 271.143C356.391 270.152 355.757 270.033 353.973 270.192C350.168 270.588 347.592 273.046 348.147 275.899C348.503 277.881 350.644 279.229 355.916 280.735C362.813 282.717 364.993 284.144 365.825 287.276C367.213 292.429 364.161 297.463 358.849 298.652L356.669 299.128V301.07V302.973H354.885H353.101V301.03V299.088L351.437 298.692C349.058 298.057 346.165 296.155 344.976 294.331C344.024 292.904 343.033 290.288 343.311 290.011C343.39 289.931 344.262 289.773 345.253 289.654C346.918 289.416 347.076 289.456 347.314 290.407C348.345 294.609 354.964 296.948 359.364 294.688C361.307 293.697 362.218 292.468 362.496 290.368C362.654 289.059 362.535 288.623 361.425 287.395C360.316 286.126 359.483 285.73 354.528 284.144C347.988 282.083 346.482 281.251 345.293 278.793C342.914 274.116 345.372 268.923 350.802 267.258L352.903 266.624L353.022 264.761L353.141 262.938H354.925H356.669V264.88Z"
            fill="#00C8B3" />
        <path
            d="M33.8135 252.474C18.9491 255.764 8.60342 269.439 9.55474 284.462C9.87185 289.298 10.625 292.112 12.8844 296.631C14.4699 299.802 15.3816 300.991 18.5527 304.202C21.6445 307.294 22.9525 308.285 25.9651 309.831C30.9595 312.407 34.6063 313.279 40.1556 313.279C47.687 313.279 53.6724 311.218 59.5389 306.541C64.4937 302.616 68.0611 297.225 69.8449 290.923C71.1926 286.365 71.2719 279.705 70.0827 275.107C67.9422 266.625 61.7586 258.974 54.0687 255.209C52.0868 254.218 49.3914 253.147 48.0833 252.791C44.6744 251.879 37.262 251.72 33.8135 252.474ZM42.3358 264.207C42.0979 266.862 42.2565 267.179 44.1195 267.695C47.4888 268.646 50.4617 271.619 51.2544 274.909C51.5319 275.979 51.4922 276.019 48.9554 276.574C48.0041 276.812 47.8059 276.653 47.2509 275.226C46.1807 272.57 43.0493 270.469 40.1556 270.469C36.8657 270.469 33.6153 272.967 33.6153 275.424C33.6153 277.842 35.399 279.269 40.3538 280.775C47.6473 282.956 49.6689 284.026 50.8184 286.246C52.1661 288.941 51.8094 292.865 50.0256 295.481C48.9158 297.067 46.0618 298.811 43.842 299.207C42.415 299.485 42.3754 299.564 42.2565 301.308L42.1376 303.132L40.3538 303.171H38.5701L38.4512 301.308L38.3323 299.445L36.1125 298.811C33.3378 297.979 29.9686 294.847 29.2154 292.31C28.938 291.438 28.819 290.606 28.8983 290.487C29.0172 290.408 29.81 290.209 30.6424 290.091C32.2279 289.853 32.2279 289.853 33.2982 291.835C34.8441 294.689 37.262 295.997 40.7502 295.997C45.0312 295.957 47.8851 293.777 47.8851 290.527C47.8851 287.395 46.7753 286.642 38.6097 284.105C31.8316 282.004 30.0478 280.221 30.0478 275.543C30.0478 271.817 31.7126 269.479 35.3594 267.933C36.1918 267.576 37.2224 267.298 37.6188 267.298C38.253 267.298 38.3719 266.981 38.3719 265.316V263.335H40.3935C42.2168 263.335 42.3754 263.414 42.3358 264.207Z"
            fill="#222E36" />
        <path
            d="M42.3358 264.207C42.0979 266.862 42.2565 267.179 44.1195 267.695C47.4888 268.646 50.4617 271.619 51.2544 274.909C51.5319 275.979 51.4922 276.019 48.9554 276.574C48.0041 276.812 47.8059 276.653 47.2509 275.226C46.1807 272.57 43.0493 270.469 40.1556 270.469C36.8657 270.469 33.6153 272.967 33.6153 275.424C33.6153 277.842 35.399 279.269 40.3538 280.775C47.6473 282.956 49.6689 284.026 50.8184 286.246C52.1661 288.941 51.8094 292.865 50.0256 295.481C48.9158 297.067 46.0618 298.811 43.842 299.207C42.415 299.485 42.3754 299.564 42.2565 301.308L42.1376 303.132L40.3538 303.171H38.5701L38.4512 301.308L38.3323 299.445L36.1125 298.811C33.3378 297.979 29.9686 294.847 29.2154 292.31C28.938 291.438 28.819 290.606 28.8983 290.487C29.0172 290.408 29.81 290.209 30.6424 290.091C32.2279 289.853 32.2279 289.853 33.2982 291.835C34.8441 294.689 37.262 295.997 40.7502 295.997C45.0312 295.957 47.8851 293.777 47.8851 290.527C47.8851 287.395 46.7753 286.642 38.6097 284.105C31.8316 282.004 30.0478 280.221 30.0478 275.543C30.0478 271.817 31.7126 269.479 35.3594 267.933C36.1918 267.576 37.2224 267.298 37.6188 267.298C38.253 267.298 38.3719 266.981 38.3719 265.316V263.335H40.3935C42.2168 263.335 42.3754 263.414 42.3358 264.207Z"
            fill="#00C8B3" />
        <path
            d="M156.495 49.1673C156.495 49.3654 157.129 53.4086 157.961 58.1652L159.428 66.846L162.44 68.2334C173.777 73.426 195.142 80.7988 195.578 79.6492C195.657 79.4114 195.697 76.2403 195.657 72.6729L195.539 66.1325L192.367 65.0226C182.061 61.4948 168.901 55.6283 160.498 50.9113C156.772 48.8105 156.495 48.6916 156.495 49.1673Z"
            fill="#222E36" />
        <path
            d="M387.072 102.759C382.355 105.533 378.391 107.912 378.232 108.07C378.074 108.189 379.104 109.537 380.531 111.043C381.919 112.549 384.099 115.047 385.328 116.593C387.666 119.486 388.578 120.239 389.846 120.239C390.401 120.239 408.556 111.876 409.349 111.241C409.428 111.202 408.516 109.854 407.287 108.268C404.473 104.542 399.32 99.5876 397.259 98.5174L395.673 97.685L387.072 102.759Z"
            fill="#222E36" />
        <path
            d="M374.585 109.775L372.841 110.805L376.171 114.254C378.034 116.117 380.848 119.367 382.513 121.428C386.12 125.987 386.358 126.185 388.3 126.462C389.648 126.661 391.115 126.066 401.183 121.191C407.446 118.218 412.559 115.641 412.559 115.483C412.559 115.364 412.044 114.65 411.41 113.897L410.3 112.549L400.826 117.028C388.419 122.935 388.142 122.935 383.9 117.346C382.672 115.76 380.492 113.184 378.985 111.598L376.29 108.704L374.585 109.775Z"
            fill="#222E36" />
        <path
            d="M402.451 122.261C396.585 125.075 391.115 127.612 390.322 127.85L388.855 128.286L391.947 134.588C398.289 147.471 402.015 160.551 401.341 167.29C401.222 168.44 401.183 169.391 401.302 169.391C401.619 169.391 434.955 161.424 435.074 161.305C435.272 161.067 432.458 152.862 430.793 148.977C428.652 143.943 423.222 133.042 420.289 127.929C417.117 122.419 413.709 117.068 413.431 117.108C413.273 117.108 408.357 119.407 402.451 122.261Z"
            fill="#222E36" />
        <path
            d="M66.9117 446.861C65.7226 447.733 57.5967 453.084 48.8762 458.792C40.1558 464.5 30.484 470.842 27.3922 472.903C24.2607 474.925 21.7239 476.827 21.7239 477.145C21.7239 477.422 22.5563 479.047 23.6265 480.791C33.5758 497.321 57.0418 517.14 77.9312 526.653C81.9347 528.476 88.2769 530.617 92.2804 531.529C95.4118 532.242 104.33 532.519 106.154 531.965C106.867 531.766 110.673 526.97 119.116 515.713C125.696 506.953 131.641 499.025 132.355 498.074L133.584 496.369L131.879 496.686C123.515 498.193 112.337 494.07 100.129 485.033C84.3527 473.339 70.6774 456.295 69.7657 447.138C69.6864 446.108 69.4882 445.275 69.3297 445.315C69.2108 445.315 68.1009 446.028 66.9117 446.861Z"
            fill="#0A9183" />
        <path
            d="M16.7689 470.604C15.8968 471.199 8.84118 475.916 1.11168 481.148C-6.61782 486.34 -20.9669 496.052 -30.7973 502.672C-40.588 509.291 -53.2723 517.853 -58.9406 521.658C-64.6089 525.464 -76.4608 533.471 -85.3002 539.416C-94.1396 545.362 -105.437 553.012 -110.471 556.382C-115.465 559.751 -131.003 570.215 -144.956 579.649C-158.909 589.083 -173.417 598.834 -177.143 601.371C-180.908 603.869 -184 607 -184 607C-184 607 -162.595 607 -60.9622 607H62.0757L71.5096 592.215C76.7023 584.129 82.6481 574.853 84.7489 571.642C86.8101 568.432 90.8136 562.169 93.6279 557.769C96.4819 553.329 101.238 545.917 104.251 541.24C107.264 536.562 109.681 532.717 109.642 532.638C109.563 532.599 108.532 532.797 107.343 533.114C104.053 534.026 96.9179 533.907 92.0424 532.916C75.9491 529.626 55.4561 517.417 38.4908 501.046C26.4407 489.393 19.4643 479.126 18.6319 471.754L18.3544 469.494L16.7689 470.604ZM9.0394 495.18C11.1402 496.29 12.2105 498.113 12.2105 500.571C12.2105 506.834 4.32241 509.133 0.794586 503.9C-0.394568 502.156 -0.315299 498.787 1.03241 496.924C2.73686 494.546 6.34398 493.713 9.0394 495.18ZM-11.1762 507.983C-9.03575 509.093 -7.92587 510.837 -7.92587 513.215C-7.92587 517.06 -10.4231 519.558 -14.2284 519.558C-16.5671 519.558 -17.9148 518.804 -19.3814 516.624C-21.3237 513.85 -20.0949 509.45 -16.9635 507.904C-14.8626 506.873 -13.3563 506.913 -11.1762 507.983Z"
            fill="#344C5B" />
        <path fill-rule="evenodd" clip-rule="evenodd"
            d="M177.076 283.109L197.583 274.464L217.459 283.329L197.551 251.938L177.076 283.109ZM177.139 292.7L197.614 304.562L218.5 292.7L197.804 321.504L177.139 292.7Z"
            fill="#222E36" />
        <path fill-rule="evenodd" clip-rule="evenodd"
            d="M197.678 278.692L176.319 287.684L197.678 299.546L218.437 287.936L197.678 278.692Z" fill="#222E36" />
    </g>
    <circle cx="197.5" cy="962.5" r="412.5"  />
    <defs>
        <clipPath id="clip0_254_1195">
            <rect width="761.059" height="614" transform="translate(-184 -7)" />
        </clipPath>
    </defs>
</svg>