<svg width="340" height="470" viewBox="0 0 340 470" fill="none" xmlns="http://www.w3.org/2000/svg">
<g clip-path="url(#clip0_195_4272)">
<path opacity="0.1" d="M326 388.864C326.006 394.047 325.379 399.211 324.133 404.242C323.714 405.937 323.228 407.597 322.673 409.222C321.995 411.227 321.209 413.195 320.318 415.115C319.869 416.087 319.395 417.039 318.895 417.972C318.903 423.287 317.809 428.546 315.681 433.417C311.836 442.155 304.978 449.221 296.358 453.326C290.969 455.897 285.079 457.249 279.108 457.286H74.0385C64.9145 457.306 55.9481 454.909 48.0509 450.339L47.9295 450.271C46.8046 449.612 45.708 448.915 44.6394 448.179C42.2353 446.519 39.9767 444.657 37.8878 442.613C35.0605 439.85 32.5691 436.763 30.4654 433.417C25.5245 425.571 22.9071 416.487 22.9163 407.215C17.9126 398.436 14.9949 387.919 14.9949 376.617C14.9949 362.359 19.6315 349.352 27.2493 339.506C28.8375 337.448 30.5771 335.513 32.4537 333.715C34.3053 331.936 36.2954 330.307 38.4053 328.843C40.0934 327.671 41.8576 326.613 43.6862 325.675C44.4493 325.287 45.2151 324.92 45.994 324.579C46.6779 324.275 47.3697 323.993 48.0694 323.726C48.9091 323.407 49.7593 323.114 50.6201 322.847C51.4809 322.579 52.3303 322.345 53.1682 322.144C54.4004 321.843 55.6537 321.599 56.9282 321.41C57.9844 321.255 59.0406 321.146 60.0968 321.064C60.9364 321.001 61.784 320.967 62.6369 320.956H63.099C64.039 320.956 64.9737 320.993 65.9005 321.057C65.9982 320.861 66.1038 320.663 66.2015 320.47C66.5712 319.765 66.9541 319.063 67.3396 318.376C67.3387 318.37 67.3387 318.364 67.3396 318.358C67.4056 318.237 67.4716 318.118 67.5403 318.002C67.8518 317.439 68.1766 316.882 68.5093 316.33C68.6625 316.066 68.813 315.818 68.9688 315.57C69.0017 315.508 69.0378 315.448 69.077 315.39C69.2354 315.126 69.3965 314.862 69.5602 314.598C70.3752 313.295 71.2228 312.016 72.103 310.759L72.3274 310.437C72.4647 310.241 72.5915 310.051 72.7446 309.856C73.109 309.346 73.484 308.834 73.8615 308.332C74.1256 307.973 74.3896 307.617 74.6748 307.276C75.3613 306.396 76.0655 305.516 76.7872 304.635C77.5089 303.755 78.2588 302.887 79.0369 302.029C79.1425 301.911 79.2481 301.794 79.359 301.678L80.4865 300.448C80.5419 300.39 80.5895 300.337 80.6423 300.284C80.7769 300.139 80.9063 299.994 81.0516 299.854C81.6562 299.212 82.2767 298.584 82.8999 297.958C86.0712 294.799 89.4497 291.855 93.0129 289.146C93.1528 289.036 93.2954 288.93 93.4354 288.824C94.106 288.32 94.7873 287.821 95.4685 287.33C99.2156 284.642 103.133 282.199 107.195 280.016C107.475 279.855 107.76 279.704 108.048 279.556C111.69 277.63 115.435 275.905 119.267 274.392C121.356 273.565 123.492 272.789 125.641 272.078C127.072 271.608 128.509 271.162 129.964 270.742C132.238 270.088 134.528 269.5 136.834 268.981C143.628 267.457 150.539 266.515 157.493 266.166C159.606 266.059 161.742 266.004 163.902 266C174.324 265.986 184.705 267.299 194.795 269.908C194.899 270.066 195.042 270.194 195.21 270.281C195.378 270.369 195.565 270.412 195.754 270.407H196.641C197.026 270.513 197.409 270.618 197.795 270.729C199.948 271.349 202.07 272.026 204.161 272.76L204.689 272.95C209.851 274.785 214.873 276.991 219.716 279.551C224.082 281.853 228.286 284.45 232.298 287.325C232.916 287.768 233.525 288.215 234.125 288.666C234.854 288.199 235.595 287.752 236.348 287.325C239.258 285.667 242.348 284.35 245.558 283.398C252.27 281.412 259.371 281.134 266.217 282.59C274.997 284.452 282.945 289.073 289.364 295.645C291.977 298.334 294.304 301.288 296.305 304.459C296.451 304.686 296.596 304.915 296.736 305.148C298.456 307.954 299.935 310.902 301.156 313.959C301.201 314.073 301.246 314.178 301.285 314.289C302.413 317.152 303.322 320.095 304.005 323.095C304.037 323.248 304.074 323.399 304.105 323.552C304.744 326.455 305.179 329.399 305.405 332.363C305.405 332.469 305.405 332.577 305.426 332.688C305.537 334.221 305.593 335.77 305.595 337.335C305.595 338.735 305.547 340.123 305.46 341.502C305.46 341.652 305.439 341.808 305.426 341.964C305.402 342.363 305.368 342.756 305.333 343.157C307.35 344.784 309.237 346.565 310.979 348.483C311.748 349.323 312.492 350.194 313.212 351.097C315.405 353.846 317.333 356.796 318.969 359.908C323.434 368.337 326 378.252 326 388.864Z" fill="#00C8B3"/>
<path opacity="0.1" d="M296.163 452.349C296.163 454.152 289.95 455.842 279.108 457.294H74.0384C64.9145 457.314 55.9481 454.917 48.0509 450.347L47.9294 450.279C51.0452 449.143 56.6694 448.084 64.3241 447.129L64.6674 447.086C68.1 446.667 71.9366 446.268 76.1297 445.89C76.2353 445.89 76.3436 445.874 76.4492 445.861C79.7762 445.565 83.3153 445.288 87.0665 445.029C87.1853 445.029 87.3015 445.008 87.4203 445.003C88.8673 444.899 90.3442 444.801 91.8511 444.707L92.432 444.67C103.403 443.989 115.874 443.445 129.399 443.086H129.414C131.308 443.033 133.223 442.987 135.157 442.946C137.309 442.895 139.486 442.85 141.69 442.811C143.372 442.774 145.075 442.748 146.783 442.722H146.823C154.531 442.605 162.494 442.547 170.637 442.547C190.774 442.547 209.806 442.914 226.671 443.575H226.718C229.311 443.675 231.857 443.786 234.339 443.899L236.451 444C239.252 444.133 241.98 444.277 244.637 444.43C275.873 446.207 296.163 449.093 296.163 452.349Z" fill="#00C8B3"/>
<g opacity="0.2">
<path d="M194.626 441.335C194.618 441.62 194.585 441.904 194.528 442.183C192.691 441.891 190.842 441.627 188.983 441.391C188.983 441.317 188.983 441.24 188.983 441.164C189.001 440.372 189.228 439.599 189.644 438.925C190.187 438.064 191.014 437.525 191.925 437.554C192.836 437.583 193.625 438.172 194.114 439.062C194.483 439.761 194.66 440.546 194.626 441.335Z" fill="#3F3D56"/>
<path d="M194.778 436.823C194.842 434.781 193.63 433.086 192.071 433.037C190.511 432.987 189.195 434.603 189.13 436.645C189.065 438.687 190.277 440.382 191.837 440.432C193.397 440.481 194.713 438.865 194.778 436.823Z" fill="#3F3D56"/>
<path d="M194.922 432.302C194.986 430.26 193.774 428.565 192.215 428.516C190.655 428.466 189.339 430.082 189.274 432.124C189.21 434.166 190.422 435.861 191.981 435.911C193.541 435.96 194.857 434.344 194.922 432.302Z" fill="#3F3D56"/>
<path d="M195.063 427.782C195.128 425.74 193.916 424.044 192.356 423.995C190.797 423.946 189.48 425.561 189.415 427.603C189.351 429.645 190.563 431.341 192.122 431.39C193.682 431.439 194.999 429.824 195.063 427.782Z" fill="#3F3D56"/>
<path d="M195.205 423.261C195.269 421.219 194.057 419.524 192.498 419.475C190.938 419.425 189.621 421.041 189.557 423.083C189.492 425.125 190.704 426.82 192.264 426.87C193.823 426.919 195.14 425.303 195.205 423.261Z" fill="#3F3D56"/>
<path d="M182.77 391.895C182.398 391.392 182.063 390.862 181.767 390.311L189.229 389.326L181.197 389.133C180.48 387.433 180.117 385.604 180.131 383.759C180.146 381.914 180.536 380.091 181.278 378.402L191.872 384.33L182.168 376.715C183.147 375.132 184.442 373.767 185.972 372.707C187.502 371.647 189.234 370.913 191.06 370.552C192.886 370.191 194.767 370.211 196.585 370.61C198.404 371.008 200.12 371.778 201.628 372.87C203.135 373.962 204.402 375.353 205.347 376.956C206.293 378.559 206.898 380.34 207.125 382.188C207.351 384.035 207.195 385.91 206.664 387.694C206.134 389.478 205.241 391.134 204.042 392.558C204.62 393.341 205.112 394.185 205.507 395.074L195.714 399.774L206.099 396.651C206.753 398.809 206.858 401.096 206.406 403.304C205.953 405.513 204.956 407.575 203.506 409.301C205.014 411.347 205.915 413.776 206.108 416.309C206.3 418.843 205.776 421.38 204.594 423.63C203.412 425.88 201.622 427.752 199.426 429.032C197.231 430.312 194.72 430.948 192.18 430.868C189.64 430.788 187.173 429.995 185.063 428.579C182.953 427.163 181.283 425.182 180.246 422.863C179.208 420.543 178.845 417.978 179.196 415.461C179.548 412.944 180.601 410.577 182.234 408.63C180.433 406.186 179.506 403.207 179.602 400.171C179.697 397.136 180.811 394.221 182.762 391.895H182.77Z" fill="#00C8B3"/>
<path opacity="0.1" d="M206.675 401.026C206.582 404.063 205.465 406.979 203.506 409.301C205.014 411.347 205.915 413.775 206.108 416.309C206.3 418.843 205.776 421.38 204.594 423.63C203.412 425.88 201.622 427.752 199.426 429.032C197.231 430.312 194.72 430.948 192.18 430.868C189.64 430.788 187.173 429.995 185.063 428.579C182.953 427.163 181.283 425.182 180.246 422.863C179.208 420.543 178.845 417.978 179.196 415.461C179.548 412.944 180.601 410.577 182.234 408.63C180.5 406.272 206.722 399.508 206.675 401.026Z" fill="black"/>
</g>
<g opacity="0.2">
<path d="M154.491 441.335C154.482 441.62 154.45 441.904 154.393 442.183C152.555 441.891 150.707 441.627 148.848 441.391C148.848 441.317 148.848 441.24 148.848 441.164C148.865 440.372 149.093 439.599 149.508 438.925C150.052 438.064 150.879 437.525 151.79 437.554C152.701 437.583 153.49 438.172 153.979 439.062C154.348 439.761 154.525 440.546 154.491 441.335Z" fill="#3F3D56"/>
<path d="M154.64 436.824C154.704 434.782 153.492 433.087 151.933 433.038C150.373 432.988 149.056 434.604 148.992 436.646C148.927 438.688 150.139 440.383 151.699 440.432C153.258 440.482 154.575 438.866 154.64 436.824Z" fill="#3F3D56"/>
<path d="M154.784 432.304C154.848 430.262 153.636 428.566 152.077 428.517C150.517 428.468 149.2 430.083 149.136 432.125C149.071 434.167 150.283 435.863 151.843 435.912C153.403 435.961 154.719 434.346 154.784 432.304Z" fill="#3F3D56"/>
<path d="M154.925 427.783C154.99 425.741 153.778 424.045 152.218 423.996C150.658 423.947 149.342 425.562 149.277 427.604C149.213 429.646 150.425 431.342 151.984 431.391C153.544 431.44 154.86 429.825 154.925 427.783Z" fill="#3F3D56"/>
<path d="M155.066 423.263C155.131 421.221 153.919 419.525 152.359 419.476C150.8 419.427 149.483 421.042 149.419 423.084C149.354 425.126 150.566 426.822 152.126 426.871C153.685 426.92 155.002 425.305 155.066 423.263Z" fill="#3F3D56"/>
<path d="M142.635 391.895C142.263 391.392 141.928 390.862 141.632 390.311L149.094 389.326L141.061 389.133C140.345 387.433 139.982 385.604 139.996 383.759C140.01 381.914 140.401 380.091 141.143 378.402L151.737 384.33L142.033 376.715C143.012 375.132 144.307 373.767 145.837 372.707C147.367 371.647 149.099 370.913 150.925 370.552C152.751 370.191 154.632 370.211 156.45 370.61C158.268 371.008 159.985 371.778 161.492 372.87C163 373.962 164.266 375.353 165.212 376.956C166.158 378.559 166.763 380.34 166.99 382.188C167.216 384.035 167.059 385.91 166.529 387.694C165.998 389.478 165.106 391.134 163.907 392.558C164.485 393.341 164.976 394.185 165.372 395.074L155.579 399.774L165.964 396.651C166.618 398.809 166.723 401.096 166.27 403.304C165.818 405.513 164.821 407.575 163.371 409.301C164.878 411.347 165.78 413.776 165.972 416.309C166.165 418.843 165.64 421.38 164.459 423.63C163.277 425.88 161.486 427.752 159.291 429.032C157.096 430.312 154.584 430.948 152.044 430.868C149.504 430.788 147.038 429.995 144.928 428.579C142.817 427.163 141.148 425.182 140.11 422.863C139.073 420.543 138.709 417.978 139.061 415.461C139.413 412.944 140.465 410.577 142.099 408.63C140.298 406.186 139.37 403.207 139.466 400.171C139.562 397.136 140.675 394.221 142.627 391.895H142.635Z" fill="#00C8B3"/>
<path opacity="0.1" d="M166.539 401.026C166.447 404.063 165.33 406.979 163.371 409.301C164.878 411.347 165.78 413.775 165.972 416.309C166.165 418.843 165.64 421.38 164.459 423.63C163.277 425.88 161.486 427.752 159.291 429.032C157.096 430.312 154.584 430.948 152.044 430.868C149.504 430.788 147.038 429.995 144.928 428.579C142.817 427.163 141.148 425.182 140.11 422.863C139.073 420.543 138.709 417.978 139.061 415.461C139.413 412.944 140.465 410.577 142.099 408.63C140.364 406.272 166.587 399.508 166.539 401.026Z" fill="black"/>
</g>
<g opacity="0.2">
<path d="M264.123 444.224C264.103 444.764 264.039 445.3 263.931 445.829C260.392 445.264 256.829 444.759 253.239 444.314C253.239 444.171 253.239 444.026 253.239 443.878C253.273 442.353 253.712 440.865 254.512 439.566C255.568 437.911 257.152 436.873 258.903 436.926C260.654 436.979 262.177 438.117 263.128 439.83C263.845 441.18 264.188 442.697 264.123 444.224Z" fill="#3F3D56"/>
<path d="M264.41 435.53C264.535 431.598 262.2 428.333 259.196 428.238C256.192 428.143 253.656 431.254 253.532 435.187C253.408 439.119 255.742 442.384 258.746 442.479C261.75 442.574 264.286 439.463 264.41 435.53Z" fill="#3F3D56"/>
<path d="M264.685 426.827C264.809 422.895 262.475 419.63 259.471 419.535C256.467 419.44 253.931 422.551 253.806 426.484C253.682 430.416 256.017 433.681 259.021 433.776C262.025 433.871 264.561 430.76 264.685 426.827Z" fill="#3F3D56"/>
<path d="M264.962 418.124C265.086 414.192 262.752 410.927 259.748 410.832C256.744 410.737 254.208 413.848 254.083 417.78C253.959 421.713 256.294 424.978 259.298 425.073C262.302 425.168 264.838 422.057 264.962 418.124Z" fill="#3F3D56"/>
<path d="M264.927 409.025C265.045 405.09 262.704 401.828 259.699 401.738C256.693 401.647 254.161 404.764 254.043 408.698C253.925 412.633 256.266 415.895 259.271 415.986C262.277 416.076 264.809 412.959 264.927 409.025Z" fill="#3F3D56"/>
<path d="M241.296 349.046C240.584 348.076 239.939 347.059 239.366 346.001L253.73 344.105L238.27 343.733C236.889 340.46 236.191 336.94 236.217 333.388C236.243 329.835 236.994 326.326 238.423 323.074L258.821 334.483L240.142 319.823C242.031 316.783 244.526 314.164 247.471 312.129C250.416 310.095 253.749 308.689 257.261 307.999C260.774 307.309 264.391 307.35 267.887 308.119C271.383 308.888 274.683 310.369 277.581 312.469C280.48 314.57 282.915 317.245 284.734 320.327C286.553 323.41 287.718 326.834 288.156 330.387C288.594 333.94 288.296 337.544 287.28 340.977C286.264 344.409 284.552 347.595 282.25 350.337C283.362 351.846 284.309 353.47 285.073 355.182L266.217 364.236L286.208 358.216C287.468 362.365 287.673 366.763 286.805 371.012C285.937 375.26 284.023 379.225 281.236 382.548C284.138 386.486 285.873 391.162 286.243 396.04C286.613 400.918 285.603 405.801 283.329 410.132C281.054 414.463 277.606 418.067 273.38 420.53C269.154 422.994 264.319 424.219 259.43 424.065C254.54 423.911 249.793 422.384 245.73 419.659C241.668 416.933 238.454 413.12 236.456 408.654C234.459 404.189 233.759 399.251 234.435 394.406C235.112 389.561 237.138 385.004 240.282 381.257C236.816 376.55 235.032 370.816 235.216 364.974C235.4 359.133 237.541 353.522 241.296 349.043V349.046Z" fill="#00C8B3"/>
<path opacity="0.1" d="M287.32 366.62C287.146 372.463 285.007 378.077 281.247 382.553C284.149 386.491 285.884 391.167 286.254 396.045C286.624 400.923 285.614 405.806 283.339 410.137C281.064 414.468 277.617 418.072 273.39 420.535C269.164 422.999 264.33 424.224 259.44 424.07C254.551 423.916 249.803 422.389 245.741 419.664C241.678 416.938 238.464 413.125 236.467 408.659C234.469 404.194 233.769 399.256 234.446 394.411C235.122 389.566 237.148 385.009 240.293 381.262C236.929 376.717 287.412 363.697 287.32 366.62Z" fill="black"/>
</g>
<path d="M56.6719 444.688L59.4417 444.681H63.347L68.2847 364.468L117.184 282.87L115.058 280.588V274.811L62.1746 362.578L56.6719 444.688Z" fill="#F1C0C0"/>
<path opacity="0.1" d="M59.7375 444.681H63.3471L68.2848 364.468L117.184 282.87L115.058 280.589L64.6198 363.246L59.7375 444.681Z" fill="black"/>
<path d="M48.5103 445.357L175.213 455.053L175.322 455.061L297.942 447.519L298.035 447.514V442.336L162.922 439.857L50.1975 439.749H49.3737L49.2839 440.329L48.5103 445.357Z" fill="#F1C0C0"/>
<path opacity="0.1" d="M48.5103 445.357L175.213 455.053L175.322 455.061L297.942 447.519L298.035 447.419V442.444H297.927L175.213 446.542L50.1975 439.749H50.179L49.9572 439.894L49.2839 440.329L48.5103 445.357Z" fill="black"/>
<path opacity="0.1" d="M48.5103 445.357L175.213 455.052V446.542L49.9572 439.894L49.2839 440.329L48.5103 445.357Z" fill="black"/>
<path d="M115.042 280.48L170.901 340.435L169.175 445.895L173.919 446.468L173.999 446.479H178.744L179.311 344.963L283.908 379.902L285.672 442.112L289.49 442.539L290.784 442.685L287.79 375.588L178.448 337.2L118.493 274.872H115.042V280.48Z" fill="#F1C0C0"/>
<path opacity="0.1" d="M178.881 343.022L179.311 344.963L283.908 379.902L285.672 442.111L289.49 442.539L286.496 378.608L178.881 343.022Z" fill="black"/>
<path opacity="0.1" d="M115.042 280.48L170.901 340.435L169.175 445.895L173.919 446.468L175.213 336.984L115.042 274.872V280.48Z" fill="black"/>
<path d="M179.084 385.347L217.448 392.901L217.461 392.904L284.653 406.141L287.729 404.908L287.719 404.691L287.518 400.4L179.124 378.498L179.084 385.347Z" fill="#F1C0C0"/>
<path opacity="0.1" d="M217.461 392.903L284.653 406.14L287.729 404.907L287.718 404.69L217.461 392.903Z" fill="black"/>
<path d="M220.03 358.564L221.068 415.688L221.604 444.995L226.328 444.837L229.301 444.736L228.377 359.391L226.328 358.71L225.879 358.564H220.03Z" fill="#F1C0C0"/>
<path opacity="0.1" d="M220.072 358.551V358.564L221.068 415.688L221.604 444.995L226.328 444.837V358.551H220.072Z" fill="black"/>
<path d="M146.036 373.153C146.313 373.303 146.578 373.475 146.828 373.668C147.124 373.927 147.39 374.218 147.62 374.536C148.753 376.002 149.799 377.705 149.688 379.553C149.69 379.822 149.639 380.089 149.538 380.338C149.437 380.587 149.288 380.814 149.099 381.005C148.632 381.404 147.961 381.423 147.348 381.423C146.683 381.423 145.983 381.423 145.408 381.079C144.832 380.736 144.351 380.068 143.67 380.084C143.574 380.1 143.476 380.1 143.38 380.084C143.145 380.007 143.097 379.698 142.944 379.503C142.68 379.152 142.123 379.239 141.708 379.392C141.294 379.545 140.834 379.775 140.425 379.598C140.187 379.473 139.993 379.279 139.868 379.041C138.888 377.457 138.68 375.553 138.495 373.712C138.381 372.593 137.515 368.775 139.905 369.644C140.961 370.024 141.949 370.784 142.91 371.341L146.036 373.153Z" fill="#3F3D56"/>
<path d="M143.675 373.53C143.889 373.684 144.148 373.762 144.41 373.751C144.673 373.741 144.925 373.642 145.125 373.472C145.518 373.117 145.769 372.631 145.83 372.105C146.094 372.023 146.229 372.369 146.398 372.58C146.693 372.939 147.296 372.934 147.565 373.317C147.752 373.581 147.71 373.948 147.842 374.246C148.014 374.632 148.439 374.832 148.729 375.144C149.004 375.484 149.202 375.879 149.31 376.303L149.743 377.602C149.95 378.142 150.084 378.708 150.139 379.284C150.167 379.572 150.136 379.862 150.05 380.138C149.964 380.415 149.824 380.671 149.638 380.892C149.057 381.518 148.103 381.584 147.261 381.565C146.98 381.571 146.699 381.538 146.427 381.468C145.68 381.235 145.202 380.483 145.004 379.725C144.806 378.967 144.827 378.172 144.71 377.396C144.585 376.634 144.363 375.89 144.05 375.183C143.818 374.634 143.179 373.816 143.19 373.232C143.38 373.232 143.517 373.406 143.675 373.53Z" fill="#3F3D56"/>
<path d="M144.623 370.856C144.5 370.481 144.428 370.091 144.409 369.697C144.409 368.904 144.771 368.16 145.136 367.452L142.118 367.861C141.753 367.912 141.347 367.986 141.141 368.289C141.062 368.44 141.021 368.607 141.021 368.776C141.021 368.946 141.062 369.113 141.141 369.264C141.292 369.565 141.412 369.881 141.5 370.206C141.507 370.491 141.539 370.775 141.597 371.054C141.691 371.259 141.823 371.444 141.986 371.6C142.849 372.556 143.496 373.684 144.14 374.801C144.122 374.769 145.959 373.346 145.885 372.881C145.843 372.617 145.312 372.3 145.144 372.047C144.91 371.679 144.735 371.277 144.623 370.856Z" fill="#BE6F72"/>
<path d="M170.5 360.54V363.14L125.963 371.828L123.653 373.227H115.681V371.762L159.439 361.189L170.5 360.54Z" fill="#F1C0C0"/>
<path opacity="0.1" d="M170.5 363.141L125.963 371.828L123.653 373.227H115.681L159.764 363.793L170.5 363.141Z" fill="black"/>
<path d="M134.743 434.372C134.247 433.771 133.562 433.356 132.799 433.194C132.037 433.032 131.242 433.133 130.545 433.48C130.395 433.55 130.263 433.653 130.159 433.781C129.895 434.151 130.064 434.66 130.088 435.117C130.148 436.231 129.261 437.137 128.464 437.916C128.036 438.333 127.6 438.779 127.408 439.347C127.215 439.915 127.357 440.636 127.875 440.931C128.101 441.045 128.347 441.113 128.598 441.132C129.442 441.297 130.308 441.321 131.16 441.203C132.002 441.042 132.829 440.564 133.193 439.788C133.263 439.578 133.38 439.385 133.534 439.226C133.998 438.859 134.711 439.289 135.239 439.028C135.675 438.811 135.693 438.47 135.699 438.022C135.715 436.781 135.53 435.376 134.743 434.372Z" fill="#00C8B3"/>
<path d="M141.08 434.325C141.405 435.18 141.449 436.112 141.492 437.026C141.515 437.554 141.531 438.119 141.246 438.565C140.961 439.012 140.404 439.247 139.87 439.358C138.769 439.585 137.494 439.371 136.784 438.497C136.24 437.829 136.126 436.912 136.227 436.046C136.311 435.336 136.491 434.504 135.981 434C135.849 433.865 135.677 433.77 135.556 433.625C135.292 433.303 135.334 432.817 135.477 432.421C135.662 432.042 135.802 431.642 135.891 431.23C135.912 431.035 139.466 431.367 139.794 431.529C140.24 431.748 140.171 432.115 140.306 432.558C140.494 433.176 140.853 433.733 141.08 434.325Z" fill="#00C8B3"/>
<path d="M141.732 396.392C142.429 396.843 142.699 397.731 142.807 398.554C143.105 400.812 142.582 403.093 142.543 405.372C142.506 408.564 143.43 411.815 142.64 414.907C142.168 416.755 142.569 418.868 142.126 420.734C141.993 421.289 141.751 421.812 141.624 422.366C141.36 423.568 141.637 424.824 142.009 425.999C142.128 426.316 142.204 426.647 142.234 426.984C142.216 427.503 142.084 428.011 141.848 428.474L140.264 432.22C140.087 432.64 139.39 432.709 138.944 432.764C138.104 432.865 137.167 432.936 136.499 432.416C135.831 431.896 135.67 431.024 135.567 430.211C135.369 428.65 135.281 427.077 135.303 425.503C135.332 425.092 135.295 424.68 135.194 424.281C135.049 423.829 134.73 423.438 134.642 422.96C134.532 422.342 134.846 421.735 134.962 421.112C135.042 420.543 135.033 419.965 134.936 419.398C134.833 418.553 134.714 417.708 134.579 416.869C134.389 415.694 134.661 414.535 134.843 413.357C135.015 412.251 134.796 411.123 134.579 410.025C134.598 410.916 134.487 411.806 134.249 412.665C134.109 413.085 133.908 413.486 133.787 413.914C133.246 415.834 134.4 417.848 134.236 419.837C134.159 420.766 133.795 421.685 133.898 422.601C133.969 423.272 134.281 423.887 134.495 424.526C134.708 425.165 134.819 425.897 134.495 426.493C133.636 428.115 134.278 430.319 135.046 431.983C135.202 432.278 135.338 432.583 135.453 432.896C135.68 433.646 135.49 434.452 135.551 435.233C135.33 435.269 135.103 435.255 134.889 435.19C134.674 435.126 134.477 435.013 134.312 434.861C134.196 434.739 134.101 434.597 133.988 434.47C133.67 434.168 133.295 433.933 132.884 433.781C132.643 433.646 132.368 433.583 132.092 433.599C131.802 433.68 131.54 433.842 131.339 434.066C131.078 434.296 130.801 434.507 130.51 434.697C130.386 434.792 130.241 434.857 130.088 434.885C130.01 434.897 129.931 434.884 129.862 434.848C129.792 434.813 129.735 434.756 129.699 434.687C129.683 434.643 129.673 434.596 129.67 434.549C129.572 433.752 129.52 432.95 129.515 432.146C129.515 430.766 127.862 429.815 127.653 428.45C127.487 427.349 127.796 426.227 127.693 425.118C127.643 424.547 127.484 423.987 127.495 423.417C127.495 423.047 127.579 422.686 127.608 422.319C127.632 421.911 127.626 421.503 127.59 421.096L127.508 419.821C127.429 418.561 127.342 417.275 126.845 416.124C126.256 414.78 125.908 413.343 125.815 411.878C125.763 410.954 125.797 410.03 125.691 409.103C125.596 408.266 125.385 407.434 125.446 406.595C125.496 405.945 125.71 405.317 125.76 404.667C125.863 403.418 125.388 402.204 125.015 401.007C124.643 399.811 124.368 398.486 124.857 397.332C124.927 397.142 125.043 396.974 125.195 396.841C125.382 396.717 125.595 396.637 125.818 396.608C130.348 395.657 134.992 395.361 139.607 395.729C140.359 395.772 141.089 395.999 141.732 396.392Z" fill="#3F3D56"/>
<path d="M126.742 368.347C129.078 368.347 130.972 366.453 130.972 364.117C130.972 361.781 129.078 359.887 126.742 359.887C124.406 359.887 122.512 361.781 122.512 364.117C122.512 366.453 124.406 368.347 126.742 368.347Z" fill="#BE6F72"/>
<path d="M125.924 369.401C125.984 369.643 125.984 369.896 125.924 370.138C125.857 370.307 125.763 370.464 125.646 370.602C125.237 371.131 124.784 371.623 124.292 372.076C124.542 372.636 124.994 373.081 125.557 373.325C126.115 373.563 126.702 373.73 127.302 373.824C127.601 373.902 127.913 373.924 128.221 373.887C128.504 373.816 128.773 373.694 129.013 373.528L131.363 372.121C131.718 371.929 132.046 371.692 132.34 371.416C132.771 370.973 133.015 370.381 133.021 369.763C133.032 369.652 133.002 369.541 132.937 369.451C132.847 369.373 132.734 369.325 132.615 369.316C131.788 369.134 131.136 368.464 130.766 367.703C130.432 366.924 130.216 366.099 130.125 365.255L127.619 366.576C127.246 366.774 126.877 366.972 126.491 367.143C126.246 367.254 125.749 367.347 125.575 367.571C125.242 367.986 125.836 368.902 125.924 369.401Z" fill="#BE6F72"/>
<path d="M124.308 371.307C123.951 371.6 123.672 371.976 123.497 372.403C123.333 372.931 123.497 373.488 123.645 374.011C124.338 376.24 124.867 378.516 125.229 380.821C125.451 382.405 125.533 384.013 125.641 385.616C125.863 388.885 126.185 394.097 126.615 397.345C128.2 397.416 129.744 396.954 131.315 396.785C134.252 396.474 137.275 397.187 140.15 396.521C139.453 393.767 138.756 389.064 138.059 386.313C137.751 385.229 137.537 384.12 137.42 382.999C137.359 382.194 137.396 381.386 137.407 380.575C137.431 378.991 137.344 377.407 137.256 375.823C137.156 373.974 137.056 372.126 136.617 370.317C136.587 370.087 136.479 369.873 136.311 369.712C136.047 369.52 135.704 369.588 135.39 369.631C134.428 369.753 133.454 369.522 132.649 368.981C132.3 368.743 131.833 368.453 131.508 368.717C131.37 368.876 131.278 369.071 131.244 369.279C131.1 369.653 130.879 369.992 130.594 370.273C130.308 370.553 129.967 370.77 129.591 370.909C128.839 371.181 128.051 371.343 127.252 371.389C127.007 371.442 126.752 371.413 126.526 371.307C126.151 371.078 126.124 370.251 125.652 370.196C125.237 370.148 124.587 371.041 124.308 371.307Z" fill="#3F3D56"/>
<path d="M130.555 377.756C129.581 376.823 129.153 375.472 128.443 374.323C127.959 373.551 127.341 372.871 126.618 372.316C126.255 372.076 125.921 371.793 125.625 371.474C125.374 371.165 125.184 370.753 124.804 370.634C124.647 370.6 124.484 370.605 124.329 370.647C124.174 370.69 124.032 370.77 123.914 370.88C123.681 371.102 123.461 371.336 123.254 371.582C122.135 372.741 120.167 372.902 119.28 374.244C119.041 374.528 118.878 374.869 118.808 375.234C118.552 377.186 119.057 379.162 120.218 380.752C120.442 381.121 120.787 381.401 121.195 381.545C121.139 382.037 121.205 382.535 121.385 382.997C121.874 384.668 122.474 386.304 123.183 387.895C123.013 388.517 122.895 389.152 122.829 389.793C122.644 391.407 122.816 393.044 122.642 394.66C122.499 395.98 122.113 397.266 122.1 398.589C122.1 398.8 122.119 399.051 122.301 399.159C122.398 399.209 122.506 399.232 122.615 399.225L125.863 399.323C127.748 399.378 129.652 399.434 131.508 399.085C131.755 399.049 131.995 398.973 132.218 398.861C132.847 398.51 133.056 397.718 133.156 397.013C133.287 396.098 133.339 395.174 133.312 394.251C133.705 395.494 134.172 396.78 135.361 397.319C135.989 397.604 136.707 397.583 137.396 397.564C138.882 397.498 140.362 397.346 141.83 397.108C141.92 397.119 142.012 397.109 142.098 397.078C142.184 397.047 142.261 396.997 142.324 396.931C142.387 396.865 142.434 396.785 142.46 396.698C142.487 396.611 142.492 396.519 142.477 396.429L142.493 394.987C142.524 392.059 141.798 389.26 141.516 386.345C141.426 385.426 141.434 384.497 141.209 383.596C141.117 383.219 140.982 382.849 140.9 382.469C140.83 382.097 140.786 381.72 140.768 381.341L140.562 378.437C140.465 377.093 140.325 375.796 140.222 374.455C140.165 373.149 139.976 371.852 139.657 370.584C139.427 369.792 138.949 368.894 138.123 368.796C137.682 368.746 137.254 368.939 136.834 369.074C135.802 369.399 134.695 369.394 133.665 369.06C133.347 368.935 133.016 368.846 132.678 368.796C132.508 368.773 132.334 368.796 132.176 368.862C132.017 368.928 131.879 369.034 131.775 369.171C131.672 369.378 131.624 369.607 131.635 369.837C131.511 372.475 131.281 375.192 130.555 377.756Z" fill="#00C8B3"/>
<path d="M126.306 377.835C125.089 376.551 123.84 375.244 122.272 374.429C121.654 374.106 120.952 373.863 120.268 373.985C119.584 374.106 118.947 374.701 118.979 375.395C119 375.825 119.262 376.206 119.344 376.628C119.439 377.103 119.301 377.61 119.449 378.07C119.569 378.373 119.749 378.648 119.977 378.88L121.847 381.096C122.639 382.02 123.431 382.957 124.45 383.596C125.469 384.235 126.79 384.534 127.909 384.079C128.706 383.709 129.368 383.101 129.805 382.339C130.27 381.6 130.597 380.792 131.033 380.029C131.711 378.81 132.606 377.724 133.673 376.826C133.124 376.684 132.435 376.483 132.089 376.034C131.991 375.891 131.907 375.739 131.838 375.58L131.41 374.656C131.265 374.648 131.12 374.671 130.983 374.722C130.847 374.773 130.723 374.852 130.618 374.954C130.435 375.166 130.238 375.366 130.03 375.553C129.657 375.833 129.153 375.91 128.815 376.229C128.684 376.367 128.566 376.515 128.461 376.673C128.205 377.009 127.881 377.286 127.509 377.487C127.138 377.687 126.728 377.806 126.306 377.835Z" fill="#3F3D56"/>
<path d="M133.771 372.313C134.687 370.642 134.645 368.638 134.907 366.75C134.935 366.25 135.11 365.77 135.411 365.369C135.939 364.772 136.871 364.764 137.668 364.841C137.903 364.867 138.197 364.978 138.183 365.213C138.165 365.297 138.124 365.375 138.065 365.438C137.292 366.435 136.837 367.642 136.76 368.902C137.175 369.19 137.816 368.598 138.215 368.902C138.479 369.124 138.358 369.562 138.199 369.879C137.831 370.613 137.452 371.342 137.061 372.065C136.749 372.703 136.342 373.29 135.854 373.805C135.519 374.127 135.126 374.381 134.785 374.698C133.993 375.44 133.515 376.488 132.696 377.211C132.627 377.286 132.534 377.334 132.432 377.346C132.328 377.339 132.23 377.295 132.155 377.222C131.746 376.889 131.407 376.479 131.157 376.015C130.845 375.44 130.893 375.271 131.384 374.864C132.303 374.138 133.198 373.359 133.771 372.313Z" fill="#BE6F72"/>
<path d="M124.775 376.699C124.933 376.797 125.129 376.908 125.303 376.826C125.374 376.783 125.435 376.724 125.48 376.654C125.782 376.251 126.034 375.813 126.23 375.35C126.264 375.284 126.282 375.212 126.285 375.139C126.285 374.97 126.135 374.846 125.995 374.748C125.245 374.27 124.439 373.887 123.595 373.607C122.897 373.343 122.169 373.113 121.429 373.179C121.152 373.198 120.88 373.273 120.632 373.399C120.384 373.525 120.164 373.7 119.985 373.913C119.457 374.592 120.342 374.798 120.896 375.044C122.179 375.627 123.568 375.965 124.775 376.699Z" fill="#00C8B3"/>
<path opacity="0.1" d="M123.943 381.188C123.934 381.248 123.94 381.31 123.959 381.368C123.978 381.426 124.011 381.478 124.054 381.521C124.131 381.146 124.03 380.75 124.11 380.372C124.226 379.805 124.778 379.377 124.825 378.806C123.814 378.608 123.951 380.576 123.943 381.188Z" fill="black"/>
<path opacity="0.2" d="M170.5 360.54V363.14L159.764 363.793L159.439 361.189L170.5 360.54Z" fill="black"/>
<path d="M122.934 364.745C123.605 364.199 123.217 363.053 123.671 362.319C123.935 361.917 124.381 361.706 124.82 361.527C125.349 361.279 125.916 361.122 126.496 361.062C126.787 361.034 127.081 361.072 127.355 361.173C127.629 361.274 127.877 361.435 128.081 361.645C128.252 361.841 128.369 362.078 128.53 362.282C128.729 362.519 128.989 362.698 129.282 362.799C129.575 362.9 129.89 362.921 130.193 362.857C130.544 362.778 130.909 362.512 130.885 362.152C130.845 361.934 130.734 361.735 130.568 361.587L129.813 360.75C128.955 359.8 128.002 358.791 126.742 358.553C125.865 358.387 124.968 358.622 124.123 358.905C123.782 359.018 123.399 359.187 123.304 359.533C123.241 359.771 123.336 360.029 123.28 360.27C123.172 360.748 122.559 360.909 122.274 361.31C121.989 361.711 122.076 362.187 121.994 362.63C121.913 363.074 121.675 363.507 121.646 363.966C121.627 364.244 121.767 364.759 122.079 364.859C122.391 364.959 122.742 364.415 122.934 364.745Z" fill="#3F3D56"/>
<path d="M130.629 361.773C130.406 360.611 129.926 359.514 129.224 358.562C128.6 357.672 127.731 356.983 126.724 356.576C126.22 356.379 125.678 356.299 125.139 356.342C124.6 356.384 124.077 356.548 123.61 356.822C122.918 357.316 122.379 357.996 122.055 358.784C121.371 360.257 121.118 362.058 121.913 363.473C122.23 363.088 122.773 363.262 123.254 363.122C123.856 362.95 124.366 362.549 124.939 362.298C126.668 361.535 128.781 362.153 130.629 361.773Z" fill="#FED253"/>
<path opacity="0.1" d="M122.317 361.691C122.256 361.216 122.216 360.664 122.554 360.326C122.571 360.305 122.592 360.288 122.617 360.277C122.641 360.266 122.668 360.261 122.694 360.262C122.718 360.27 122.74 360.282 122.758 360.299C122.777 360.315 122.792 360.335 122.802 360.357C122.998 360.665 123.164 360.991 123.299 361.329C123.102 361.284 122.896 361.298 122.708 361.371C122.52 361.444 122.358 361.572 122.243 361.738" fill="black"/>
<path opacity="0.1" d="M128.487 360.349L128.392 359.406C128.377 359.329 128.383 359.248 128.411 359.174C128.451 359.112 128.512 359.067 128.583 359.047C128.654 359.028 128.73 359.035 128.796 359.069C128.926 359.14 129.033 359.248 129.105 359.377C129.325 359.715 129.507 360.075 129.649 360.452C129.224 360.37 128.786 360.376 128.363 360.468" fill="black"/>
<path opacity="0.1" d="M130.851 398.607V400.762L129.031 400.883H119.462V398.607H130.851Z" fill="black"/>
<path d="M130.851 398.607V400.883H119.462L89.2078 362.984V361.194H95.5502L130.851 398.607Z" fill="#F1C0C0"/>
<path opacity="0.1" d="M130.851 398.607V400.883H119.462L89.2078 362.984V361.194H95.5502L130.851 398.607Z" fill="black"/>
<path opacity="0.1" d="M130.851 398.607V400.883H119.462L89.2078 362.984V361.194L119.626 398.607H130.851Z" fill="black"/>
<path d="M93.1739 436.593C93.1938 436.7 93.1914 436.81 93.1668 436.916C93.1423 437.022 93.0961 437.122 93.0311 437.21C92.9662 437.297 92.8839 437.37 92.7895 437.425C92.695 437.479 92.5903 437.513 92.4821 437.525C91.748 437.773 90.9691 438.019 90.4489 438.581C89.9287 439.144 89.8257 440.187 90.4489 440.643C90.7674 440.836 91.1331 440.935 91.5051 440.931C92.7012 441.013 93.9475 440.997 95.0328 440.49C95.8091 440.131 96.5405 439.519 97.3933 439.574C97.8343 439.6 98.3043 439.806 98.6977 439.606C99.0912 439.405 99.2021 438.845 99.2047 438.378C99.2147 437.402 99.0676 436.431 98.769 435.502C98.7294 435.376 97.0501 435.278 96.8494 435.238L94.8136 434.974C94.4281 434.924 93.5963 434.634 93.2927 434.956C92.989 435.278 93.1739 436.21 93.1739 436.593Z" fill="#00C8B3"/>
<path d="M105.323 430.002C105.409 430.478 105.549 430.942 105.74 431.386C106.022 432.104 106.384 432.867 107.076 433.216C107.704 433.53 108.475 433.416 109.114 433.118C109.381 433.007 109.615 432.83 109.793 432.603C109.999 432.244 110.091 431.83 110.057 431.417C110.057 430.396 109.996 429.339 109.529 428.431C109.127 427.639 108.428 426.958 108.417 426.081L106.012 426.546C105.883 426.558 105.76 426.607 105.658 426.686C105.582 426.766 105.529 426.865 105.505 426.974C105.248 427.962 105.186 428.99 105.323 430.002Z" fill="#00C8B3"/>
<path d="M76.5968 404.918C76.4965 405.768 76.5387 406.679 76.9823 407.413C77.4259 408.147 78.3607 408.633 79.1686 408.34C79.21 408.329 79.2489 408.311 79.2829 408.285C79.3169 408.259 79.3454 408.227 79.3667 408.189C79.3882 408.1 79.376 408.006 79.3324 407.925C78.9757 406.973 79.005 405.92 79.4142 404.989C79.467 404.868 79.5806 404.725 79.7047 404.773C79.7566 404.799 79.7983 404.842 79.8235 404.894C79.9513 405.115 80.0153 405.368 80.0083 405.623C79.971 405.854 79.9639 406.09 79.9872 406.323C80.0374 406.55 80.2803 406.764 80.4915 406.666C80.5526 406.628 80.6054 406.579 80.6467 406.52C80.688 406.462 80.717 406.395 80.7318 406.325C81.3206 404.622 81.0539 402.761 80.7846 400.978C80.7869 400.937 80.7801 400.897 80.7648 400.858C80.7495 400.82 80.726 400.786 80.6961 400.758C80.6661 400.73 80.6303 400.709 80.5914 400.697C80.5524 400.684 80.5111 400.68 80.4704 400.685C79.2241 400.561 78.5429 400.263 77.8299 401.422C77.2173 402.399 76.5968 403.743 76.5968 404.918Z" fill="#00C8B3"/>
<path d="M91.1671 400.585C90.7974 402.122 90.4251 403.677 90.4014 405.256C90.4079 406.239 90.482 407.221 90.6232 408.195L90.9004 410.481C90.9955 411.252 91.0879 412.021 91.2226 412.784C91.3085 413.177 91.3553 413.578 91.3625 413.98C91.3366 414.377 91.2738 414.77 91.175 415.155C91.009 415.964 90.9162 416.785 90.8978 417.611C90.8687 418.931 91.0324 420.251 91.1354 421.571C91.341 424.202 91.3101 426.846 91.043 429.472C90.9364 430.18 91.0902 430.904 91.476 431.507C91.6326 431.698 91.7615 431.909 91.8589 432.136C92.0569 432.741 91.5949 433.345 91.476 433.966C91.4 434.45 91.5192 434.944 91.8073 435.34C92.0955 435.736 92.529 436.001 93.0128 436.078C95.1252 436.329 97.2956 436.215 99.1994 437.182C99.4001 436.596 98.9618 435.93 99.1624 435.333C99.2892 434.964 99.6377 434.724 99.8754 434.412C100.195 433.937 100.354 433.373 100.33 432.801C100.339 432.055 100.206 431.314 99.9387 430.618C99.7143 430.037 99.3922 429.464 99.4107 428.841C99.4107 428.534 99.5189 428.212 99.3948 427.93C99.3097 427.767 99.1941 427.623 99.0542 427.504C98.265 426.64 97.7801 425.541 97.6732 424.376C97.5703 423.219 97.6075 422.054 97.7841 420.906C97.9135 419.813 98.0878 418.659 98.7822 417.806C98.4602 415.22 98.6495 412.596 99.3394 410.083C99.408 409.85 99.5163 409.581 99.7539 409.526C99.8483 409.516 99.9437 409.529 100.032 409.564C100.12 409.599 100.199 409.655 100.261 409.726C100.675 410.114 100.873 410.677 101.053 411.215C101.251 411.799 101.452 412.422 101.301 413.019C101.238 413.283 101.111 413.515 101.037 413.769C100.877 414.278 100.905 414.828 101.116 415.319C101.22 415.498 101.284 415.697 101.307 415.902C101.282 416.079 101.228 416.25 101.148 416.409C101.05 416.722 101.019 417.051 101.057 417.377C101.095 417.702 101.2 418.015 101.367 418.297C101.704 418.858 102.119 419.367 102.6 419.81C102.37 420.824 102.43 421.881 102.772 422.863C102.797 422.907 102.812 422.955 102.818 423.006C102.824 423.056 102.82 423.107 102.806 423.156C102.759 423.256 102.637 423.293 102.542 423.364C102.278 423.581 102.442 423.99 102.619 424.273C103.104 425.048 103.639 425.791 104.222 426.496C104.75 427.127 104.702 428.344 105.489 428.571C105.82 428.643 106.162 428.643 106.492 428.571C107.269 428.452 108.135 428.228 108.515 427.541C108.671 427.259 108.734 426.916 108.977 426.704C109.22 426.493 109.534 426.456 109.669 426.203C109.804 425.949 109.653 425.617 109.698 425.323C109.743 425.03 109.999 424.795 110.081 424.486C110.276 423.774 109.444 423.187 109.331 422.459C109.167 421.402 110.498 420.61 110.443 419.554C110.326 417.259 110.252 414.954 110.134 412.66C109.984 410.604 109.963 408.542 110.07 406.484C110.163 405.203 110.334 403.862 109.864 402.671C109.188 400.992 107.324 400.049 105.521 399.869C103.717 399.69 101.919 400.118 100.132 400.397C97.1647 400.855 94.1504 400.918 91.1671 400.585Z" fill="#3F3D56"/>
<path d="M96.5272 375.347C98.8633 375.347 100.757 373.453 100.757 371.117C100.757 368.781 98.8633 366.887 96.5272 366.887C94.191 366.887 92.2971 368.781 92.2971 371.117C92.2971 373.453 94.191 375.347 96.5272 375.347Z" fill="#FBBEBE"/>
<path d="M94.8056 376.137C94.6619 376.471 94.4203 376.755 94.1125 376.949C93.8048 377.144 93.4453 377.241 93.0814 377.227C92.9282 377.861 93.2953 378.5 93.7151 378.999C94.5869 380.013 95.7135 380.777 96.9787 381.211C98.244 381.645 99.6021 381.734 100.913 381.468C101.423 381.376 101.907 381.175 102.331 380.876C102.902 380.399 103.286 379.735 103.414 379.002C103.535 378.273 103.57 377.533 103.517 376.797C103.531 376.651 103.49 376.506 103.4 376.39C103.295 376.308 103.164 376.266 103.031 376.269C102.138 376.189 101.206 376.155 100.422 375.717C99.6377 375.279 99.0805 374.288 99.4581 373.475C99.3974 373.602 97.8553 373.663 97.652 373.689C97.0157 373.779 96.3793 373.879 95.7456 373.995C95.4411 374.012 95.1401 374.069 94.8505 374.164C94.4676 374.362 94.6102 374.265 94.7 374.624C94.8347 375.173 95.0327 375.566 94.8056 376.137Z" fill="#FBBEBE"/>
<path d="M98.0244 378.708C97.4547 378.715 96.8863 378.652 96.3319 378.521C95.772 378.39 95.2786 378.061 94.943 377.594C94.7476 377.298 94.6208 376.926 94.3093 376.76C93.7997 376.495 93.2187 376.942 92.8121 377.351C92.4419 377.755 92.0128 378.1 91.5394 378.375C90.9743 378.674 90.3142 378.779 89.7808 379.131C89.3642 379.446 89.0066 379.832 88.7247 380.271L84.9831 385.367C83.4807 387.416 82.1737 389.616 80.8349 391.779C79.6758 393.651 79.0685 395.805 78.1945 397.825C78.1252 397.949 78.0966 398.091 78.1126 398.232C78.1443 398.369 78.3106 398.48 78.4268 398.401C78.0334 398.792 78.3793 399.457 78.2869 400.006C78.1818 400.391 77.9627 400.734 77.6584 400.991C78.2396 400.915 78.8296 400.943 79.4012 401.073C79.9918 401.24 80.5492 401.508 81.0488 401.865C81.3683 401.815 81.3393 401.247 81.5769 401.036C81.7195 400.912 81.9307 400.928 82.1182 400.891C82.8232 400.753 83.1031 399.906 83.6444 399.428C84.0959 399.029 84.7349 398.9 85.2128 398.525C85.9891 397.915 86.1555 396.83 86.5621 395.929C86.908 395.166 87.452 394.501 87.7556 393.719C87.9536 393.212 88.0487 392.663 88.3312 392.196C88.7828 391.441 89.633 391.039 90.4436 390.677C90.9559 390.448 91.4998 390.21 92.0517 390.247C92.0226 391.475 91.8668 392.684 92.1335 393.883C92.2259 394.305 92.3553 394.717 92.4662 395.137C92.9705 397.028 93.0894 398.998 93.1131 400.946C94.3263 400.669 95.5654 400.52 96.8098 400.503C97.7894 400.474 98.7664 400.6 99.746 400.582C100.908 400.561 102.056 400.336 103.218 400.257C104.38 400.178 105.595 400.257 106.622 400.785C106.538 399.112 106.585 397.434 106.762 395.768L107.042 393.144C107.105 392.381 107.222 391.624 107.393 390.878C107.546 390.276 107.768 389.695 107.937 389.096C108.531 386.983 108.423 384.728 108.309 382.529C108.251 381.399 107.815 380.287 107.303 379.281C107.118 378.907 106.906 378.547 106.669 378.204C106.05 377.351 105.225 376.669 104.271 376.221C103.318 375.773 102.266 375.574 101.214 375.643C101.08 375.647 100.947 375.675 100.823 375.727C100.6 375.87 100.426 376.077 100.324 376.321C99.778 377.303 98.9853 378.126 98.0244 378.708Z" fill="#3F3D56"/>
<path d="M92.8068 372.519C92.9256 372.255 93.2451 372.157 93.4405 371.946C93.8154 371.545 93.6465 370.903 93.7045 370.362C93.7996 369.57 94.4571 368.907 95.2096 368.624C95.977 368.378 96.7937 368.326 97.586 368.474C97.9675 368.502 98.3359 368.624 98.6581 368.83C98.7954 368.931 98.9221 369.06 99.0515 369.153C99.2874 369.295 99.5696 369.34 99.8379 369.277C100.106 369.214 100.34 369.049 100.488 368.817C99.5532 367.692 98.5181 366.504 97.0976 366.158C96.6102 366.059 96.1136 366.012 95.6162 366.018C94.9588 366.005 94.2802 365.995 93.6729 366.245C92.8464 366.586 92.2655 367.37 91.9671 368.215C91.7062 369.072 91.5666 369.96 91.5526 370.856C91.4984 371.453 91.4984 372.054 91.5526 372.651C91.6546 373.467 91.9577 374.244 92.4345 374.914C92.4989 375.018 92.5901 375.103 92.6985 375.16C93.9026 375.688 92.7091 372.738 92.8068 372.519Z" fill="#3F3D56"/>
<path d="M100.351 368.165C100.205 366.922 99.3182 365.894 98.3755 365.068C97.6157 364.351 96.7107 363.806 95.7218 363.47C94.7264 363.177 93.5804 363.241 92.7275 363.835C92.041 364.313 91.6053 365.073 91.27 365.839C90.8295 366.743 90.6113 367.738 90.6336 368.743C90.6997 369.742 91.1855 370.753 92.0516 371.257C92.3631 370.798 92.9044 370.56 93.4246 370.373C95.6918 369.512 98.0038 368.776 100.351 368.165Z" fill="#FED253"/>
<path opacity="0.1" d="M92.3421 367.648C92.4266 367.648 92.4821 367.735 92.5243 367.806C92.7393 368.141 92.924 368.494 93.0762 368.862C92.7672 368.928 92.2365 369.002 92.0833 368.73C92.0015 368.593 92.0992 367.634 92.3421 367.648Z" fill="black"/>
<path opacity="0.1" d="M98.3598 367.051C98.2964 367.112 98.2224 366.988 98.2224 366.898V365.873C98.2207 365.845 98.2271 365.816 98.2409 365.791C98.2519 365.779 98.2652 365.769 98.2802 365.761C98.2952 365.754 98.3115 365.75 98.3281 365.749C98.5419 365.725 98.7189 365.908 98.8562 366.082C99.0645 366.364 99.2458 366.666 99.3975 366.982L98.2805 366.948" fill="black"/>
<path d="M112.299 384.016C112.542 383.785 112.801 383.573 113.075 383.38C113.807 382.891 114.691 382.698 115.512 382.387C116.333 382.075 117.168 381.571 117.487 380.752C117.647 380.24 117.699 379.701 117.64 379.168C117.648 378.945 117.609 378.723 117.524 378.516C117.424 378.333 117.281 378.177 117.107 378.062C115.993 377.238 114.498 377.172 113.115 377.256C110.064 377.445 107.074 378.192 104.293 379.458C104.146 379.507 104.017 379.599 103.923 379.723C103.869 379.837 103.845 379.963 103.852 380.09C103.803 380.868 103.904 381.649 104.15 382.389C104.515 383.329 105.265 384.087 105.579 385.046C105.721 385.476 105.769 385.933 105.893 386.366C105.995 386.813 106.259 387.207 106.635 387.47C107.678 388.093 108.663 387.256 109.386 386.606L112.299 384.016Z" fill="#3F3D56"/>
<path d="M98.6395 387.673L97.3008 384.752C97.1045 384.348 96.9352 383.931 96.7938 383.504C96.6407 382.994 96.5668 382.466 96.4242 381.954C95.9542 380.248 94.7686 378.827 94.1903 377.156C94.1538 377.005 94.0792 376.866 93.9738 376.752C93.8894 376.692 93.7929 376.652 93.6912 376.633C93.5894 376.615 93.4849 376.62 93.385 376.646C92.577 376.786 91.9459 377.401 91.2066 377.75C90.8633 377.908 90.4937 378.014 90.1504 378.196C89.9788 378.277 89.8268 378.395 89.7047 378.54C89.5826 378.685 89.4932 378.855 89.4428 379.038C89.3609 379.442 89.5616 379.831 89.7306 380.224C90.4488 381.845 90.6125 383.657 90.6442 385.431C90.668 386.625 90.6072 387.905 89.9022 388.864C88.5477 390.712 89.4137 393.426 89.9207 395.663C89.9814 395.927 90.0527 396.212 90.095 396.492C90.1396 396.842 90.1599 397.195 90.1557 397.548C90.1557 398.734 90.0897 399.956 89.5933 401.031C90.0834 401.292 90.6235 401.445 91.1776 401.48C92.7108 401.675 94.2502 401.813 95.7957 401.892C96.28 401.937 96.7683 401.912 97.2454 401.818C97.8119 401.665 98.3114 401.327 98.6647 400.859C99.0181 400.39 99.2053 399.817 99.1967 399.23C99.2812 399.962 99.437 400.756 99.9677 401.263C100.498 401.77 101.272 401.847 101.993 401.886C104.027 401.994 106.067 401.937 108.092 401.715C108.222 401.709 108.349 401.679 108.467 401.628C108.858 401.432 108.879 400.894 108.848 400.461C108.79 399.65 108.729 398.839 108.631 398.034C108.548 397.521 108.506 397.001 108.504 396.481C108.545 395.946 108.633 395.416 108.768 394.897C109.122 393.249 109.402 391.568 109.283 389.88C109.236 389.469 109.22 389.055 109.233 388.642C109.302 387.71 109.793 386.823 109.7 385.896C109.436 383.171 109.223 380.375 108.462 377.745C108.325 377.275 108.151 376.77 107.741 376.501C107.213 376.147 106.471 376.332 105.867 376.108C105.583 375.976 105.313 375.815 105.061 375.63C104.514 375.287 103.887 375.094 103.242 375.07C102.756 375.051 102.215 375.16 101.922 375.55C101.786 375.77 101.696 376.016 101.658 376.271C101.275 377.882 100.826 379.474 100.377 381.066L99.9466 382.593L98.7927 386.691C98.6791 387.126 98.7557 387.261 98.6395 387.673Z" fill="#00C8B3"/>
<path d="M105.391 371.685L130.933 398.525V400.802H119.544L100.351 375.751" fill="#F1C0C0"/>
<path opacity="0.1" d="M105.391 371.685L130.933 398.525V400.802H119.544L100.351 375.751" fill="black"/>
<path opacity="0.1" d="M100.757 375.397L100.839 375.427L119.708 398.525H130.933V400.801H119.544L100.351 375.751L100.757 375.397Z" fill="black"/>
<path d="M103.696 375.962C102.772 376.366 101.745 376.884 101.468 377.856C101.413 378.026 101.401 378.207 101.433 378.384C101.501 378.591 101.63 378.773 101.803 378.905C101.976 379.038 102.185 379.114 102.402 379.126C102.837 379.136 103.269 379.057 103.672 378.893L109.125 377.092C109.273 377.045 109.442 376.974 109.479 376.828C109.488 376.737 109.47 376.645 109.426 376.564C109.257 376.152 109.091 375.31 108.737 375.022C108.446 374.79 107.871 374.872 107.52 374.877C106.168 374.888 104.898 375.434 103.696 375.962Z" fill="#00C8B3"/>
<path d="M108.557 377.306C109.476 377.304 110.389 377.445 111.264 377.726C112.142 378.011 112.92 378.543 113.506 379.258C113.676 379.457 113.797 379.694 113.859 379.949C113.912 380.213 114.773 380.372 114.583 380.551C115.161 380.459 115.024 380.731 115.61 380.726C116.196 380.72 116.83 380.57 117.181 380.103C117.425 379.719 117.534 379.264 117.49 378.811C117.498 378.498 117.438 378.186 117.316 377.898C117.052 377.343 116.444 377.045 115.885 376.789L111.169 374.631C110.895 374.486 110.601 374.382 110.297 374.323C110.041 374.298 109.783 374.305 109.529 374.341L107.393 374.587C107.86 374.889 108.24 375.308 108.496 375.802C108.752 376.296 108.875 376.848 108.853 377.404" fill="#3F3D56"/>
</g>
<path d="M200.557 227.803C200.698 227.803 200.833 227.75 200.936 227.654C201.039 227.558 201.101 227.427 201.111 227.286C201.475 222.345 203.691 217.723 207.316 214.346C210.941 210.968 215.708 209.084 220.663 209.071C221.256 209.071 221.879 209.101 222.514 209.161C222.621 209.171 222.728 209.15 222.823 209.101C222.917 209.052 222.996 208.976 223.049 208.883C225.325 204.9 228.724 201.674 232.821 199.61C236.918 197.546 241.533 196.734 246.089 197.276C250.645 197.818 254.94 199.689 258.439 202.657C261.938 205.625 264.486 209.557 265.764 213.964C265.797 214.082 265.87 214.185 265.969 214.258C266.068 214.331 266.188 214.368 266.311 214.365L266.459 214.36C266.536 214.358 266.612 214.355 266.69 214.355C270.448 214.367 274.089 215.663 277.009 218.029C279.929 220.395 281.952 223.688 282.743 227.362C282.77 227.487 282.838 227.599 282.937 227.679C283.036 227.76 283.16 227.804 283.287 227.804H320.551C320.624 227.804 320.697 227.79 320.764 227.762C320.832 227.734 320.894 227.693 320.945 227.641C320.997 227.59 321.038 227.528 321.066 227.461C321.094 227.393 321.109 227.32 321.109 227.247C321.109 227.174 321.094 227.102 321.066 227.034C321.038 226.966 320.997 226.905 320.945 226.853C320.894 226.802 320.832 226.761 320.764 226.733C320.697 226.705 320.624 226.691 320.551 226.691H283.733C282.806 222.87 280.626 219.469 277.54 217.031C274.454 214.594 270.641 213.26 266.709 213.243C265.309 208.715 262.625 204.69 258.981 201.659C255.338 198.628 250.892 196.72 246.185 196.167C241.478 195.614 236.711 196.44 232.465 198.545C228.218 200.65 224.674 203.942 222.263 208.023C221.716 207.98 221.179 207.959 220.663 207.959C215.427 207.973 210.389 209.964 206.558 213.533C202.727 217.102 200.386 221.986 200.001 227.208C199.996 227.281 200.006 227.354 200.029 227.424C200.052 227.493 200.088 227.557 200.136 227.612C200.184 227.667 200.243 227.712 200.308 227.745C200.373 227.778 200.444 227.797 200.517 227.802C200.531 227.803 200.544 227.803 200.557 227.803Z" fill="#00C8B3"/>
<path d="M207.175 234.935H298.394C298.542 234.935 298.683 234.876 298.788 234.772C298.892 234.667 298.951 234.526 298.951 234.378C298.951 234.231 298.892 234.089 298.788 233.985C298.683 233.881 298.542 233.822 298.394 233.822H207.175C207.027 233.822 206.886 233.881 206.782 233.985C206.677 234.089 206.619 234.231 206.619 234.378C206.619 234.526 206.677 234.667 206.782 234.772C206.886 234.876 207.027 234.935 207.175 234.935Z" fill="#00C8B3"/>
<path d="M276.146 243H306.738C306.885 243 307.027 242.942 307.131 242.837C307.235 242.733 307.294 242.591 307.294 242.444C307.294 242.296 307.235 242.155 307.131 242.051C307.027 241.946 306.885 241.888 306.738 241.888H276.146C275.998 241.888 275.857 241.946 275.753 242.051C275.648 242.155 275.59 242.296 275.59 242.444C275.59 242.591 275.648 242.733 275.753 242.837C275.857 242.942 275.998 243 276.146 243Z" fill="#00C8B3"/>
<path d="M241.74 110.479C260.926 110.479 276.479 94.9258 276.479 75.7396C276.479 56.5535 260.926 41 241.74 41C222.553 41 207 56.5535 207 75.7396C207 94.9258 222.553 110.479 241.74 110.479Z" fill="#FF6584"/>
<path d="M174.287 145.703C174.107 145.703 173.934 145.635 173.802 145.512C173.671 145.389 173.591 145.221 173.578 145.041C173.113 138.717 170.276 132.802 165.637 128.48C160.997 124.157 154.896 121.746 148.555 121.729C147.796 121.729 146.999 121.768 146.185 121.844C146.049 121.856 145.912 121.83 145.791 121.767C145.669 121.704 145.569 121.607 145.501 121.489C142.588 116.39 138.238 112.262 132.994 109.62C127.75 106.979 121.844 105.94 116.013 106.633C110.183 107.326 104.685 109.722 100.207 113.52C95.729 117.318 92.4686 122.351 90.8329 127.991C90.7897 128.142 90.6975 128.274 90.5708 128.367C90.4441 128.46 90.29 128.508 90.1329 128.504L89.9436 128.498C89.8452 128.495 89.7468 128.492 89.6476 128.492C84.8378 128.507 80.1778 130.166 76.4407 133.194C72.7036 136.222 70.1141 140.436 69.1019 145.138C69.0682 145.298 68.9806 145.442 68.8538 145.544C68.727 145.647 68.5686 145.703 68.4053 145.703H20.7141C20.6204 145.704 20.5276 145.685 20.441 145.65C20.3544 145.614 20.2756 145.562 20.2093 145.496C20.1429 145.43 20.0903 145.351 20.0544 145.264C20.0185 145.178 20 145.085 20 144.992C20 144.898 20.0185 144.805 20.0544 144.719C20.0903 144.632 20.1429 144.553 20.2093 144.487C20.2756 144.421 20.3544 144.369 20.441 144.333C20.5276 144.298 20.6204 144.279 20.7141 144.28H67.8356C69.0219 139.389 71.8122 135.036 75.7612 131.917C79.7102 128.797 84.5904 127.09 89.623 127.068C91.4146 121.273 94.8506 116.122 99.5137 112.243C104.177 108.363 109.866 105.921 115.891 105.214C121.915 104.506 128.015 105.564 133.451 108.257C138.886 110.951 143.421 115.165 146.507 120.387C147.207 120.333 147.894 120.305 148.555 120.305C155.256 120.323 161.703 122.871 166.606 127.439C171.509 132.007 174.507 138.258 174.998 144.942C175.005 145.035 174.993 145.129 174.963 145.217C174.934 145.306 174.887 145.388 174.826 145.458C174.764 145.529 174.69 145.587 174.606 145.629C174.522 145.67 174.431 145.695 174.338 145.702C174.321 145.703 174.304 145.703 174.287 145.703Z" fill="#00C8B3"/>
<path d="M165.817 154.83H49.071C48.8822 154.83 48.7011 154.755 48.5676 154.622C48.4341 154.488 48.3591 154.307 48.3591 154.119C48.3591 153.93 48.4341 153.749 48.5676 153.615C48.7011 153.482 48.8822 153.407 49.071 153.407H165.817C166.006 153.407 166.187 153.482 166.321 153.615C166.454 153.749 166.529 153.93 166.529 154.119C166.529 154.307 166.454 154.488 166.321 154.622C166.187 154.755 166.006 154.83 165.817 154.83Z" fill="#00C8B3"/>
<path d="M77.5458 165.153H38.393C38.2042 165.153 38.0232 165.078 37.8897 164.945C37.7562 164.811 37.6812 164.63 37.6812 164.441C37.6812 164.253 37.7562 164.072 37.8897 163.938C38.0232 163.804 38.2042 163.729 38.393 163.729H77.5458C77.7346 163.729 77.9156 163.804 78.0491 163.938C78.1826 164.072 78.2576 164.253 78.2576 164.441C78.2576 164.63 78.1826 164.811 78.0491 164.945C77.9156 165.078 77.7346 165.153 77.5458 165.153Z" fill="#00C8B3"/>
<defs>
<clipPath id="clip0_195_4272">
<rect width="311" height="191.294" fill="white" transform="translate(15 266)"/>
</clipPath>
</defs>
</svg>
