<svg width="84" height="138" viewBox="0 0 84 138" fill="none" xmlns="http://www.w3.org/2000/svg">
<path fill-rule="evenodd" clip-rule="evenodd" d="M5.18999 136.636C2.95466 138.088 0 136.483 0 133.818V68.1568L28.6364 49.5601V119.585C28.6364 120.723 28.0606 121.784 27.1063 122.403L5.18999 136.636ZM28.8575 49.4165L55.2862 32.2535C55.3196 32.2319 55.3636 32.2558 55.3636 32.2955V32.3025L82.4369 49.4373C83.4101 50.0533 84 51.1248 84 52.2765V84.3166C84 85.0337 83.637 85.7022 83.0354 86.0927L60.5529 100.685C58.3175 102.136 55.3636 100.531 55.3636 97.8664V66.1924L28.8575 49.4165Z" fill="white"/>
<path d="M28.8575 49.4165L55.2862 32.2535L28.6364 15.3866V49.2765L28.8575 49.4165Z" fill="white"/>
<path d="M0 68.1568L28.6364 49.5601V49.2765L0 31.1524V68.1568Z" fill="white"/>
<path d="M5.15691 0.526297C2.91972 -0.889636 0 0.717817 0 3.36544V31.1524L28.6364 49.2765V15.3866L5.15691 0.526297Z" fill="white"/>
</svg>
