<svg width="340" height="470" viewBox="0 0 340 470" fill="none" xmlns="http://www.w3.org/2000/svg">
    <g clip-path="url(#clip0_195_4443)">
        <path d="M134.032 262.044H128.056L127.378 268.786H134.032V262.044Z" fill="#ED9DA0" />
        <path
            d="M132.463 251.482C128.983 251.238 125.963 253.862 125.719 257.342C125.475 260.822 128.099 263.841 131.579 264.085C135.059 264.329 138.078 261.706 138.322 258.226C138.566 254.746 135.943 251.727 132.463 251.482Z"
            fill="#ED9DA0" />
        <path
            d="M129.87 248.357C129.845 248.292 129.801 248.236 129.744 248.197C129.687 248.157 129.619 248.136 129.55 248.135C132.447 248.164 135.461 248.715 137.764 250.473C138.293 250.936 138.859 251.353 139.457 251.721C139.486 251.737 139.511 251.76 139.528 251.788C139.546 251.816 139.556 251.848 139.558 251.881C139.559 251.914 139.552 251.946 139.538 251.976C139.523 252.006 139.501 252.031 139.473 252.049L139.399 252.099C139.37 252.118 139.346 252.146 139.331 252.178C139.317 252.21 139.311 252.246 139.315 252.281C139.319 252.316 139.332 252.349 139.354 252.377C139.376 252.405 139.405 252.426 139.438 252.439C139.473 252.452 139.502 252.475 139.524 252.504C139.546 252.533 139.559 252.568 139.561 252.605C139.564 252.642 139.556 252.678 139.538 252.71C139.521 252.742 139.494 252.769 139.462 252.786L138.903 253.095C138.875 253.111 138.852 253.133 138.834 253.16C138.817 253.187 138.807 253.218 138.805 253.249C138.802 253.281 138.808 253.313 138.822 253.342C138.835 253.372 138.855 253.397 138.881 253.416C138.924 253.447 138.97 253.475 139.018 253.498C139.048 253.512 139.074 253.533 139.093 253.56C139.113 253.587 139.125 253.618 139.129 253.65C139.132 253.683 139.128 253.716 139.115 253.747C139.102 253.777 139.082 253.804 139.056 253.824C138.81 254.014 138.613 254.262 138.485 254.545C138.297 255.008 138.181 255.496 138.141 255.994C138.007 255.265 137.255 254.789 136.52 254.694C135.779 254.659 135.036 254.734 134.317 254.917C132.725 255.188 131.095 255.136 129.524 254.766C129.987 255.887 129.442 257.147 128.905 258.235L127.466 257.495C125.51 256.201 126.589 261.166 127.303 261.887C125.708 262.315 122.058 256.047 123.526 253.869C124.29 252.736 123.913 251.18 125.331 250.152C126.037 249.508 127.324 249.907 128.033 249.379C128.312 249.172 127.953 248.539 128.324 248.433C128.837 248.37 129.354 248.344 129.87 248.357Z"
            fill="#2F2E41" />
        <path
            d="M135.653 265.396L137.052 267.671L145.842 270.873L145.121 292.711L144.336 295.022L144.981 296.936L143.854 298.461C145.166 299.491 145.404 300.647 144.818 301.902L140.956 303.076C140.956 303.076 119.269 306.547 120.871 303.038C122.621 299.203 122.368 288.257 117.523 282.739C113.41 278.053 115.851 271.428 115.851 271.428L124.596 268.132L127.746 265.95L135.653 265.396Z"
            fill="#3F3D56" />
        <path
            d="M95.9916 284.684C96.2326 285.029 96.5464 285.317 96.9108 285.528C97.2752 285.739 97.6814 285.867 98.1007 285.904C98.5201 285.941 98.9424 285.885 99.338 285.741C99.7336 285.598 100.093 285.369 100.39 285.071L109.605 289.529L108.905 284.257L100.262 280.831C99.7278 280.364 99.0415 280.11 98.3326 280.116C97.6237 280.121 96.9415 280.387 96.4152 280.862C95.8889 281.337 95.5552 281.988 95.4771 282.693C95.399 283.397 95.5821 284.106 95.9916 284.685L95.9916 284.684Z"
            fill="#ED9DA0" />
        <path
            d="M123.407 268.825C122.611 274.04 120.487 286.233 117.653 288.951C117.475 289.144 117.256 289.295 117.011 289.393C106.617 292.711 102.767 286.377 102.767 286.377C102.767 286.377 105.504 284.797 105.387 282.092L111.228 283.465L115.423 271.903L116.108 271.168L116.112 271.164L123.407 268.825Z"
            fill="#3F3D56" />
        <g clip-path="url(#clip1_195_4443)">
            <path
                d="M94.7375 334.368C108.137 346.722 129.014 345.874 141.368 332.474C153.722 319.074 152.874 298.197 139.474 285.843C126.074 273.49 105.197 274.338 92.8432 287.738C80.4896 301.137 81.3377 322.014 94.7375 334.368Z"
                fill="#627EEA" />
            <path d="M134.637 292.605L122.237 306.055L128.922 321.616L134.637 292.605Z" fill="white"
                fill-opacity="0.602" />
            <path d="M134.637 292.605L106.183 300.653L122.237 306.056L134.637 292.605Z" fill="white" />
            <path d="M109.518 319.852L101.092 328.991L126.978 323.74L109.518 319.852Z" fill="white"
                fill-opacity="0.602" />
            <path d="M101.092 328.991L109.519 319.85L104.232 302.77L101.092 328.991Z" fill="white" />
            <path d="M111.468 317.736L128.922 321.616L122.234 306.059L111.468 317.736Z" fill="white"
                fill-opacity="0.2" />
            <path d="M106.183 300.653L111.468 317.737L122.234 306.059L106.183 300.653Z" fill="white"
                fill-opacity="0.602" />
        </g>
        <path
            d="M144.955 377.087C147.316 377.39 149.765 377.582 152.025 376.849C152.382 376.738 152.773 376.493 152.738 376.137C152.712 376.007 152.657 375.886 152.577 375.781C151.725 374.503 151.009 373.139 150.441 371.712C150.419 371.637 150.373 371.572 150.31 371.527C150.236 371.5 150.155 371.5 150.082 371.527C149.039 371.801 148.138 372.475 147.102 372.763C146.574 372.908 146.023 372.949 145.479 372.884C145.009 372.831 144.366 372.443 143.941 372.493C144.183 374.048 144.774 375.5 144.955 377.087Z"
            fill="#00C8B3" />
        <path
            d="M189.592 373.145C191.148 372.077 192.76 370.956 193.679 369.308C193.744 369.209 193.782 369.096 193.789 368.978C193.774 368.862 193.728 368.751 193.657 368.657C192.783 367.266 191.656 366.051 190.336 365.072C189.647 365.559 189.025 366.133 188.485 366.781C188.093 367.193 187.011 367.849 187.001 368.479C187.001 368.835 187.414 369.248 187.607 369.547C187.867 369.932 188.112 370.323 188.349 370.722C188.482 370.918 189.717 373.068 189.592 373.145Z"
            fill="#00C8B3" />
        <path
            d="M154.207 381.854C154.235 382.221 154.135 382.586 153.923 382.886C153.756 383.053 153.551 383.176 153.325 383.242C150.025 384.424 146.205 382.95 142.912 384.115C142.236 384.353 141.594 384.699 140.915 384.926C140.105 385.17 139.269 385.318 138.424 385.368C137.259 385.478 136.088 385.549 134.921 385.581C134.034 385.644 133.142 385.566 132.279 385.35C131.848 385.239 131.445 385.039 131.096 384.762C130.747 384.485 130.46 384.138 130.254 383.742C130.075 383.389 130.039 382.979 130.154 382.6C130.206 382.47 130.279 382.349 130.372 382.244C130.595 381.993 130.857 381.781 131.147 381.614L132.361 380.831C132.931 380.428 133.549 380.1 134.202 379.855C134.682 379.699 135.191 379.631 135.679 379.499C137.384 379.001 138.687 377.648 139.898 376.349L141.549 374.587C141.704 374.393 141.899 374.236 142.122 374.128C142.352 374.052 142.595 374.028 142.834 374.06C144.439 374.175 145.988 374.694 147.338 375.57C147.683 375.829 148.056 376.048 148.45 376.225C149.419 376.602 150.661 376.318 151.554 375.84C151.978 375.613 151.884 375.484 152.063 375.079C152.243 374.673 152.676 374.413 153.052 374.783C153.166 374.911 153.247 375.065 153.287 375.232C153.643 376.407 153.508 377.671 153.508 378.902C153.498 379.095 153.522 379.288 153.579 379.472C153.67 379.657 153.779 379.834 153.903 379.999C153.929 380.042 153.951 380.087 153.971 380.134C154.189 380.679 154.271 381.269 154.209 381.854L154.207 381.854Z"
            fill="#514E7F" />
        <path
            d="M154.208 381.854C154.235 382.221 154.135 382.585 153.923 382.886C153.757 383.053 153.551 383.176 153.325 383.242C150.025 384.424 146.205 382.95 142.913 384.114C142.236 384.353 141.594 384.698 140.916 384.926C140.105 385.17 139.269 385.318 138.424 385.368C137.26 385.478 136.088 385.549 134.921 385.581C134.034 385.644 133.142 385.566 132.28 385.349C131.848 385.239 131.445 385.038 131.096 384.762C130.747 384.485 130.46 384.137 130.254 383.742C130.075 383.389 130.038 382.98 130.152 382.6C130.203 382.47 130.277 382.35 130.369 382.244C130.561 382.647 130.699 383.181 130.822 383.373C130.986 383.657 131.208 383.904 131.475 384.096C131.741 384.287 132.045 384.42 132.367 384.485C132.849 384.515 133.332 384.453 133.791 384.304C136.781 383.562 139.96 383.552 142.833 382.431C143.819 382.043 144.759 381.527 145.794 381.292C146.83 381.057 147.93 381.121 148.998 381.032C150.686 380.897 152.319 380.388 153.982 380.121C154.197 380.671 154.273 381.265 154.206 381.851L154.208 381.854Z"
            fill="#464353" />
        <path
            d="M197.15 372.929C196.993 374.182 196.199 375.261 195.327 376.176C194.455 377.091 193.469 377.913 192.775 378.967C191.921 380.273 191.536 381.893 190.426 382.997C190 383.398 189.521 383.739 189.002 384.011C188.421 384.354 187.807 384.636 187.169 384.855C185.51 385.385 183.723 385.264 181.99 385.136C181.427 385.13 180.87 385.023 180.345 384.819C180.106 384.697 179.878 384.557 179.661 384.399C179.227 384.131 178.861 383.765 178.593 383.331C178.462 383.094 178.425 382.817 178.49 382.555C178.589 382.266 178.759 382.006 178.984 381.8C179.374 381.395 179.793 381.018 180.237 380.672C180.847 380.279 181.397 379.799 181.869 379.248C182.159 378.812 182.372 378.331 182.499 377.824C182.751 376.935 182.905 376.022 182.958 375.1C182.956 374.488 183.02 373.877 183.147 373.278C183.41 372.338 184.108 371.498 184.03 370.526C183.998 370.387 184.01 370.241 184.065 370.109C184.148 370.006 184.264 369.935 184.393 369.906C184.937 369.69 185.51 369.556 186.094 369.511C186.387 369.491 186.681 369.536 186.954 369.643C187.227 369.75 187.474 369.916 187.675 370.129C187.917 370.421 188.077 370.841 188.433 370.954C188.61 371.002 188.795 371.009 188.974 370.975C189.85 370.886 190.775 370.776 191.466 370.21C191.785 369.924 192.042 369.575 192.219 369.184C192.397 368.794 192.492 368.372 192.498 367.943C192.498 367.619 192.353 367.281 192.854 367.231C193.232 367.181 193.531 367.587 193.723 367.837C194.417 368.766 195.129 369.738 195.389 370.869C195.49 370.83 195.598 370.81 195.706 370.809C195.928 370.807 196.147 370.859 196.345 370.96C196.543 371.061 196.713 371.208 196.842 371.389C197.125 371.848 197.235 372.394 197.151 372.927L197.15 372.929Z"
            fill="#514E7F" />
        <path
            d="M197.15 372.93C196.994 374.183 196.2 375.261 195.328 376.176C194.456 377.092 193.47 377.914 192.775 378.967C191.921 380.274 191.536 381.893 190.426 382.997C190 383.398 189.521 383.74 189.003 384.012C188.422 384.354 187.807 384.637 187.169 384.855C185.51 385.386 183.723 385.265 181.99 385.136C181.427 385.131 180.87 385.023 180.345 384.819C180.106 384.698 179.878 384.558 179.662 384.399C179.227 384.132 178.861 383.766 178.594 383.331C178.927 383.171 179.291 383.084 179.662 383.075C180.431 383.116 180.993 383.844 181.73 384.068C182.78 384.385 183.826 383.645 184.891 383.392C185.585 383.227 186.315 383.271 187.002 383.036C187.575 382.814 188.104 382.493 188.565 382.088C189.197 381.637 189.759 381.095 190.234 380.481C190.629 379.866 190.957 379.211 191.213 378.527C191.775 377.215 192.436 375.949 193.191 374.739C193.303 374.547 193.438 374.37 193.594 374.212C193.767 374.069 193.949 373.937 194.138 373.816C194.85 373.281 195.146 372.392 195.395 371.524C195.462 371.26 195.556 371.004 195.676 370.759C195.898 370.757 196.117 370.809 196.315 370.91C196.513 371.011 196.683 371.158 196.812 371.339C197.118 371.809 197.239 372.376 197.15 372.93Z"
            fill="#464353" />
        <path
            d="M218.751 325.238V320.818C218.75 317.563 217.456 314.442 215.155 312.141C212.853 309.84 209.731 308.547 206.477 308.547H31.8696C28.6149 308.547 25.4934 309.84 23.1916 312.141C20.8899 314.442 19.5963 317.563 19.5955 320.818V328.97L218.751 325.238Z"
            fill="#33323D" />
        <g clip-path="url(#clip2_195_4443)">
            <path
                d="M153.503 334.789C163.722 344.239 179.392 343.913 188.503 334.061C197.614 324.209 196.716 308.561 186.497 299.111C176.278 289.661 160.608 289.987 151.497 299.839C142.386 309.691 143.284 325.339 153.503 334.789Z"
                fill="#627EEA" />
            <path d="M182.949 304.103L173.803 313.993L179.019 325.745L182.949 304.103Z" fill="white"
                fill-opacity="0.602" />
            <path d="M182.949 304.103L161.678 309.709L173.803 313.993L182.949 304.103Z" fill="white" />
            <path d="M164.423 324.137L158.209 330.856L177.586 327.307L164.423 324.137Z" fill="white"
                fill-opacity="0.602" />
            <path d="M158.209 330.856L164.424 324.135L160.239 311.266L158.209 330.856Z" fill="white" />
            <path d="M165.861 322.581L179.019 325.746L173.801 313.995L165.861 322.581Z" fill="white"
                fill-opacity="0.2" />
            <path d="M161.678 309.709L165.861 322.581L173.801 313.995L161.678 309.709Z" fill="white"
                fill-opacity="0.602" />
        </g>
        <g clip-path="url(#clip3_195_4443)">
            <path
                d="M254.394 306.966C268.171 297.099 271.628 278.333 262.115 265.05C252.602 251.768 233.722 248.999 219.945 258.865C206.168 268.732 202.712 287.499 212.224 300.781C221.737 314.064 240.617 316.832 254.394 306.966Z"
                fill="#627EEA" />
            <path d="M225.028 264.322L234.577 277.655L249.871 274.319L225.028 264.322Z" fill="white"
                fill-opacity="0.602" />
            <path d="M225.028 264.322L226.493 291.063L234.577 277.655L225.028 264.322Z" fill="white" />
            <path d="M244.371 291.33L250.859 300.389L251.382 276.412L244.371 291.33Z" fill="white"
                fill-opacity="0.602" />
            <path d="M250.859 300.389L244.37 291.329L227.996 293.161L250.859 300.389Z" fill="white" />
            <path d="M242.869 289.233L249.871 274.319L234.579 277.658L242.869 289.233Z" fill="white"
                fill-opacity="0.2" />
            <path d="M226.493 291.062L242.869 289.233L234.579 277.658L226.493 291.062Z" fill="white"
                fill-opacity="0.602" />
        </g>
        <path opacity="0.1"
            d="M192.551 368.252C199.91 367.335 204.282 353.797 202.316 338.014C200.35 322.23 192.791 310.178 185.432 311.095C178.073 312.011 173.701 325.549 175.667 341.333C177.633 357.116 185.192 369.168 192.551 368.252Z"
            fill="black" />
        <path
            d="M223.466 331.14V453.955C223.465 456.772 222.345 459.473 220.353 461.464C218.361 463.455 215.66 464.574 212.843 464.574H30.2218C27.406 464.573 24.7059 463.454 22.7152 461.463C20.7245 459.471 19.6062 456.771 19.6062 453.955V318.756C24.8396 320.696 24.8396 320.696 30.2218 320.535H212.842C215.656 320.535 218.356 321.652 220.348 323.64C222.339 325.628 223.461 328.326 223.466 331.14Z"
            fill="#00C8B3" />
        <path
            d="M223.464 375.499V414.782H185.374C180.165 414.782 175.17 412.713 171.487 409.03C167.804 405.347 165.735 400.352 165.735 395.143C165.735 389.935 167.804 384.939 171.487 381.256C175.17 377.573 180.165 375.504 185.374 375.504L223.464 375.499Z"
            fill="#33323D" />
        <path
            d="M187.72 402.803C191.949 402.803 195.377 399.375 195.377 395.146C195.377 390.917 191.949 387.489 187.72 387.489C183.491 387.489 180.063 390.917 180.063 395.146C180.063 399.375 183.491 402.803 187.72 402.803Z"
            fill="#00C8B3" />
        <path
            d="M149.263 314.656C149.546 314.343 149.756 313.973 149.88 313.57C150.004 313.168 150.038 312.743 149.979 312.326C149.921 311.909 149.772 311.51 149.543 311.156C149.314 310.803 149.01 310.504 148.653 310.281L150.932 300.302L145.952 302.168L144.55 311.359C144.216 311.983 144.122 312.709 144.287 313.398C144.451 314.088 144.863 314.693 145.443 315.099C146.024 315.505 146.733 315.684 147.437 315.603C148.141 315.521 148.791 315.184 149.263 314.656L149.263 314.656Z"
            fill="#ED9DA0" />
        <path
            d="M143.438 270.496L145.827 270.878C145.827 270.878 156.865 289.094 154.777 292.858C152.689 296.623 150.658 308.746 150.658 308.746C150.658 308.746 146.358 308.2 144.586 306.153L146.562 291.807L142.668 280.138L143.438 270.496Z"
            fill="#3F3D56" />
        <g clip-path="url(#clip4_195_4443)">
            <path
                d="M268.543 394.773C283.272 384.038 286.509 363.396 275.773 348.668C265.038 333.939 244.396 330.702 229.668 341.438C214.94 352.173 211.703 372.815 222.438 387.543C233.173 402.271 253.815 405.508 268.543 394.773Z"
                fill="#627EEA" />
            <path d="M235.357 347.5L246.133 362.284L262.698 358.76L235.357 347.5Z" fill="white" fill-opacity="0.602" />
            <path d="M235.357 347.5L237.706 376.976L246.133 362.284L235.357 347.5Z" fill="white" />
            <path d="M257.186 377.447L264.508 387.493L264.403 361.08L257.186 377.447Z" fill="white"
                fill-opacity="0.602" />
            <path d="M264.508 387.493L257.185 377.446L239.402 379.303L264.508 387.493Z" fill="white" />
            <path d="M255.491 375.123L262.699 358.76L246.136 362.287L255.491 375.123Z" fill="white"
                fill-opacity="0.2" />
            <path d="M237.706 376.977L255.491 375.123L246.136 362.287L237.706 376.977Z" fill="white"
                fill-opacity="0.602" />
        </g>
        <path
            d="M295.768 463.456C295.776 463.459 295.784 463.463 295.791 463.467C295.523 462.888 295.272 462.302 295.045 461.707C295.017 461.637 294.993 461.565 294.966 461.495C294.968 461.513 294.968 461.531 294.97 461.552C294.977 461.664 294.986 461.777 294.995 461.892C295.009 462.07 295.02 462.25 295.022 462.431C295.024 462.487 295.024 462.541 295.024 462.595C295.024 462.815 295.001 463.034 294.957 463.249H294.966C295.022 463.253 295.074 463.256 295.128 463.265C295.341 463.293 295.548 463.352 295.743 463.441C295.752 463.445 295.761 463.45 295.768 463.456Z"
            fill="url(#paint0_linear_195_4443)" />
        <path
            d="M291.5 374.918C291.476 375.859 291.157 376.772 291.107 377.71C293.879 377.848 296.613 376.503 299.358 376.915C298.591 376.421 298.181 375.524 297.939 374.643C297.631 373.507 297.54 372.322 297.668 371.152C297.676 371.087 297.687 371.022 297.703 370.959C297.805 370.498 298.068 369.846 297.998 369.485C297.904 369.005 297.453 369.1 297.046 369.128C295.805 369.222 294.57 369.382 293.346 369.605C293.027 369.661 289.921 370.436 289.874 370.355C290.419 371.229 290.869 372.158 291.219 373.126C291.413 373.703 291.508 374.309 291.5 374.918Z"
            fill="#ED9DA0" />
        <path
            d="M264.085 372.009C264.323 372.334 264.609 372.621 264.932 372.862C265.142 373.035 265.357 373.21 265.583 373.369C265.985 373.68 266.465 373.874 266.969 373.933C267.629 373.978 269.03 373.59 269.442 373.026C269.615 372.742 269.698 372.411 269.678 372.079C269.671 371.628 269.594 371.181 269.451 370.754C269.193 370.06 268.833 369.408 268.382 368.82C267.939 368.13 267.353 367.544 266.663 367.101C266.426 366.975 265.468 367.729 265.718 368.382C265.509 368.388 265.307 368.461 265.141 368.589C264.976 368.717 264.856 368.895 264.797 369.096C264.788 369.203 264.745 369.304 264.674 369.384C264.56 369.476 264.382 369.426 264.253 369.493C264.024 369.617 264.124 369.957 264.1 370.216C264.043 370.44 263.964 370.657 263.864 370.865C263.815 371.061 263.81 371.265 263.848 371.462C263.887 371.66 263.968 371.847 264.086 372.01L264.085 372.009Z"
            fill="#ED9DA0" />
        <path
            d="M302.298 466.385C302.174 466.299 302.032 466.242 301.883 466.22C301.734 466.197 301.582 466.209 301.438 466.255C299.839 466.508 298.222 466.639 296.603 466.646C296.4 465.657 296.988 464.694 297.18 463.701C297.207 463.445 297.272 463.194 297.371 462.957C297.51 462.752 297.691 462.58 297.903 462.452C298.114 462.325 298.351 462.244 298.596 462.217C299.468 462.033 300.83 461.709 301.316 462.588C301.899 463.647 302.086 465.208 302.298 466.385Z"
            fill="#ED9DA0" />
        <path
            d="M284.582 462.645C285.271 463.049 286.046 463.285 286.844 463.335C287.64 463.382 288.424 463.561 289.162 463.864C289.78 464.169 290.3 464.669 290.954 464.888C291.561 465.055 292.201 465.065 292.814 464.917C293.548 464.779 294.331 464.512 294.727 463.877C295.081 463.314 295.043 462.6 294.995 461.935C294.938 461.185 294.882 460.433 294.827 459.681C294.83 459.49 294.782 459.302 294.688 459.137C294.156 458.363 292.865 459.461 292.174 459.459C291.03 459.394 289.946 458.927 289.114 458.14C289.045 458.068 288.964 458.007 288.876 457.961C288.564 457.821 288.252 458.08 287.974 458.306C287.943 458.332 287.912 458.358 287.881 458.382C287.242 458.888 286.383 458.992 285.593 459.197C284.804 459.402 283.956 459.815 283.711 460.595C283.695 460.644 283.682 460.695 283.673 460.745C283.63 461.115 283.692 461.49 283.853 461.827C284.014 462.163 284.266 462.447 284.582 462.645Z"
            fill="#090814" />
        <path
            d="M301.998 413.784C302.51 416.295 302.024 418.906 300.645 421.066C300.234 421.625 299.867 422.214 299.546 422.829C299.361 423.281 299.217 423.748 299.117 424.226L297.898 429.269C297.569 430.629 297.239 432.019 297.337 433.416C297.406 434.39 297.651 435.484 297.051 436.254C296.906 436.401 296.784 436.569 296.688 436.752C296.629 436.966 296.626 437.192 296.682 437.407C297.3 441.069 297.756 444.896 296.641 448.439C295.632 451.649 295.574 455.207 294.716 458.461C294.646 458.874 294.462 459.26 294.183 459.573C293.954 459.766 293.678 459.897 293.384 459.953C292.119 460.254 290.784 459.902 289.605 459.355C288.776 458.971 287.884 458.297 287.956 457.386C288.042 456.96 288.197 456.55 288.415 456.174C288.69 455.366 288.843 454.522 288.868 453.669C289.097 451.541 289.753 449.486 290.248 447.405C290.744 445.324 291.081 443.148 290.661 441.049C289.803 436.708 288.43 432.485 286.571 428.469C286.49 428.256 286.362 428.063 286.196 427.906C286.01 427.8 285.833 427.679 285.667 427.544C285.538 427.345 285.455 427.12 285.424 426.885C285.239 426.22 284.692 425.731 284.324 425.147C283.397 423.674 283.691 421.786 283.725 420.045C283.759 418.353 283.515 416.645 283.792 414.977C284.07 413.308 285.027 411.6 286.636 411.077C287.45 410.866 288.299 410.826 289.13 410.959C293.554 411.391 297.849 412.195 301.998 413.784Z"
            fill="#090814" />
        <path
            d="M283.992 424.397C284.005 425.055 284.08 425.71 284.214 426.354C284.994 430.724 285.824 435.085 286.705 439.437C286.783 439.814 286.859 440.192 286.961 440.562C287.289 441.774 287.865 442.904 288.65 443.883C292.324 448.462 292.641 455.111 294.634 460.633C294.768 461.007 294.903 461.381 295.046 461.75C295.406 462.686 295.816 463.602 296.275 464.493C296.329 464.623 296.416 464.736 296.529 464.821C296.652 464.883 296.791 464.91 296.929 464.898C298.722 464.908 300.493 464.506 302.106 463.721C302.336 463.636 302.53 463.475 302.656 463.264C302.718 463.096 302.738 462.915 302.714 462.738C302.659 461.643 302.591 460.509 302.069 459.547C301.722 458.971 301.292 458.45 300.792 458C300.677 454.559 300.258 451.135 299.542 447.767C299.154 446.051 298.677 444.317 297.679 442.867C296.944 441.796 295.891 440.74 296.02 439.447C296.077 438.88 296.315 438.173 295.853 437.84C295.651 437.693 295.353 437.675 295.217 437.466C295.162 437.367 295.131 437.258 295.127 437.145C295.032 436.259 295.088 435.363 295.292 434.495C295.46 433.929 295.591 433.352 295.686 432.768C295.731 432.475 295.716 432.176 295.641 431.889C295.567 431.602 295.434 431.333 295.252 431.099C295.228 429.92 295.261 428.696 295.236 427.519C295.19 426.847 295.245 426.173 295.401 425.519C295.491 425.21 295.627 424.915 295.696 424.6C295.943 423.467 295.325 422.11 296.06 421.212C296.409 420.881 296.805 420.602 297.235 420.385C298.018 419.814 298.587 418.997 298.849 418.064C299.108 417.137 299.261 416.184 299.306 415.223C299.33 415.019 299.332 414.814 299.313 414.609C299.3 414.504 299.272 414.4 299.231 414.302C299.003 413.79 298.391 413.592 297.846 413.461C294.384 412.63 290.835 412.215 287.275 412.225C285.956 411.328 285.215 411.648 284.658 412.599C284.349 413.179 284.1 413.788 283.913 414.418C283.658 415.188 283.642 419.502 283.394 420.276C283.071 421.285 284.006 423.34 283.992 424.397Z"
            fill="#090814" />
        <path
            d="M292.746 373.137C296.281 373.137 299.147 370.271 299.147 366.736C299.147 363.2 296.281 360.334 292.746 360.334C289.21 360.334 286.344 363.2 286.344 366.736C286.344 370.271 289.21 373.137 292.746 373.137Z"
            fill="#ED9DA0" />
        <path
            d="M289.022 377.215C289.301 377.538 289.675 377.894 290.089 377.79C290.239 377.739 290.379 377.664 290.505 377.568C291.243 377.092 292.149 376.98 293.018 376.85C294.767 376.587 296.495 376.198 298.188 375.689C298.68 375.51 299.196 375.405 299.718 375.377C300.803 375.383 301.765 376.104 302.445 376.95C303.125 377.796 303.607 378.785 304.274 379.64C304.749 380.25 305.316 380.787 305.757 381.42C306.878 383.018 302.337 402.019 302.399 402.339C302.824 405.363 303.048 413.779 302.861 415.33C300.858 414.556 298.76 414.057 296.623 413.846C295.247 413.711 293.846 413.694 292.519 413.308C291.689 413.067 290.904 412.685 290.062 412.493C289.379 412.359 288.686 412.288 287.99 412.282C286.458 412.172 284.919 412.206 283.393 412.385C283.269 412.403 283.12 412.413 283.047 412.312C283.014 412.258 282.998 412.195 283 412.132C282.977 411.562 283.113 410.998 283.393 410.502C283.636 410.192 283.792 409.823 283.846 409.433C283.832 409.25 284.228 385.327 284.794 384.306C285.516 383.152 286.055 381.893 286.392 380.575C286.569 379.693 286.563 378.785 286.689 377.894C286.702 377.668 286.781 377.45 286.915 377.268C287.039 377.16 287.184 377.08 287.341 377.033C287.498 376.986 287.664 376.974 287.826 376.997C288.233 377.009 288.636 377.083 289.022 377.215Z"
            fill="#00C8B3" />
        <path
            d="M286.882 387.215C286.525 387.727 286.066 388.161 285.533 388.487C284.871 388.767 284.148 388.878 283.432 388.809C280.482 388.746 277.544 388.423 274.65 387.844C274.321 387.787 270.788 385.593 270.063 384.671C269.201 383.559 267.034 376.404 266.958 375.997C266.825 375.294 266.469 374.653 265.942 374.169C265.831 374.09 265.746 373.978 265.701 373.848C265.687 373.741 265.707 373.631 265.759 373.536C265.926 373.216 266.162 372.937 266.451 372.721C266.739 372.504 267.073 372.355 267.426 372.284C268.134 372.147 268.859 372.118 269.575 372.198C269.814 372.244 270.049 372.306 270.279 372.386C270.847 373.924 274.804 381.049 275.011 381.039C275.577 381.074 276.799 381.281 277.312 381.039C277.894 380.766 279.804 380.755 279.906 380.7C280.136 380.565 282.213 379.666 282.484 379.695C282.313 379.543 286.245 378.554 286.516 378.081C286.612 377.914 286.631 377.687 286.794 377.585C286.905 377.53 287.031 377.516 287.152 377.544C287.527 377.594 287.892 377.705 288.232 377.873C288.786 380.042 288.495 382.293 288.073 384.491C287.918 385.488 287.508 386.428 286.883 387.219L286.882 387.215Z"
            fill="#00C8B3" />
        <path
            d="M290.101 375.609C290.811 375.216 291.588 374.96 292.392 374.855C292.87 374.746 293.362 374.711 293.85 374.75C294.301 374.806 294.733 374.98 295.187 375.005C295.824 374.976 296.453 374.844 297.048 374.614C297.663 374.446 298.373 374.382 298.891 374.754C299.001 374.862 299.141 374.936 299.292 374.967C299.449 374.948 299.595 374.876 299.707 374.764C300.142 374.452 300.671 374.297 301.205 374.326C301.74 374.354 302.25 374.563 302.65 374.918C303.824 376.019 303.691 378.169 305.067 379.004C305.446 379.234 305.932 379.356 306.152 379.74C306.205 379.863 306.268 379.981 306.339 380.094C306.431 380.195 306.543 380.276 306.669 380.33C307.068 380.508 307.448 380.726 307.803 380.982C307.98 381.111 308.129 381.274 308.241 381.462C308.353 381.65 308.426 381.859 308.455 382.076C308.461 382.394 308.392 382.709 308.255 382.996C307.582 384.647 306.414 386.049 304.912 387.009C303.41 387.97 301.648 388.442 299.867 388.36C299.55 388.376 299.238 388.279 298.988 388.086C298.855 387.936 298.751 387.765 298.68 387.578C298.033 386.223 296.818 385.222 296.047 383.932C295.588 383.164 295.293 382.305 294.814 381.548C294.089 380.401 292.986 379.554 291.906 378.731C291.297 378.267 290.619 377.781 289.854 377.813C289.173 377.842 288.677 377.878 288.927 377.042C289.135 376.44 289.551 375.932 290.101 375.609Z"
            fill="#00C8B3" />
        <path opacity="0.05"
            d="M290.101 375.609C290.811 375.216 291.588 374.96 292.392 374.855C292.87 374.746 293.362 374.711 293.85 374.75C294.301 374.806 294.733 374.98 295.187 375.005C295.824 374.976 296.453 374.844 297.048 374.614C297.663 374.446 298.373 374.382 298.891 374.754C299.001 374.862 299.141 374.936 299.292 374.967C299.449 374.948 299.595 374.876 299.707 374.764C300.142 374.452 300.671 374.297 301.205 374.326C301.74 374.354 302.25 374.563 302.65 374.918C303.824 376.019 303.691 378.169 305.067 379.004C305.446 379.234 305.932 379.356 306.152 379.74C306.205 379.863 306.268 379.981 306.339 380.094C306.431 380.195 306.543 380.276 306.669 380.33C307.068 380.508 307.448 380.726 307.803 380.982C307.98 381.111 308.129 381.274 308.241 381.462C308.353 381.65 308.426 381.859 308.455 382.076C308.461 382.394 308.392 382.709 308.255 382.996C307.582 384.647 306.414 386.049 304.912 387.009C303.41 387.97 301.648 388.442 299.867 388.36C299.55 388.376 299.238 388.279 298.988 388.086C298.855 387.936 298.751 387.765 298.68 387.578C298.033 386.223 296.818 385.222 296.047 383.932C295.588 383.164 295.293 382.305 294.814 381.548C294.089 380.401 292.986 379.554 291.906 378.731C291.297 378.267 290.619 377.781 289.854 377.813C289.173 377.842 288.677 377.878 288.927 377.042C289.135 376.44 289.551 375.932 290.101 375.609Z"
            fill="black" />
        <path
            d="M286.769 468.393C287.265 468.794 287.859 469.055 288.49 469.15C289.903 469.425 291.334 469.602 292.772 469.679C293.238 469.713 293.705 469.75 294.17 469.785C295.535 469.889 296.903 469.994 298.273 469.999C299.965 470.005 301.654 469.859 303.319 469.563C303.386 469.57 303.453 469.56 303.516 469.536C303.578 469.512 303.634 469.473 303.679 469.423C303.723 469.374 303.756 469.314 303.773 469.249C303.791 469.185 303.793 469.117 303.779 469.051C303.75 467.346 302.61 466.021 302.227 464.359C302.069 463.676 301.776 464.834 301.721 464.898C301.594 465.077 301.428 465.223 301.235 465.326C301.041 465.429 300.827 465.485 300.608 465.49C299.2 465.567 297.622 464.71 296.503 463.948C296.264 463.77 296.009 463.613 295.743 463.478C295.547 463.39 295.34 463.331 295.127 463.302C294.403 463.235 293.675 463.382 293.033 463.726C292.191 464.143 291.454 464.743 290.621 465.172C289.944 465.52 289.213 465.752 288.459 465.857C287.697 465.962 286.787 466.012 286.396 466.672C286.395 466.673 286.395 466.674 286.395 466.675C286.395 466.676 286.395 466.677 286.396 466.678C286.262 466.965 286.226 467.288 286.293 467.598C286.361 467.908 286.528 468.187 286.769 468.393Z"
            fill="#090814" />
        <path opacity="0.1"
            d="M300.005 367.624C299.87 367.708 299.72 367.764 299.563 367.789C299.365 367.847 299.157 367.861 298.953 367.83C298.75 367.799 298.555 367.725 298.383 367.612L300.005 367.624Z"
            fill="black" />
        <path
            d="M287.493 358.718C288.329 358.315 289.27 358.188 290.183 358.354C291.086 358.478 292.025 358.757 292.886 358.475C293.867 358.146 294.621 357.116 295.648 357.199C296.084 357.266 296.493 357.452 296.828 357.738C298.156 358.731 299.16 360.096 299.711 361.66C299.818 362.091 300.007 362.497 300.268 362.856C300.443 363.019 300.608 363.191 300.765 363.371C300.918 363.618 301.007 363.901 301.024 364.192C301.202 365.795 300.79 367.408 299.865 368.73C299.318 369.51 298.604 370.157 298.039 370.939C297.473 371.72 295.721 372.955 295.602 372.446C295.431 371.948 295.33 371.427 295.302 370.901C295.355 369.863 295.955 369.018 295.461 368.105C295.155 367.539 294.436 366.973 293.941 367.379C293.746 367.535 293.661 367.791 293.482 367.962C293.287 368.107 293.043 368.169 292.802 368.135C292.562 368.101 292.344 367.974 292.197 367.782C291.913 367.382 291.79 366.89 291.853 366.404C291.989 364.19 291.44 362.565 288.99 362.643C288.077 362.673 287.06 362.547 286.493 361.72C285.746 360.631 286.471 359.277 287.493 358.718Z"
            fill="#090814" />
    </g>
    <defs>
        <linearGradient id="paint0_linear_195_4443" x1="173.524" y1="463.467" x2="173.524" y2="461.495"
            gradientUnits="userSpaceOnUse">
            <stop stop-color="#808080" stop-opacity="0.251" />
            <stop offset="0.535" stop-color="#808080" stop-opacity="0.122" />
            <stop offset="1" stop-color="#808080" stop-opacity="0.102" />
        </linearGradient>
        <clipPath id="clip0_195_4443">
            <rect width="329.775" height="245" fill="white" transform="translate(5 225)" />
        </clipPath>
        <clipPath id="clip1_195_4443">
            <rect width="66" height="66" fill="white" transform="translate(115.211 263.475) rotate(42.6738)" />
        </clipPath>
        <clipPath id="clip2_195_4443">
            <rect width="50.4043" height="48.5956" fill="white" transform="translate(167.994 282) rotate(42.7617)" />
        </clipPath>
        <clipPath id="clip3_195_4443">
            <rect width="61.3657" height="59.1638" fill="white" transform="translate(195 276.731) rotate(-35.6099)" />
        </clipPath>
        <clipPath id="clip4_195_4443">
            <rect width="66" height="66" fill="white" transform="translate(203 360.875) rotate(-36.0879)" />
        </clipPath>
    </defs>
</svg>