<svg xmlns="http://www.w3.org/2000/svg"  viewBox="0 0 72 101" fill="none">
<path d="M36 34C36.2652 34 36.5196 34.1054 36.7071 34.2929C36.8946 34.4804 37 34.7348 37 35C37 35.2652 36.8946 35.5196 36.7071 35.7071C36.5196 35.8946 36.2652 36 36 36C35.7348 36 35.4804 35.8946 35.2929 35.7071C35.1054 35.5196 35 35.2652 35 35C35 34.7348 35.1054 34.4804 35.2929 34.2929C35.4804 34.1054 35.7348 34 36 34ZM36 33C36.5304 33 37.0391 33.2107 37.4142 33.5858C37.7893 33.9609 38 34.4696 38 35C38 35.5304 37.7893 36.0391 37.4142 36.4142C37.0391 36.7893 36.5304 37 36 37C35.4696 37 34.9609 36.7893 34.5858 36.4142C34.2107 36.0391 34 35.5304 34 35C34 34.4696 34.2107 33.9609 34.5858 33.5858C34.9609 33.2107 35.4696 33 36 33ZM36 31C37.0609 31 38.0783 31.4214 38.8284 32.1716C39.5786 32.9217 40 33.9391 40 35C40 36.0609 39.5786 37.0783 38.8284 37.8284C38.0783 38.5786 37.0609 39 36 39C34.9391 39 33.9217 38.5786 33.1716 37.8284C32.4214 37.0783 32 36.0609 32 35C32 33.9391 32.4214 32.9217 33.1716 32.1716C33.9217 31.4214 34.9391 31 36 31ZM36 29C36.7879 29 37.5681 29.1552 38.2961 29.4567C39.0241 29.7583 39.6855 30.2002 40.2426 30.7574C40.7998 31.3145 41.2417 31.9759 41.5433 32.7039C41.8448 33.4319 42 34.2121 42 35C42 35.7879 41.8448 36.5681 41.5433 37.2961C41.2417 38.0241 40.7998 38.6855 40.2426 39.2426C39.6855 39.7998 39.0241 40.2417 38.2961 40.5433C37.5681 40.8448 36.7879 41 36 41C34.4087 41 32.8826 40.3679 31.7574 39.2426C30.6321 38.1174 30 36.5913 30 35C30 33.4087 30.6321 31.8826 31.7574 30.7574C32.8826 29.6321 34.4087 29 36 29ZM36 27C38.1217 27 40.1566 27.8429 41.6569 29.3431C43.1571 30.8434 44 32.8783 44 35C44 37.1217 43.1571 39.1566 41.6569 40.6569C40.1566 42.1571 38.1217 43 36 43C33.8783 43 31.8434 42.1571 30.3431 40.6569C28.8429 39.1566 28 37.1217 28 35C28 32.8783 28.8429 30.8434 30.3431 29.3431C31.8434 27.8429 33.8783 27 36 27ZM36 25C38.6522 25 41.1957 26.0536 43.0711 27.9289C44.9464 29.8043 46 32.3478 46 35C46 37.6522 44.9464 40.1957 43.0711 42.0711C41.1957 43.9464 38.6522 45 36 45C33.3478 45 30.8043 43.9464 28.9289 42.0711C27.0536 40.1957 26 37.6522 26 35C26 32.3478 27.0536 29.8043 28.9289 27.9289C30.8043 26.0536 33.3478 25 36 25ZM36 23C37.5759 23 39.1363 23.3104 40.5922 23.9134C42.0481 24.5165 43.371 25.4004 44.4853 26.5147C45.5996 27.629 46.4835 28.9519 47.0866 30.4078C47.6896 31.8637 48 33.4241 48 35C48 36.5759 47.6896 38.1363 47.0866 39.5922C46.4835 41.0481 45.5996 42.371 44.4853 43.4853C43.371 44.5996 42.0481 45.4835 40.5922 46.0866C39.1363 46.6896 37.5759 47 36 47C32.8174 47 29.7652 45.7357 27.5147 43.4853C25.2643 41.2348 24 38.1826 24 35C24 31.8174 25.2643 28.7652 27.5147 26.5147C29.7652 24.2643 32.8174 23 36 23ZM36 1C56 1 71 16 71 36C71 53 54 66 47 76C39 87 37 98 36 99C35 98 33 87 25 76C18 66 1 53 1 36C1 16 16 1 36 1Z" fill="#EA4335" stroke="#B41512" stroke-width="2"/>
</svg>